<?xml version="1.0" encoding="utf-8"?>
<svg xmlns="http://www.w3.org/2000/svg"
  xmlnsXlink="http://www.w3.org/1999/xlink" width="38px" height="38px" viewBox="0 0 760 38" preserveAspectRatio="none" xml:space="preserve" style="display:none">
  <svg id="arrow-up" viewBox="0 0 24 24" fill="none" stroke="currentColor" stroke-width="2" stroke-linecap="round" stroke-linejoin="round" class="feather feather-chevron-up">
    <polyline points="18 15 12 9 6 15"></polyline>
  </svg>
  <svg id="arrow-down" viewBox="0 0 24 24" fill="none" stroke="currentColor" stroke-width="2" stroke-linecap="round" stroke-linejoin="round">
    <polyline points="6 9 12 15 18 9"></polyline>
  </svg>
  <svg id="cancel" viewBox="0 0 24 24" fill="none" stroke="currentColor" stroke-width="2" stroke-linecap="round" stroke-linejoin="round" class="feather feather-x">
    <line x1="18" y1="6" x2="6" y2="18"></line>
    <line x1="6" y1="6" x2="18" y2="18"></line>
  </svg>
  <svg id="more-thin" viewBox="0 0 24 24" stroke-width="1" stroke-linecap="round" stroke-linejoin="round">
    <circle cx="12" cy="12" r="1"/>
    <circle cx="19" cy="12" r="1"/>
    <circle cx="5" cy="12" r="1"/>
  </svg>
  <svg id="more-thick" viewBox="0 0 24 24" stroke-width="2" stroke-linecap="round" stroke-linejoin="round">
    <circle cx="12" cy="12" r="1"/>
    <circle cx="19" cy="12" r="1"/>
    <circle cx="5" cy="12" r="1"/>
  </svg>
  <svg id="search-thin" viewBox="0 0 24 24" fill="none" stroke="currentColor" stroke-width="1" stroke-linecap="round" stroke-linejoin="round">
    <circle class="st0" cx="13.1" cy="10.9" r="8.9"/>
    <line class="st0" x1="6.8" y1="17.2" x2="2" y2="22"/>
  </svg>
  <svg id="search-thick" viewBox="0 0 24 24" fill="none" stroke="currentColor" stroke-width="2" stroke-linecap="round" stroke-linejoin="round">
    <circle class="st0" cx="13.1" cy="10.9" r="8.9"/>
    <line class="st0" x1="6.8" y1="17.2" x2="2" y2="22"/>
  </svg>
  <svg id="play-thin" viewBox="0 0 24 24" fill="none" stroke="currentColor" stroke-width="1" stroke-linecap="round" stroke-linejoin="round">
    <polygon points="5 3 19 12 5 21 5 3"></polygon>
  </svg>
  <svg id="play-thick" viewBox="0 0 24 24" fill="none" stroke="currentColor" stroke-width="2" stroke-linecap="round" stroke-linejoin="round">
    <polygon points="5 3 19 12 5 21 5 3"></polygon>
  </svg>
  <svg id="logo" viewBox="0 0 38 38">
    <path d="M32.175,34.742h-9.238c-1.008,0-1.824-0.814-1.826-1.822c0-0.002,0-0.002,0-0.004V5.083
      c0-1.008,0.818-1.825,1.826-1.825h9.238C33.183,3.258,34,4.076,34,5.083v9.753l-3.74,3.883l2.333,2.367l1.352,1.395v-0.021
      l0.057,0.059v10.398c0.001,1.008-0.814,1.826-1.822,1.826C32.177,34.742,32.176,34.742,32.175,34.742z M17.574,34.742h-5.933
      c-0.756,0-1.369-0.613-1.369-1.369v-0.57h8.67v0.57C18.942,34.129,18.33,34.742,17.574,34.742z M7.536,34.742H4.685
      c-0.379,0-0.685-0.307-0.686-0.686V3.943c0-0.379,0.307-0.685,0.686-0.685h2.852c0.378,0,0.684,0.306,0.686,0.685v30.114
      C8.22,34.436,7.914,34.742,7.536,34.742z M18.942,32.119l-8.668-0.002v-1.824h8.668V32.119z M18.942,29.609h-8.668V8.277h8.668
      V29.609L18.942,29.609L18.942,29.609z M18.942,7.593h-8.668V5.769h8.668V7.593z M18.942,5.084h-8.668V4.628
      c0-0.756,0.613-1.369,1.369-1.369h5.932c0.756,0,1.367,0.613,1.369,1.369v0.456H18.942z"/>
  </svg>
  <svg id="roof" viewBox="0 0 38 14" stroke="none">
    <path d="M33.612,11.711L19.987,0.794c-0.577-0.461-1.397-0.461-1.977,0l-5.933,4.823V2.576
      c0-0.079-0.064-0.146-0.146-0.146H7.605c-0.08,0-0.144,0.065-0.144,0.146v6.646l-3.079,2.531C4.159,11.934,4.014,12.2,4,12.486
      c-0.017,0.286,0.093,0.565,0.295,0.771c0.188,0.189,0.446,0.295,0.714,0.295c0.229,0,0.455-0.08,0.634-0.223l13.259-10.67
      c0.025-0.022,0.061-0.032,0.095-0.029c0.032,0,0.064,0.01,0.094,0.029l13.257,10.625c0.182,0.145,0.402,0.225,0.634,0.225
      c0.564-0.004,1.021-0.465,1.02-1.029c0-0.012,0-0.021-0.001-0.037C33.983,12.156,33.842,11.889,33.612,11.711z"/>
  </svg>
  <svg id="bell-empty" viewBox="0 0 24 24" fill="none" stroke-width="1" stroke-linecap="round" stroke-linejoin="round">
    <path d="M18 8A6 6 0 0 0 6 8c0 7-3 9-3 9h18s-3-2-3-9"/>
    <path d="M13.73 21a2 2 0 0 1-3.46 0"/>
  </svg>
  <svg id="bell-filled" viewBox="0 0 24 24" stroke="currentColor" stroke-width="2" stroke-linecap="round" stroke-linejoin="round">
    <path d="M18 8A6 6 0 0 0 6 8c0 7-3 9-3 9h18s-3-2-3-9"/>
    <path d="M13.73 21a2 2 0 0 1-3.46 0"/>
  </svg>
</svg>
