<?xml version="1.0" encoding="utf-8"?>
<svg xmlns="http://www.w3.org/2000/svg" xmlnsXlink="http://www.w3.org/1999/xlink" width="38px" height="38px" viewBox="0 0 760 38" preserveAspectRatio="none" xml:space="preserve" style="display: none;">
	<svg id="arrow-up" viewBox="0 0 38 38">
		<path d="M7.525,28.263L19,16.813l11.475,11.449L34,24.737l-15-15l-15,15L7.525,28.263z"/>
	</svg>
	<svg id="arrow-down" viewBox="0 0 38 38">
		<path d="M30.475,9.737L19,21.188L7.525,9.739L4,13.264l15,15l15-15L30.475,9.737z"/>
	</svg>
	<svg id="cancel" viewBox="0 0 38 38">
		<path d="M34,7.022L30.979,4L19,15.978L7.022,4L4,7.022L15.978,19L4,30.979L7.022,34L19,22.021L30.979,34L34,30.979L22.021,19
		L34,7.022z"/>
	</svg>
	<svg id="more-thin" viewBox="0 0 38 38">
		<circle fill="none" stroke="#c43c30" stroke-width="3" stroke-linecap="round" stroke-linejoin="round" cx="19" cy="19" r="1"/>
		<circle fill="none" stroke="#c43c30" stroke-width="3" stroke-linecap="round" stroke-linejoin="round" cx="31.636" cy="19" r="1"/>
		<circle fill="none" stroke="#c43c30" stroke-width="3" stroke-linecap="round" stroke-linejoin="round" cx="6.364" cy="19" r="1"/>
	</svg>
	<svg id="more-thick" viewBox="0 0 38 38">
		<circle fill="none" stroke="#c43c30" stroke-width="6" stroke-linecap="round" stroke-linejoin="round" cx="19" cy="19" r="1"/>
		<circle fill="none" stroke="#c43c30" stroke-width="6" stroke-linecap="round" stroke-linejoin="round" cx="31.636" cy="19" r="1"/>
		<circle fill="none" stroke="#c43c30" stroke-width="6" stroke-linecap="round" stroke-linejoin="round" cx="6.364" cy="19" r="1"/>
	</svg>
	<svg id="search-thin" viewBox="0 0 38 38">
		<circle fill-rule="evenodd" clip-rule="evenodd" fill="none" stroke="#C33C2F" stroke-width="2" stroke-linecap="round" stroke-miterlimit="10" cx="20.402" cy="17.599" r="12.29"/>
		<line fill="none" stroke="#C33C2F" stroke-width="2" stroke-linecap="round" stroke-miterlimit="10" x1="11.2" y1="26.8" x2="5.308" y2="32.692"/>
	</svg>
	<svg id="search-thick" viewBox="0 0 38 38">
		<circle fill-rule="evenodd" clip-rule="evenodd" fill="none" stroke="#C33C2F" stroke-width="4" stroke-linecap="round" stroke-miterlimit="10" cx="20.402" cy="17.599" r="12.29"/>
		<line fill="none" stroke="#C33C2F" stroke-width="4" stroke-linecap="round" stroke-miterlimit="10" x1="11.2" y1="26.8" x2="5.308" y2="32.692"/>
	</svg>
	<svg id="bell-empty" viewBox="0 0 38 38">
		<path fill-rule="evenodd" clip-rule="evenodd" d="M18.51,34c-0.101-0.082-0.23-0.074-0.348-0.103
			c-0.972-0.241-1.719-0.79-2.249-1.638c-0.254-0.408-0.156-0.887,0.222-1.125c0.384-0.242,0.85-0.127,1.109,0.281
			c0.413,0.647,0.997,1.002,1.769,1c0.754-0.002,1.333-0.35,1.736-0.984c0.19-0.3,0.451-0.461,0.809-0.407
			c0.58,0.087,0.862,0.696,0.556,1.2c-0.583,0.959-1.435,1.531-2.537,1.73c-0.042,0.008-0.097-0.014-0.118,0.045
			c-0.066,0-0.133,0-0.198,0c-0.065-0.032-0.132-0.032-0.197,0c-0.04,0-0.079,0-0.118,0c-0.08-0.032-0.158-0.032-0.237,0
			C18.643,34,18.576,34,18.51,34z"/>
		<path fill-rule="evenodd" clip-rule="evenodd" d="M18.746,4.179c-0.092-0.015-0.193,0.041-0.275-0.038
			c0.092,0,0.185,0,0.277,0c0.012,0.009,0.017,0.018,0.012,0.026S18.75,4.179,18.746,4.179z"/>
		<path fill-rule="evenodd" clip-rule="evenodd" d="M19.537,4.141c-0.082,0.079-0.184,0.023-0.274,0.038
			c-0.015-0.008-0.019-0.016-0.015-0.025s0.008-0.013,0.013-0.013C19.354,4.141,19.445,4.141,19.537,4.141z"/>
		<path fill-rule="evenodd" clip-rule="evenodd" d="M5.477,26.021c0.07,0.088,0.031,0.188,0.033,0.283
			c-0.012,0.003-0.023,0-0.033-0.006C5.477,26.206,5.477,26.113,5.477,26.021z"/>
		<path fill-rule="evenodd" clip-rule="evenodd" d="M18.708,34c0.079-0.063,0.157-0.059,0.237,0
			C18.865,34,18.787,34,18.708,34z"/>
		<path fill-rule="evenodd" clip-rule="evenodd" d="M18.746,4.179c0-0.013,0.001-0.025,0.002-0.038
			c0.064,0,0.131,0,0.197,0C18.889,4.206,18.813,4.172,18.746,4.179z"/>
		<path fill-rule="evenodd" clip-rule="evenodd" d="M19.261,4.141c0,0.013,0.001,0.025,0.002,0.038
			c-0.067-0.006-0.144,0.027-0.199-0.038C19.129,4.141,19.195,4.141,19.261,4.141z"/>
		<path fill-rule="evenodd" clip-rule="evenodd" d="M19.063,34c0.065-0.057,0.132-0.061,0.197,0
			C19.195,34,19.129,34,19.063,34z"/>
		<path fill-rule="evenodd" clip-rule="evenodd" d="M32.229,25.535c-0.746-0.588-1.301-1.336-1.769-2.15
			c-1.179-2.049-1.718-4.293-1.997-6.615c-0.145-1.203-0.176-2.413-0.195-3.624c-0.011-0.735-0.107-1.457-0.301-2.156
			C26.96,6.974,23.328,4,19,4c-3.563,0-6.656,2.018-8.199,4.972c-0.218,0.404-0.406,0.826-0.567,1.264
			c-0.316,0.864-0.512,1.758-0.54,2.678c-0.023,0.781-0.04,1.563-0.08,2.344c-0.045,0.881-0.14,1.757-0.283,2.626
			c-0.294,1.79-0.781,3.518-1.639,5.129c-0.493,0.925-1.087,1.771-1.902,2.444c-0.167,0.138-0.288,0.302-0.314,0.524
			c0,0.014,0,0.026,0,0.039c0.05,0.09-0.005,0.192,0.033,0.283c0.102,0.418,0.386,0.627,0.855,0.627c8.411,0,16.823,0,25.234,0
			c0.046,0,0.093,0,0.139,0c0.341-0.008,0.631-0.214,0.739-0.525C32.588,26.088,32.502,25.752,32.229,25.535z M8.184,25.35
			c-0.019-0.031-0.007-0.053,0.009-0.074c1.146-1.553,1.856-3.303,2.338-5.156c0.405-1.559,0.621-3.146,0.717-4.75
			c0.044-0.73,0.034-1.461,0.072-2.19c0.15-2.931,1.521-5.117,4.072-6.551c1.232-0.693,2.579-0.958,3.989-0.901
			c3.252,0.13,6.15,2.437,7.027,5.588c0.178,0.637,0.278,1.284,0.285,1.946c0.012,1.198,0.052,2.395,0.189,3.586
			c0.299,2.574,0.906,5.056,2.208,7.327c0.228,0.398,0.485,0.777,0.773,1.176C22.609,25.35,15.396,25.35,8.184,25.35z"/>
	</svg>
	<svg id="bell-filled" viewBox="0 0 38 38">
		<path d="M18.51,34c-0.101-0.082-0.23-0.074-0.348-0.104c-0.972-0.24-1.719-0.789-2.249-1.638
			c-0.254-0.407-0.156-0.887,0.222-1.125c0.384-0.241,0.85-0.127,1.109,0.281c0.413,0.647,0.997,1.002,1.769,1
			c0.754-0.002,1.333-0.351,1.736-0.983c0.19-0.301,0.451-0.461,0.81-0.408c0.58,0.088,0.861,0.697,0.556,1.201
			c-0.583,0.959-1.435,1.53-2.537,1.729c-0.042,0.008-0.097-0.015-0.118,0.045c-0.066,0-0.133,0-0.198,0
			c-0.065-0.032-0.132-0.032-0.197,0c-0.04,0-0.079,0-0.118,0c-0.08-0.032-0.158-0.032-0.237,0C18.643,34,18.576,34,18.51,34z"/>
		<path d="M18.746,4.179c-0.092-0.015-0.193,0.041-0.275-0.038c0.092,0,0.185,0,0.277,0
			c0.012,0.009,0.017,0.018,0.012,0.026C18.755,4.175,18.75,4.179,18.746,4.179z"/>
		<path d="M19.537,4.141c-0.082,0.079-0.184,0.023-0.274,0.038c-0.015-0.008-0.019-0.016-0.015-0.025
			c0.004-0.009,0.008-0.013,0.013-0.013C19.354,4.141,19.445,4.141,19.537,4.141z"/>
		<path d="M5.477,26.021c0.07,0.088,0.031,0.188,0.033,0.283c-0.012,0.002-0.023,0-0.033-0.007
			C5.477,26.206,5.477,26.113,5.477,26.021z"/>
		<path d="M18.708,34c0.079-0.063,0.157-0.059,0.237,0C18.865,34,18.787,34,18.708,34z"/>
		<path d="M18.746,4.179c0-0.013,0.001-0.025,0.002-0.038c0.064,0,0.131,0,0.197,0
			C18.889,4.206,18.813,4.172,18.746,4.179z"/>
		<path d="M19.261,4.141c0,0.013,0.001,0.025,0.002,0.038c-0.067-0.006-0.144,0.027-0.199-0.038
			C19.129,4.141,19.195,4.141,19.261,4.141z"/>
		<path d="M19.063,34c0.065-0.057,0.132-0.061,0.197,0C19.195,34,19.129,34,19.063,34z"/>
		<path d="M32.229,25.535c-0.746-0.588-1.301-1.336-1.769-2.15c-1.179-2.049-1.718-4.293-1.997-6.615
			c-0.145-1.203-0.176-2.413-0.195-3.624c-0.011-0.735-0.106-1.457-0.301-2.156C26.96,6.974,23.328,4,19,4
			c-3.563,0-6.656,2.018-8.199,4.972c-0.218,0.404-0.406,0.826-0.567,1.264c-0.316,0.864-0.512,1.758-0.54,2.678
			c-0.023,0.781-0.04,1.563-0.08,2.344c-0.045,0.881-0.14,1.757-0.283,2.626c-0.294,1.79-0.781,3.519-1.639,5.13
			c-0.493,0.924-1.087,1.771-1.902,2.443c-0.167,0.139-0.288,0.302-0.314,0.523c0,0.015,0,0.026,0,0.039
			c0.05,0.09-0.005,0.192,0.033,0.283c0.102,0.418,0.386,0.627,0.855,0.627c8.411,0,16.823,0,25.233,0c0.047,0,0.094,0,0.139,0
			c0.342-0.008,0.632-0.214,0.74-0.525C32.588,26.088,32.502,25.752,32.229,25.535z"/>
	</svg>
</svg>