<?xml version="1.0" encoding="utf-8"?>
<svg
  xmlns="http://www.w3.org/2000/svg"
  rel="mask-icon"
  xmlnsXlink="http://www.w3.org/1999/xlink"
  width="38px" height="38px" viewBox="0 0 38 38"
  preserveAspectRatio="none" xml:space="preserve" style="display:none"
>
  <svg id="arrow-left" viewBox="0 0 24 24" fill="none" stroke="currentColor" stroke-width="2" stroke-linecap="round" stroke-linejoin="round">
    <polyline points="15 18 9 12 15 6"></polyline>
  </svg>
  <svg id="arrow-left-2" viewBox="0 0 24 24" fill="none" stroke="currentColor" stroke-width="inherit" stroke-linecap="round" stroke-linejoin="round">
    <line x1="19" y1="12" x2="5" y2="12"></line>
    <polyline points="12 19 5 12 12 5"></polyline>
  </svg>
  <svg id="arrow-left-circle" viewBox="0 0 24 24" fill="none" stroke="currentColor" stroke-width="2" stroke-linecap="round" stroke-linejoin="round">
    <circle cx="12" cy="12" r="10"></circle>
    <polyline points="12 8 8 12 12 16"></polyline>
    <line x1="16" y1="12" x2="8" y2="12"></line>
  </svg>
  <svg id="arrow-right" viewBox="0 0 24 24" fill="none" stroke="currentColor" stroke-width="2" stroke-linecap="round" stroke-linejoin="round">
    <polyline points="9 18 15 12 9 6"></polyline>
  </svg>
  <svg id="arrow-up" viewBox="0 0 24 24" fill="none" stroke="currentColor" stroke-width="2" stroke-linecap="round" stroke-linejoin="round">
    <polyline points="18 15 12 9 6 15"></polyline>
  </svg>
  <svg id="arrow-down" viewBox="0 0 24 24" fill="none" stroke="currentColor" stroke-width="2" stroke-linecap="round" stroke-linejoin="round">
    <polyline points="6 9 12 15 18 9"></polyline>
  </svg>
  <svg id="double-dot" viewBox="0 0 24 24" stroke="none" fill="currentColor">
    <circle cx="12" cy="12" r="12" className="outer-circle" />
    <circle cx="12" cy="12" r="6" className="inner-circle" />
  </svg>
  <svg id="login" viewBox="0 0 24 24" fill="none" stroke="currentColor" stroke-width="2" stroke-linecap="round" stroke-linejoin="round">
    <path d="M15 3h4a2 2 0 0 1 2 2v14a2 2 0 0 1-2 2h-4"></path>
    <polyline points="10 17 15 12 10 7"></polyline>
    <line x1="15" y1="12" x2="3" y2="12"></line>
  </svg>
  <svg id="help-thin" viewBox="0 0 24 24" fill="none" stroke="currentColor" stroke-width="2" stroke-linecap="round" stroke-linejoin="round">
    <circle cx="12" cy="12" r="10"/>
    <path d="M9.09 9a3 3 0 0 1 5.83 1c0 2-3 3-3 3"/>
    <line x1="12" y1="17" x2="12.01" y2="17"/>
  </svg>
  <svg id="help-thick" viewBox="0 0 24 24" fill="none" stroke="currentColor" stroke-width="4" stroke-linecap="round" stroke-linejoin="round">
    <circle cx="12" cy="12" r="10"/>
    <path d="M9.09 9a3 3 0 0 1 5.83 1c0 2-3 3-3 3"/>
    <line x1="12" y1="17" x2="12.01" y2="17"/>
  </svg>
  <svg id="help-circle" viewBox="0 0 24 24" fill="none" stroke="currentColor" stroke-width="inherit" stroke-linecap="round" stroke-linejoin="round">
    <circle cx="12" cy="12" r="10"></circle>
    <path d="M9.09 9a3 3 0 0 1 5.83 1c0 2-3 3-3 3"></path>
    <line x1="12" y1="17" x2="12.01" y2="17"></line>
  </svg>
  <svg id="ok" viewBox="0 0 24 24" fill="none" stroke="currentColor" stroke-linecap="round" stroke-linejoin="round">
    <polyline points="20 6 9 17 4 12"></polyline>
  </svg>

  <svg id="cancel" viewBox="0 0 24 24" stroke="none">
    <path d="M13.414,12l5.293-5.293c0.391-0.391,0.391-1.023,0-1.414s-1.023-0.391-1.414,0L12,10.586L6.707,5.293
    c-0.391-0.391-1.023-0.391-1.414,0s-0.391,1.023,0,1.414L10.586,12l-5.293,5.293c-0.391,0.391-0.391,1.023,0,1.414
    C5.488,18.902,5.744,19,6,19s0.512-0.098,0.707-0.293L12,13.414l5.293,5.293C17.488,18.902,17.744,19,18,19s0.512-0.098,0.707-0.293
    c0.391-0.391,0.391-1.023,0-1.414L13.414,12z"/>
  </svg>
  <svg id="cancel-custom" viewBox="0 0 24 24" fill="none" stroke="currentColor" stroke-width="inherit" stroke-linecap="round" stroke-linejoin="round">
    <line x1="18" y1="6" x2="6" y2="18"></line>
    <line x1="6" y1="6" x2="18" y2="18"></line>
  </svg>
  <svg id="cancel-thick" viewBox="0 0 24 24" fill="none" stroke="currentColor" stroke-width="3" stroke-linecap="round" stroke-linejoin="round">
    <line x1="18" y1="6" x2="6" y2="18"></line>
    <line x1="6" y1="6" x2="18" y2="18"></line>
  </svg>
  <svg id="circle-cancel" viewBox="0 0 24 24" fill="none" stroke="currentColor" stroke-width="2" stroke-linecap="round" stroke-linejoin="round">
    <circle cx="12" cy="12" r="10"></circle>
    <line x1="15" y1="9" x2="9" y2="15"></line>
    <line x1="9" y1="9" x2="15" y2="15"></line>
  </svg>
  <svg id="more" viewBox="0 0 24 24" fill="currentColor" stroke="currentColor" stroke-linecap="round" stroke-linejoin="round">
    <circle cx="12" cy="12" r="1"/>
    <circle cx="19" cy="12" r="1"/>
    <circle cx="5" cy="12" r="1"/>
  </svg>
  <svg id="search-flip-thick" viewBox="0 0 24 24" fill="none" stroke="currentColor" stroke-width="2" stroke-linecap="round" stroke-linejoin="round">
    <circle cx="11" cy="11" r="8"></circle>
    <line x1="21" y1="21" x2="16.65" y2="16.65"></line>
  </svg>
  <svg id="search-large-blue" viewBox="0 0 24 24" fill="none" stroke="currentColor" stroke-width="2" stroke-linecap="round" stroke-linejoin="round">
    <circle cx="11" cy="11" r="6.5" fill="#193266"></circle>
    <line x1="21" y1="21" x2="15.65" y2="15.65"></line>
  </svg>
  <svg id="search-flip" viewBox="0 0 24 24" fill="none" stroke="currentColor" stroke-width="1.1" stroke-linecap="round" stroke-linejoin="round">
    <circle cx="11" cy="11" r="8"></circle>
    <line x1="21" y1="21" x2="16.65" y2="16.65"></line>
  </svg>
  <svg id="search" viewBox="0 0 24 24" fill="none" stroke="currentColor" stroke-linecap="round" stroke-linejoin="round">
    <circle cx="13.1" cy="10.9" r="8.9"/>
    <line x1="6.8" y1="17.2" x2="2" y2="22"/>
  </svg>
  <svg id="play-thin" viewBox="0 0 24 24" fill="none" stroke="currentColor" stroke-width="1" stroke-linecap="round" stroke-linejoin="round">
    <polygon points="5 3 19 12 5 21 5 3"></polygon>
  </svg>
  <svg id="play-thick" viewBox="0 0 24 24" fill="none" stroke="currentColor" stroke-width="2" stroke-linecap="round" stroke-linejoin="round">
    <polygon points="5 3 19 12 5 21 5 3"></polygon>
  </svg>
  <svg id="play-filled" viewBox="0 0 24 24" stroke="none">
    <path d="M3.36,20.26V3.74A1.74,1.74,0,0,1,6,2.25l13.8,8.26a1.74,1.74,0,0,1,0,3L6,21.75A1.74,1.74,0,0,1,3.36,20.26Z"/>
  </svg>
  <svg id="pause-filled" viewBox="0 0 24 24" stroke="none">
    <path d="M9.5,21h-3C5.7,21,5,20.3,5,19.5v-15C5,3.7,5.7,3,6.5,3h3C10.3,3,11,3.7,11,4.5v15C11,20.3,10.3,21,9.5,21z"/>
    <path d="M17.5,21h-3c-0.8,0-1.5-0.7-1.5-1.5v-15C13,3.7,13.7,3,14.5,3h3C18.3,3,19,3.7,19,4.5v15C19,20.3,18.3,21,17.5,21z"/>
  </svg>
  <svg id="circle-empty" viewBox="0 0 24 24" fill="none" stroke="currentColor" stroke-width="2" stroke-linecap="round" stroke-linejoin="round">
    <circle cx="12" cy="12" r="10"></circle>
  </svg>
  <svg id="circle-filled" viewBox="0 0 24 24" stroke="none" stroke-width="2" stroke-linecap="round" stroke-linejoin="round">
    <circle cx="12" cy="12" r="10"></circle>
  </svg>
  <svg id="plus-line-custom" viewBox="0 0 24 24" fill="none" stroke="currentColor" stroke-width="inherit" stroke-linecap="round" stroke-linejoin="round">
    <line x1="12" y1="5" x2="12" y2="19"></line>
    <line x1="5" y1="12" x2="19" y2="12"></line>
  </svg>
  <svg id="plus-line" viewBox="0 0 24 24" fill="none" stroke="currentColor" stroke-width="2" stroke-linecap="round" stroke-linejoin="round">
    <line x1="12" y1="5" x2="12" y2="19"></line>
    <line x1="5" y1="12" x2="19" y2="12"></line>
  </svg>
  <svg id="plus" viewBox="0 0 24 24" stroke="none">
    <path d="M19,11h-6V5c0-0.552-0.447-1-1-1c-0.552,0-1,0.448-1,1v6H5c-0.552,0-1,0.448-1,1c0,0.553,0.448,1,1,1h6v6
	  c0,0.553,0.448,1,1,1c0.553,0,1-0.447,1-1v-6h6c0.553,0,1-0.447,1-1C20,11.448,19.553,11,19,11z"/>
  </svg>
  <svg id="plus-circle" viewBox="0 0 24 24" fill="none" stroke="currentColor" stroke-width="2" stroke-linecap="round" stroke-linejoin="round">
    <circle cx="12" cy="12" r="10"></circle>
    <line x1="12" y1="8" x2="12" y2="16"></line>
    <line x1="8" y1="12" x2="16" y2="12"></line>
  </svg>
  <svg id="user" viewBox="0 0 24 24" fill="none" stroke="currentColor" stroke-width="2" stroke-linecap="round" stroke-linejoin="round">
    <path d="M20,21v-2c0-2.2-1.8-4-4-4H8c-2.2,0-4,1.8-4,4v2"/>
    <circle cx="12" cy="7" r="4"/>
  </svg>
   <svg id="user-custom" viewBox="0 0 24 24" fill="none" stroke="currentColor" stroke-width="inherit" stroke-linecap="round" stroke-linejoin="round">
    <path d="M20,21v-2c0-2.2-1.8-4-4-4H8c-2.2,0-4,1.8-4,4v2"/>
    <circle cx="12" cy="7" r="4"/>
  </svg>
  <svg id="users" viewBox="0 0 24 24" fill="none" stroke="currentColor" stroke-width="2" stroke-linecap="round" stroke-linejoin="round">
    <path d="M16.5,20.2v-1.8c0-2-1.6-3.6-3.6-3.6H5.6c-2,0-3.6,1.6-3.6,3.6v1.8"/>
    <circle cx="9.3" cy="7.5" r="3.6"/>
    <path d="M22,20.2v-1.8c0-1.7-1.1-3.1-2.7-3.5"/>
    <path d="M15.6,3.9c1.9,0.5,3.1,2.5,2.6,4.4c-0.3,1.3-1.3,2.3-2.6,2.6"/>
  </svg>
  <svg id="users-custom" viewBox="0 0 24 24" fill="none" stroke="currentColor" stroke-width="inherit" stroke-linecap="round" stroke-linejoin="round">
    <path d="M16.5,20.2v-1.8c0-2-1.6-3.6-3.6-3.6H5.6c-2,0-3.6,1.6-3.6,3.6v1.8"/>
    <circle cx="9.3" cy="7.5" r="3.6"/>
    <path d="M22,20.2v-1.8c0-1.7-1.1-3.1-2.7-3.5"/>
    <path d="M15.6,3.9c1.9,0.5,3.1,2.5,2.6,4.4c-0.3,1.3-1.3,2.3-2.6,2.6"/>
  </svg>
  <svg id="upload" viewBox="0 0 24 24" fill="none" stroke="currentColor" stroke-width="2" stroke-linecap="round" stroke-linejoin="round" class="feather feather-upload">
    <path d="M21 15v4a2 2 0 0 1-2 2H5a2 2 0 0 1-2-2v-4"></path>
    <polyline points="17 8 12 3 7 8"></polyline>
    <line x1="12" y1="3" x2="12" y2="15"></line>
  </svg>
  <svg id="logout" viewBox="0 0 24 24" fill="none" stroke="currentColor" stroke-linecap="round" stroke-linejoin="round">
    <path d="M9.3,20H5.8c-1,0-1.8-0.8-1.8-1.8V5.8C4,4.8,4.8,4,5.8,4h3.6"/>
    <polyline points="15.6,16.4 20,12 15.6,7.6 	"/>
    <line x1="20" y1="12" x2="9.3" y2="12"/>
  </svg>
  <svg id="clock" viewBox="0 0 24 24" fill="none" stroke="currentColor" stroke-width="inherit" stroke-linecap="round" stroke-linejoin="round">
    <circle cx="12" cy="12" r="10"></circle>
    <polyline points="12 6 12 12 16 14"></polyline>
  </svg>
  <svg id="crosshair" viewBox="0 0 24 24" fill="none" stroke="currentColor" stroke-width="inherit" stroke-linecap="round" stroke-linejoin="round">
    <circle cx="12" cy="12" r="10"></circle>
    <line x1="22" y1="12" x2="18" y2="12"></line>
    <line x1="6" y1="12" x2="2" y2="12"></line>
    <line x1="12" y1="6" x2="12" y2="2"></line>
    <line x1="12" y1="22" x2="12" y2="18"></line>
  </svg>
  <svg id="email-feather" viewBox="0 0 24 24" fill="none" stroke="currentColor" stroke-width="2" stroke-linecap="round" stroke-linejoin="round">
    <path d="M4 4h16c1.1 0 2 .9 2 2v12c0 1.1-.9 2-2 2H4c-1.1 0-2-.9-2-2V6c0-1.1.9-2 2-2z"></path>
    <polyline points="22,6 12,13 2,6"></polyline>
  </svg>
  <svg id="email" viewBox="0 0 24 24">
    <path d="M0 0h24v24H0z" fill="none"/>
    <path d="M20 4H4c-1.1 0-1.99.9-1.99 2L2 18c0 1.1.9 2 2 2h16c1.1 0 2-.9 2-2V6c0-1.1-.9-2-2-2zm0 4l-8 5-8-5V6l8 5 8-5v2z"/>
  </svg>
  <svg id="gmail" viewBox="0 0 24 24">
    <path fill="#4285F4" d="M22,12.227c0-0.838-0.068-1.451-0.215-2.086h-9.581v3.787h5.625c-0.113,0.94-0.726,2.358-2.086,3.312
      l-0.019,0.126l3.027,2.347l0.211,0.021C20.889,17.952,22,15.334,22,12.227"/>
    <path fill="#34A853" d="M12.204,22.204c2.755,0,5.067-0.907,6.758-2.472l-3.221-2.494c-0.862,0.602-2.019,1.021-3.537,1.021
      c-2.699,0-4.989-1.78-5.804-4.239l-0.121,0.01L3.13,16.468l-0.041,0.114C4.766,19.914,8.214,22.204,12.204,22.204"/>
    <path fill="#FBBC05" d="M6.398,14.02c-0.213-0.636-0.34-1.315-0.34-2.02s0.127-1.383,0.33-2.018L6.383,9.848L3.194,7.369
      l-0.103,0.05C2.396,8.803,2,10.355,2,12s0.396,3.197,1.09,4.58L6.398,14.02"/>
    <path fill="#EB4335" d="M12.204,5.741c1.916,0,3.209,0.827,3.946,1.52l2.879-2.812c-1.769-1.645-4.07-2.653-6.825-2.653
      c-3.99,0-7.438,2.291-9.115,5.624l3.3,2.563C7.215,7.521,9.505,5.741,12.204,5.741"/>
  </svg>
   <svg id="list-custom" viewBox="0 0 24 24" fill="none" stroke="currentColor" stroke-width="inherit" stroke-linecap="round" stroke-linejoin="round">
    <line x1="8" y1="6" x2="21" y2="6"></line>
    <line x1="8" y1="12" x2="21" y2="12"></line>
    <line x1="8" y1="18" x2="21" y2="18"></line>
    <line x1="3" y1="6" x2="3.01" y2="6"></line>
    <line x1="3" y1="12" x2="3.01" y2="12"></line>
    <line x1="3" y1="18" x2="3.01" y2="18"></line>
  </svg>
  <svg id="list" viewBox="0 0 24 24" fill="none" stroke="currentColor" stroke-width="2" stroke-linecap="round" stroke-linejoin="round">
    <line x1="8" y1="6" x2="21" y2="6"></line>
    <line x1="8" y1="12" x2="21" y2="12"></line>
    <line x1="8" y1="18" x2="21" y2="18"></line>
    <line x1="3" y1="6" x2="3.01" y2="6"></line>
    <line x1="3" y1="12" x2="3.01" y2="12"></line>
    <line x1="3" y1="18" x2="3.01" y2="18"></line>
  </svg>
  <svg id="eye-off" viewBox="0 0 24 24" fill="none" stroke="currentColor" stroke-width="2" stroke-linecap="round" stroke-linejoin="round">
    <path d="M17.94 17.94A10.07 10.07 0 0 1 12 20c-7 0-11-8-11-8a18.45 18.45 0 0 1 5.06-5.94M9.9 4.24A9.12 9.12 0 0 1 12 4c7 0 11 8 11 8a18.5 18.5 0 0 1-2.16 3.19m-6.72-1.07a3 3 0 1 1-4.24-4.24"></path>
    <line x1="1" y1="1" x2="23" y2="23"></line>
  </svg>
  <svg id="eye-on" viewBox="0 0 24 24" fill="none" stroke="currentColor" stroke-width="2" stroke-linecap="round" stroke-linejoin="round">
    <path d="M1 12s4-8 11-8 11 8 11 8-4 8-11 8-11-8-11-8z"></path>
    <circle cx="12" cy="12" r="3"></circle>
  </svg>
  <svg id="trowel" viewBox="0 0 24 24" stroke="none">
    <path d="M1,20.2l0.1-0.4l7-8.6l0.5-0.3l0.4,0l0.3,0l0.3,0.1l0.3,0.2l1.6,1.6l1.3-0.8
	c0.1,0,0.1-0.1,0.1-0.2c0-0.1,0.1-0.1,0.1-0.2v-0.5l0-1.9L13.2,9l0.4-0.4l1.3-1l0-0.3V7L15,6.8l0.3-0.2L21,3.5l0.3-0.2l0.3,0l0.4,0
	l0.3,0.2l0.2,0.2l0.2,0.2l0.2,0.2L23,4.4l0,0.3v0.3l-0.1,0.2l-0.1,0.2l-0.2,0.2l-5.7,3.2L16.5,9L16.2,9l-0.3,0l-0.3-0.1l-0.3-0.3
	l-1,0.7l-0.2,0.2v2.8l0,0c0,0.1,0,0.1,0,0.2c0,0,0,0.1-0.1,0.1l-0.3,0.2L13.4,13L9,15.6l0.1,0.2l0.2,0.1h0.3l0.3-0.1l3.1-1.5
	l2.3,2.1l0.2,0.3l0,0.3l0,0.2l-0.2,0.2L15,17.7l-13.3,3H1.4l-0.2-0.1l-0.1-0.2L1,20.2"/>
  </svg>
  <svg id="trowel-home" viewBox="0 0 24 17" stroke="none">
    <path d="M2,16.5l0.1-0.4l6.4-7.8L8.9,8l0.4,0l0.3,0l0.3,0.1l0.3,0.1l1.4,1.5L12.7,9
	c0.1,0,0.1-0.1,0.1-0.1c0-0.1,0-0.1,0.1-0.2V8.3l0-1.7l0.1-0.3l0.3-0.4L14.6,5l0-0.2V4.5l0.2-0.2L15,4.1l5.2-2.8l0.3-0.1l0.3,0
	l0.3,0l0.2,0.1l0.1,0.2l0.2,0.2l0.2,0.2L22,2.1l0,0.2v0.3l-0.1,0.2L21.8,3l-0.2,0.2l-5.2,2.9l-0.3,0.2l-0.3,0.1l-0.3,0l-0.3-0.1
	L15,5.9l-0.9,0.7l-0.1,0.2v2.6l0,0c0,0.1,0,0.1,0,0.2c0,0,0,0.1-0.1,0.1l-0.3,0.2l-0.3,0.2l-4,2.3l0.1,0.2l0.2,0.1h0.3l0.2,0
	l2.8-1.3l2,1.9l0.2,0.3l0,0.3l0,0.2L15,14l-0.3,0.2L2.6,16.9H2.4l-0.2-0.1l-0.1-0.1L2,16.5"/>
  </svg>
  <svg id="logo" viewBox="0 0 38 38" stroke="none">
    <path d="M32.175,34.742h-9.238c-1.008,0-1.824-0.814-1.826-1.822c0-0.002,0-0.002,0-0.004V5.083
      c0-1.008,0.818-1.825,1.826-1.825h9.238C33.183,3.258,34,4.076,34,5.083v9.753l-3.74,3.883l2.333,2.367l1.352,1.395v-0.021
      l0.057,0.059v10.398c0.001,1.008-0.814,1.826-1.822,1.826C32.177,34.742,32.176,34.742,32.175,34.742z M17.574,34.742h-5.933
      c-0.756,0-1.369-0.613-1.369-1.369v-0.57h8.67v0.57C18.942,34.129,18.33,34.742,17.574,34.742z M7.536,34.742H4.685
      c-0.379,0-0.685-0.307-0.686-0.686V3.943c0-0.379,0.307-0.685,0.686-0.685h2.852c0.378,0,0.684,0.306,0.686,0.685v30.114
      C8.22,34.436,7.914,34.742,7.536,34.742z M18.942,32.119l-8.668-0.002v-1.824h8.668V32.119z M18.942,29.609h-8.668V8.277h8.668
      V29.609L18.942,29.609L18.942,29.609z M18.942,7.593h-8.668V5.769h8.668V7.593z M18.942,5.084h-8.668V4.628
      c0-0.756,0.613-1.369,1.369-1.369h5.932c0.756,0,1.367,0.613,1.369,1.369v0.456H18.942z"/>
  </svg>
  <svg id="roof" viewBox="0 0 38 14" stroke="none">
    <path d="M33.612,11.711L19.987,0.794c-0.577-0.461-1.397-0.461-1.977,0l-5.933,4.823V2.576
      c0-0.079-0.064-0.146-0.146-0.146H7.605c-0.08,0-0.144,0.065-0.144,0.146v6.646l-3.079,2.531C4.159,11.934,4.014,12.2,4,12.486
      c-0.017,0.286,0.093,0.565,0.295,0.771c0.188,0.189,0.446,0.295,0.714,0.295c0.229,0,0.455-0.08,0.634-0.223l13.259-10.67
      c0.025-0.022,0.061-0.032,0.095-0.029c0.032,0,0.064,0.01,0.094,0.029l13.257,10.625c0.182,0.145,0.402,0.225,0.634,0.225
      c0.564-0.004,1.021-0.465,1.02-1.029c0-0.012,0-0.021-0.001-0.037C33.983,12.156,33.842,11.889,33.612,11.711z"/>
  </svg>
  <svg id="zap-off" viewBox="0 0 24 24" fill="none" stroke="currentColor" stroke-width="2" stroke-linecap="round" stroke-linejoin="round">
    <polyline points="12.41 6.75 13 2 10.57 4.92"></polyline>
    <polyline points="18.57 12.91 21 10 15.66 10"></polyline>
    <polyline points="8 8 3 14 12 14 11 22 16 16"></polyline>
    <line x1="1" y1="1" x2="23" y2="23"></line>
  </svg>
  <svg id="zap" viewBox="0 0 24 24" fill="none" stroke="currentColor" stroke-width="2" stroke-linecap="round" stroke-linejoin="round">
    <polygon points="13 2 3 14 12 14 11 22 21 10 12 10 13 2"></polygon>
  </svg>
  <svg id="highlighter" viewBox="0 0 24 24" stroke="none">
    <path d="M1.4,20.8l3.9,1.3l1.4-1.4L4.1,18L1.4,20.8z M6.3,11.4c-0.4,0.4-0.6,0.9-0.4,1.5
      l0.5,1.7l-2,2l3.7,3.7l2-2l1.7,0.5c0.6,0.1,1.1,0,1.5-0.4l1.4-1.6L7.9,10L6.3,11.4z M22,5.2l-2.5-2.5c-0.8-0.8-2.1-0.8-2.9-0.1
      L8.8,9.3l6.6,6.6l6.6-7.8C22.8,7.2,22.7,5.9,22,5.2z"/>
  </svg>
  <svg id="award" viewBox="0 0 24 24" fill="none" stroke="currentColor" stroke-width="inherit" stroke-linecap="round" stroke-linejoin="round">
    <circle cx="12" cy="8" r="7"></circle>
    <polyline points="8.21 13.89 7 23 12 20 17 23 15.79 13.88"></polyline>
  </svg>
  <svg id="trash-outline" viewBox="0 0 24 24" fill="none" stroke="currentColor" stroke-width="2" stroke-linecap="round" stroke-linejoin="round">
    <polyline points="3 6 5 6 21 6"></polyline>
    <path d="M19 6v14a2 2 0 0 1-2 2H7a2 2 0 0 1-2-2V6m3 0V4a2 2 0 0 1 2-2h4a2 2 0 0 1 2 2v2"></path>
    <line x1="10" y1="11" x2="10" y2="17"></line>
    <line x1="14" y1="11" x2="14" y2="17"></line>
  </svg>
  <svg id="trash" viewBox="0 0 24 24" fill="none" stroke="currentColor" stroke-width="2" stroke-linecap="round" stroke-linejoin="round">
    <path d="M21 4H8l-7 8 7 8h13a2 2 0 0 0 2-2V6a2 2 0 0 0-2-2z"></path>
    <line x1="18" y1="9" x2="12" y2="15"></line>
    <line x1="12" y1="9" x2="18" y2="15"></line>
  </svg>
  <svg id="edit-outline" viewBox="0 0 24 24" fill="none" stroke="currentColor" stroke-width="2" stroke-linecap="round" stroke-linejoin="round">
    <path d="M12 20h9"></path>
    <path d="M16.5 3.5a2.121 2.121 0 0 1 3 3L7 19l-4 1 1-4L16.5 3.5z"></path>
  </svg>
  <svg id="edit-outline-custom" viewBox="0 0 24 24" fill="none" stroke="currentColor" stroke-width="inherit" stroke-linecap="round" stroke-linejoin="round">
    <path d="M12 20h9"></path>
    <path d="M16.5 3.5a2.121 2.121 0 0 1 3 3L7 19l-4 1 1-4L16.5 3.5z"></path>
  </svg>
  <svg id="glasses" viewBox="0 0 58 24" stroke="none">
    <path d="M32.823,12c0-6.405,5.236-11.6,11.692-11.6c6.458,0,11.691,5.194,11.691,11.6
		  c0,6.405-5.233,11.6-11.691,11.6C38.06,23.6,32.823,18.404,32.823,12z M36.208,12c0,4.54,3.718,8.217,8.308,8.217
		  c4.589,0,8.311-3.678,8.311-8.217c0-4.538-3.722-8.217-8.311-8.217C39.926,3.783,36.208,7.461,36.208,12z"/>
    <path d="M2.161,12c0-6.407,5.248-11.6,11.723-11.6S25.605,5.592,25.605,12
		  c0,6.405-5.247,11.598-11.722,11.598S2.161,18.404,2.161,12z M5.543,12c0,4.536,3.735,8.213,8.341,8.213s8.34-3.678,8.34-8.213
		  c0-4.538-3.734-8.217-8.34-8.217S5.543,7.461,5.543,12z"/>
    <path d="M22.521,11.042c0-3.321,2.998-6.015,6.693-6.015c3.698,0,6.696,2.693,6.696,6.015h-3.012
		  c0-1.661-1.647-3.009-3.686-3.009c-2.034,0-3.685,1.348-3.685,3.009H22.521z"/>
    <path d="M57.75,6.822v2.426l-0.607,0.607h-4.081V6.213h4.081L57.75,6.822z"/>
    <path d="M0.25,9.248V6.822l0.604-0.607h4.021v3.641H0.854L0.25,9.248z"/>
  </svg>
  <svg id="glasses-home" viewBox="0 0 24 10" stroke="none">
    <path d="M13.5,5c0-2.5,2-4.4,4.5-4.4s4.5,2,4.5,4.4c0,2.5-2,4.4-4.5,4.4S13.5,7.4,13.5,5z M14.8,5c0,1.7,1.4,3.1,3.2,3.1
		s3.2-1.4,3.2-3.1S19.8,1.9,18,1.9C16.2,1.8,14.8,3.2,14.8,5z"/>
    <path d="M1.7,5c0-2.5,2-4.4,4.5-4.4s4.5,2,4.5,4.4c0,2.5-2,4.4-4.5,4.4S1.7,7.4,1.7,5z M3,5c0,1.7,1.4,3.1,3.2,3.1S9.4,6.7,9.4,5
		S8,1.9,6.2,1.9S3,3.2,3,5z"/>
    <path d="M9.5,4.6c0-1.3,1.1-2.3,2.6-2.3c1.4,0,2.6,1,2.6,2.3h-1.2c0-0.6-0.6-1.2-1.4-1.2c-0.8,0-1.4,0.5-1.4,1.2H9.5z"/>
    <path d="M23,3v0.9l-0.2,0.2h-1.6V2.7h1.6L23,3z"/>
    <path d="M1,3.9V3l0.2-0.2h1.5v1.4H1.2L1,3.9z"/>
  </svg>
  <svg id="glasses-home-blue" viewBox="0 0 24 10" stroke="none">
    <circle cx="6" cy="5" r="3.5" fill="#193266" />
    <circle cx="18" cy="5" r="3.5" fill="#193266" />
    <path d="M13.5,5c0-2.5,2-4.4,4.5-4.4s4.5,2,4.5,4.4c0,2.5-2,4.4-4.5,4.4S13.5,7.4,13.5,5z M14.8,5c0,1.7,1.4,3.1,3.2,3.1
		s3.2-1.4,3.2-3.1S19.8,1.9,18,1.9C16.2,1.8,14.8,3.2,14.8,5z"/>
    <path d="M1.7,5c0-2.5,2-4.4,4.5-4.4s4.5,2,4.5,4.4c0,2.5-2,4.4-4.5,4.4S1.7,7.4,1.7,5z M3,5c0,1.7,1.4,3.1,3.2,3.1S9.4,6.7,9.4,5
		S8,1.9,6.2,1.9S3,3.2,3,5z"/>
    <path d="M9.5,4.6c0-1.3,1.1-2.3,2.6-2.3c1.4,0,2.6,1,2.6,2.3h-1.2c0-0.6-0.6-1.2-1.4-1.2c-0.8,0-1.4,0.5-1.4,1.2H9.5z"/>
    <path d="M23,3v0.9l-0.2,0.2h-1.6V2.7h1.6L23,3z"/>
    <path d="M1,3.9V3l0.2-0.2h1.5v1.4H1.2L1,3.9z"/>
  </svg>
  <svg id="box" viewBox="0 0 24 24" fill="none" stroke="currentColor" stroke-width="2" stroke-linecap="round" stroke-linejoin="round">
    <path d="M21 16V8a2 2 0 0 0-1-1.73l-7-4a2 2 0 0 0-2 0l-7 4A2 2 0 0 0 3 8v8a2 2 0 0 0 1 1.73l7 4a2 2 0 0 0 2 0l7-4A2 2 0 0 0 21 16z"></path>
    <polyline points="3.27 6.96 12 12.01 20.73 6.96"></polyline>
    <line x1="12" y1="22.08" x2="12" y2="12"></line>
  </svg>
  <svg id="roller" viewBox="0 0 24 24" stroke="none">
    <path d="M16.3,6.5H5.8c-1.2,0-2.3-1-2.3-2.3S4.6,2,5.8,2h10.5c1.2,0,2.3,1,2.3,2.3S17.6,6.5,16.3,6.5z"/>
    <path d="M18.8,4.9c-0.3,0-0.5-0.2-0.5-0.5V4.1c0-0.3,0.2-0.5,0.5-0.5s0.5,0.2,0.5,0.5v0.3C19.3,4.7,19.1,4.9,18.8,4.9z"/>
    <path d="M11.1,14.1c-0.1,0-0.3-0.1-0.3-0.3v-1.3c0-0.9,0.6-1.3,0.9-1.4l7.6-3.2c0.5-0.2,0.6-0.8,0.6-0.8l0-2.2
			c0-0.3-0.1-0.4-0.4-0.4l-0.4,0c-0.1,0-0.3-0.1-0.3-0.3S19,4,19.1,4h0.5c0.3,0,0.8,0.2,0.9,0.9l0,2.3c0,0.1-0.1,0.9-0.8,1.2
			l-7.7,3.2c-0.1,0-0.6,0.2-0.6,0.9v1.3C11.3,14,11.2,14.1,11.1,14.1z"/>
    <path d="M12.1,22h-2c-0.3,0-0.5-0.2-0.5-0.5V14c0-0.3,0.2-0.5,0.5-0.5h2c0.3,0,0.5,0.2,0.5,0.5v7.5C12.6,21.8,12.4,22,12.1,22z"/>
  </svg>
  <svg id="roller-home" viewBox="0 0 24 22" stroke="none">
    <path d="M16.3,5.5H5.8c-1.2,0-2.3-1-2.3-2.3S4.6,1,5.8,1h10.5c1.2,0,2.3,1,2.3,2.3S17.6,5.5,16.3,5.5z"/>
    <path d="M18.8,3.9c-0.3,0-0.5-0.2-0.5-0.5V3.1c0-0.3,0.2-0.5,0.5-0.5s0.5,0.2,0.5,0.5v0.3C19.3,3.7,19.1,3.9,18.8,3.9z"/>
    <path d="M11.1,13.1c-0.1,0-0.3-0.1-0.3-0.3v-1.3c0-0.9,0.6-1.3,0.9-1.4l7.6-3.2c0.5-0.2,0.6-0.8,0.6-0.8V3.9c0-0.3-0.1-0.4-0.4-0.4
		h-0.4c-0.1,0-0.3-0.1-0.3-0.3S19,3,19.1,3h0.5c0.3,0,0.8,0.2,0.9,0.9v2.3c0,0.1-0.1,0.9-0.8,1.2L12,10.6c-0.1,0-0.6,0.2-0.6,0.9
		v1.3C11.3,13,11.2,13.1,11.1,13.1z"/>
    <path d="M12.1,21h-2c-0.3,0-0.5-0.2-0.5-0.5V13c0-0.3,0.2-0.5,0.5-0.5h2c0.3,0,0.5,0.2,0.5,0.5v7.5C12.6,20.8,12.4,21,12.1,21z"/>
  </svg>
  <svg id="maximize" viewBox="0 0 24 24" fill="none" stroke="currentColor" stroke-width="2" stroke-linecap="round" stroke-linejoin="round">
    <polyline points="15 3 21 3 21 9"></polyline>
    <polyline points="9 21 3 21 3 15"></polyline>
    <line x1="21" y1="3" x2="14" y2="10"></line>
    <line x1="3" y1="21" x2="10" y2="14"></line>
  </svg>
  <svg id="minimize" viewBox="0 0 24 24" fill="none" stroke="currentColor" stroke-width="2" stroke-linecap="round" stroke-linejoin="round">
    <polyline points="4 14 10 14 10 20"></polyline>
    <polyline points="20 10 14 10 14 4"></polyline>
    <line x1="14" y1="10" x2="21" y2="3"></line>
    <line x1="3" y1="21" x2="10" y2="14"></line>
  </svg>
  <svg id="pen-tool" viewBox="0 0 24 24" fill="none" stroke="currentColor" stroke-width="2" stroke-linecap="round" stroke-linejoin="round">
    <path d="M12 19l7-7 3 3-7 7-3-3z"></path>
    <path d="M18 13l-1.5-7.5L2 2l3.5 14.5L13 18l5-5z"></path>
    <path d="M2 2l7.586 7.586"></path>
    <circle cx="11" cy="11" r="2"></circle>
  </svg>
  <svg id="save-icon" viewBox="0 0 24 24" fill="none" stroke="currentColor" stroke-width="2" stroke-linecap="round" stroke-linejoin="round">
    <path d="M19 21H5a2 2 0 0 1-2-2V5a2 2 0 0 1 2-2h11l5 5v11a2 2 0 0 1-2 2z"></path>
    <polyline points="17 21 17 13 7 13 7 21"></polyline>
    <polyline points="7 3 7 8 15 8"></polyline>
  </svg>
  <svg id="check-icon" viewBox="0 0 24 24" fill="none" stroke="currentColor" stroke-width="3" stroke-linecap="round" stroke-linejoin="round">
    <polyline points="20 6 9 17 4 12"></polyline>
  </svg>
  <svg id="check-icon-thin" viewBox="0 0 24 24" fill="none" stroke="currentColor" stroke-width="1.8" stroke-linecap="round" stroke-linejoin="round">
    <polyline points="20 6 9 17 4 12"></polyline>
  </svg>
  <svg id="message-square" viewBox="0 0 24 24" fill="none" stroke-width="inherit" stroke="currentColor" stroke-linecap="round" stroke-linejoin="round">
    <path d="M21 15a2 2 0 0 1-2 2H7l-4 4V5a2 2 0 0 1 2-2h14a2 2 0 0 1 2 2z"></path>
  </svg>
  <svg id="message-square-thick" viewBox="0 0 24 24" fill="none" stroke="currentColor" stroke-width="2" stroke-linecap="round" stroke-linejoin="round">
    <path d="M21 15a2 2 0 0 1-2 2H7l-4 4V5a2 2 0 0 1 2-2h14a2 2 0 0 1 2 2z"></path>
  </svg>
  <svg id="file-plus" viewBox="0 0 24 24" fill="none" stroke="currentColor" stroke-width="2" stroke-linecap="round" stroke-linejoin="round">
    <path d="M14 2H6a2 2 0 0 0-2 2v16a2 2 0 0 0 2 2h12a2 2 0 0 0 2-2V8z"></path>
    <polyline points="14 2 14 8 20 8"></polyline>
    <line x1="12" y1="18" x2="12" y2="12"></line>
    <line x1="9" y1="15" x2="15" y2="15"></line>
  </svg>
  <svg id="file-text" viewBox="0 0 24 24" fill="none" stroke="currentColor" stroke-width="inherit" stroke-linecap="round" stroke-linejoin="round">
    <path d="M14 2H6a2 2 0 0 0-2 2v16a2 2 0 0 0 2 2h12a2 2 0 0 0 2-2V8z"></path>
    <polyline points="14 2 14 8 20 8"></polyline>
    <line x1="16" y1="13" x2="8" y2="13"></line>
    <line x1="16" y1="17" x2="8" y2="17"></line>
    <polyline points="10 9 9 9 8 9"></polyline>
  </svg>
  <svg id="notif-circle" viewBox="0 0 24 24" stroke="none" fill="currentColor">
    <circle cx="12" cy="12" r="12" class="outer-circle" />
    <circle cx="12" cy="12" r="6" class="inner-circle"/>
  </svg>
  <svg id="bar-chart-2" viewBox="0 0 24 24" fill="none" stroke="currentColor" stroke-width="2" stroke-linecap="round" stroke-linejoin="round">
    <line x1="18" y1="20" x2="18" y2="10"></line>
    <line x1="12" y1="20" x2="12" y2="4"></line>
    <line x1="6" y1="20" x2="6" y2="14"></line>
  </svg>
  <svg id="archive" viewBox="0 0 24 24" fill="none" stroke="currentColor" stroke-width="2" stroke-linecap="round" stroke-linejoin="round">
    <polyline points="21 8 21 21 3 21 3 8"></polyline>
    <rect x="1" y="3" width="22" height="5"></rect>
    <line x1="10" y1="12" x2="14" y2="12"></line>
  </svg>
  <svg id="share" viewBox="0 0 24 24" fill="none" stroke="currentColor" stroke-width="1.5" stroke-linecap="round" stroke-linejoin="round">
    <circle cx="18" cy="5" r="3"></circle>
    <circle cx="6" cy="12" r="3"></circle>
    <circle cx="18" cy="19" r="3"></circle>
    <line x1="8.59" y1="13.51" x2="15.42" y2="17.49"></line>
    <line x1="15.41" y1="6.51" x2="8.59" y2="10.49"></line>
  </svg>
  <svg id="feather-share" viewBox="0 0 24 24" fill="none" stroke="currentColor" stroke-width="inherit" stroke-linecap="round" stroke-linejoin="round">
    <circle cx="18" cy="5" r="3"></circle>
    <circle cx="6" cy="12" r="3"></circle>
    <circle cx="18" cy="19" r="3"></circle>
    <line x1="8.59" y1="13.51" x2="15.42" y2="17.49"></line>
    <line x1="15.41" y1="6.51" x2="8.59" y2="10.49"></line>
  </svg>
  <svg id="user-plus" viewBox="0 0 24 24" fill="none" stroke="currentColor" stroke-width="inherit" stroke-linecap="round" stroke-linejoin="round">
    <path d="M16 21v-2a4 4 0 0 0-4-4H5a4 4 0 0 0-4 4v2"></path>
    <circle cx="8.5" cy="7" r="4"></circle>
    <line x1="20" y1="8" x2="20" y2="14"></line>
    <line x1="23" y1="11" x2="17" y2="11"></line>
  </svg>
  <svg id="twitter" viewBox="0 0 24 24" fill="none" stroke="currentColor" stroke-width="2" stroke-linecap="round" stroke-linejoin="round">
    <path d="M23 3a10.9 10.9 0 0 1-3.14 1.53 4.48 4.48 0 0 0-7.86 3v1A10.66 10.66 0 0 1 3 4s-4 9 5 13a11.64 11.64 0 0 1-7 2c9 5 20 0 20-11.5a4.5 4.5 0 0 0-.08-.83A7.72 7.72 0 0 0 23 3z"></path>
  </svg>
  <svg id="facebook" viewBox="0 0 24 24" fill="none" stroke="currentColor" stroke-width="2" stroke-linecap="round" stroke-linejoin="round">
    <path d="M18 2h-3a5 5 0 0 0-5 5v3H7v4h3v8h4v-8h3l1-4h-4V7a1 1 0 0 1 1-1h3z"></path>
  </svg>
  <svg id="link" viewBox="0 0 24 24" fill="none" stroke="currentColor" stroke-width="2" stroke-linecap="round" stroke-linejoin="round">
    <path d="M10 13a5 5 0 0 0 7.54.54l3-3a5 5 0 0 0-7.07-7.07l-1.72 1.71"></path>
    <path d="M14 11a5 5 0 0 0-7.54-.54l-3 3a5 5 0 0 0 7.07 7.07l1.71-1.71"></path>
  </svg>
  <svg id="instagram" viewBox="0 0 24 24" fill="none" stroke="currentColor" stroke-width="2" stroke-linecap="round" stroke-linejoin="round">
    <rect x="2" y="2" width="20" height="20" rx="5" ry="5"></rect>
    <path d="M16 11.37A4 4 0 1 1 12.63 8 4 4 0 0 1 16 11.37z"></path>
    <line x1="17.5" y1="6.5" x2="17.51" y2="6.5"></line>
  </svg>
  <svg id="whatsapp" viewBox="0 0 56.693 56.693">
    <path d="M46.3802,10.7138c-4.6512-4.6565-10.8365-7.222-17.4266-7.2247c-13.5785,0-24.63,11.0506-24.6353,24.6333   c-0.0019,4.342,1.1325,8.58,3.2884,12.3159l-3.495,12.7657l13.0595-3.4257c3.5982,1.9626,7.6495,2.9971,11.7726,2.9985h0.01   c0.0008,0-0.0006,0,0.0002,0c13.5771,0,24.6293-11.0517,24.635-24.6347C53.5914,21.5595,51.0313,15.3701,46.3802,10.7138z    M28.9537,48.6163h-0.0083c-3.674-0.0014-7.2777-0.9886-10.4215-2.8541l-0.7476-0.4437l-7.7497,2.0328l2.0686-7.5558   l-0.4869-0.7748c-2.0496-3.26-3.1321-7.028-3.1305-10.8969c0.0044-11.2894,9.19-20.474,20.4842-20.474   c5.469,0.0017,10.6101,2.1344,14.476,6.0047c3.8658,3.8703,5.9936,9.0148,5.9914,14.4859   C49.4248,39.4307,40.2395,48.6163,28.9537,48.6163z"/>
    <path class="st0" d="M40.1851,33.281c-0.6155-0.3081-3.6419-1.797-4.2061-2.0026c-0.5642-0.2054-0.9746-0.3081-1.3849,0.3081   c-0.4103,0.6161-1.59,2.0027-1.9491,2.4136c-0.359,0.4106-0.7182,0.4623-1.3336,0.1539c-0.6155-0.3081-2.5989-0.958-4.95-3.0551   c-1.83-1.6323-3.0653-3.6479-3.4245-4.2643c-0.359-0.6161-0.0382-0.9492,0.27-1.2562c0.2769-0.2759,0.6156-0.7189,0.9234-1.0784   c0.3077-0.3593,0.4103-0.6163,0.6155-1.0268c0.2052-0.4109,0.1027-0.7704-0.0513-1.0784   c-0.1539-0.3081-1.3849-3.3379-1.8978-4.5706c-0.4998-1.2001-1.0072-1.0375-1.3851-1.0566   c-0.3585-0.0179-0.7694-0.0216-1.1797-0.0216s-1.0773,0.1541-1.6414,0.7702c-0.5642,0.6163-2.1545,2.1056-2.1545,5.1351   c0,3.0299,2.2057,5.9569,2.5135,6.3676c0.3077,0.411,4.3405,6.6282,10.5153,9.2945c1.4686,0.6343,2.6152,1.013,3.5091,1.2966   c1.4746,0.4686,2.8165,0.4024,3.8771,0.2439c1.1827-0.1767,3.6419-1.489,4.1548-2.9267c0.513-1.438,0.513-2.6706,0.359-2.9272   C41.211,33.7433,40.8006,33.5892,40.1851,33.281z"/>
  </svg>
  <svg id="trending-up" viewBox="0 0 24 24" fill="none" stroke="currentColor" stroke-width="1.5" stroke-linecap="round" stroke-linejoin="round">
    <polyline points="23 6 13.5 15.5 8.5 10.5 1 18"></polyline>
    <polyline points="17 6 23 6 23 12"></polyline>
  </svg>
  <svg id="reminder" viewBox="0 0 24 24" fill="none" stroke="currentColor" stroke-width="inherit" stroke-linecap="round" stroke-linejoin="round">
    <circle cx="12" cy="12" r="2"></circle>
    <path d="M16.24 7.76a6 6 0 0 1 0 8.49m-8.48-.01a6 6 0 0 1 0-8.49m11.31-2.82a10 10 0 0 1 0 14.14m-14.14 0a10 10 0 0 1 0-14.14"></path>
  </svg>
  <svg id="key" viewBox="0 0 24 24" fill="none" stroke="currentColor" stroke-width="2" stroke-linecap="round" stroke-linejoin="round">
    <path d="M21 2l-2 2m-7.61 7.61a5.5 5.5 0 1 1-7.778 7.778 5.5 5.5 0 0 1 7.777-7.777zm0 0L15.5 7.5m0 0l3 3L22 7l-3-3m-3.5 3.5L19 4"></path>
  </svg>
  <svg id="globe" viewBox="0 0 24 24" fill="none" stroke="currentColor" stroke-width="2" stroke-linecap="round" stroke-linejoin="round">
    <circle cx="12" cy="12" r="10"></circle>
    <line x1="2" y1="12" x2="22" y2="12"></line>
    <path d="M12 2a15.3 15.3 0 0 1 4 10 15.3 15.3 0 0 1-4 10 15.3 15.3 0 0 1-4-10 15.3 15.3 0 0 1 4-10z"></path>
  </svg>
  <svg id="manage-class" viewBox="0 0 250 160" fill="currentColor" stroke="none">
    <path fill="#E5E8EE" d="M159.737,123.579c11.23,17.258,30.847,21.291,48.259,9.926
      c16.873-11.019,21.256-31.209,10.453-48.157c-11.128-17.445-30.536-21.512-48.171-10.094
      c-17.104,11.075-21.547,31.426-10.545,48.327 M154.229,3.8c-1.394,25.161,0.322,49.404-2.795,73.55
      c0.252-0.149,0.471-0.348,0.646-0.582c9.662-21.365,46.329-35.771,72.565-11.213c22.008,20.603,22.854,52.094,1.41,73.014
      c-15.646,15.271-34.572,22.022-56.063,14.611c-19.909-6.865-30.652-22.231-32.828-42.791c-1.348-12.703-0.798-25.634-0.705-38.462
      c0.126-17.913,0.666-35.825,0.907-53.739c0.032-2.508,0.688-4.11,2.957-5.438C144.766,10.15,149,7.195,154.229,3.8"/>
    <ellipse fill="#E5E8EE" transform="matrix(0.5447 0.8386 -0.8386 0.5447 175.7931 -111.6244)" cx="190.702" cy="106.092" rx="39.709" ry="42.357" />
    <path fill="#1F294E" d="M206.423,87.009c-6.94,0.007-11.686,4.812-11.669,11.82
      c-0.205,6.312,4.743,11.592,11.053,11.799c0.217,0.006,0.432,0.008,0.647,0.002c6.976,0.062,11.689-4.682,11.699-11.764
      c0.256-6.291-4.637-11.597-10.928-11.853C206.958,87.003,206.688,87.001,206.423,87.009 M241.302,107.456
      c-6.858-5.017-14.026-8.981-20.28-14.299c-0.004,0.098,0.013,0.194,0.045,0.288c4.265,6.656,1.604,19.668-10.156,22.578
      c-9.866,2.438-18.928-3.106-20.9-13.013c-1.442-7.229,0.123-13.819,6.166-18.534c5.597-4.369,11.913-4.582,18.125-1.422
      c3.792,2.079,7.466,4.37,11,6.862c5.046,3.326,10.013,6.769,15.03,10.127c0.677,0.351,1.071,1.076,1,1.836
      c-0.082,1.731-0.023,3.474-0.023,5.576"/>
    <path fill="#1F294E" d="M171.399,87.454c6.838,0.006,11.511,4.739,11.494,11.646
      c0.201,6.215-4.672,11.418-10.889,11.621c-0.211,0.008-0.423,0.008-0.634,0.004c-6.87,0.06-11.516-4.611-11.524-11.589
      c-0.256-6.192,4.561-11.422,10.752-11.676C170.867,87.448,171.134,87.445,171.399,87.454 M137.044,107.593
      c6.755-4.942,13.821-8.85,19.978-14.084c0.004,0.097-0.012,0.193-0.045,0.283c-4.199,6.558-1.58,19.375,10.006,22.24
      c9.72,2.399,18.643-3.062,20.588-12.816c1.425-7.12-0.118-13.612-6.07-18.258c-5.516-4.304-11.733-4.515-17.856-1.401
      c-3.735,2.049-7.354,4.307-10.84,6.762c-4.966,3.277-9.854,6.668-14.8,9.976c-0.665,0.349-1.053,1.063-0.979,1.81
      c0.08,1.707,0.023,3.42,0.023,5.492"/>
    <path fill="#E5E8EE" d="M90.264,123.581c-11.231,17.257-30.846,21.291-48.258,9.925
      c-16.874-11.017-21.256-31.208-10.453-48.158c11.126-17.44,30.535-21.51,48.168-10.092c17.105,11.075,21.547,31.428,10.547,48.327
      M95.772,3.801c1.394,25.161-0.322,49.404,2.794,73.551c-0.251-0.148-0.47-0.348-0.645-0.582
      c-9.66-21.363-46.329-35.771-72.568-11.213c-22.009,20.603-22.852,52.092-1.41,73.014c15.644,15.271,34.574,22.022,56.065,14.611
      c19.91-6.865,30.653-22.231,32.829-42.791c1.345-12.705,0.797-25.634,0.705-38.463c-0.126-17.914-0.666-35.826-0.908-53.74
      c-0.033-2.508-0.689-4.108-2.956-5.438c-4.443-2.598-8.681-5.555-13.909-8.95"/>
    <ellipse fill="#E5E8EE" transform="matrix(0.5447 -0.8386 0.8386 0.5447 -61.9637 98.0193)" cx="59.292" cy="106.077" rx="39.71" ry="42.357" />
    <path fill="#1F294E" d="M43.521,87.063c6.942,0.01,11.685,4.813,11.67,11.824
      c0.205,6.311-4.743,11.592-11.053,11.799c-0.216,0.006-0.432,0.008-0.647,0.002c-6.976,0.061-11.69-4.683-11.7-11.766
      c-0.258-6.291,4.634-11.6,10.925-11.855C42.983,87.057,43.253,87.055,43.521,87.063 M8.641,107.51
      c6.858-5.017,14.027-8.982,20.282-14.3c0.004,0.099-0.012,0.196-0.046,0.289c-4.267,6.653-1.605,19.669,10.157,22.576
      c9.87,2.44,18.93-3.104,20.907-13.015c1.443-7.225-0.123-13.815-6.166-18.531c-5.599-4.368-11.916-4.582-18.128-1.422
      c-3.793,2.08-7.465,4.371-11,6.863C19.604,93.297,14.64,96.739,9.619,100.1c-0.675,0.352-1.068,1.078-0.994,1.834
      c0.082,1.732,0.024,3.475,0.024,5.578"/>
    <path fill="#1F294E" d="M78.545,87.508c-6.838,0.006-11.51,4.739-11.494,11.645
      c-0.202,6.217,4.672,11.418,10.887,11.621c0.212,0.009,0.423,0.009,0.635,0.004c6.87,0.06,11.515-4.61,11.524-11.588
      c0.256-6.193-4.559-11.422-10.752-11.676C79.079,87.501,78.813,87.499,78.545,87.508 M112.901,107.645
      c-6.755-4.939-13.817-8.85-19.979-14.084c-0.004,0.098,0.012,0.193,0.045,0.285c4.2,6.555,1.581,19.373-10.005,22.238
      c-9.719,2.4-18.642-3.061-20.589-12.816c-1.421-7.119,0.122-13.611,6.074-18.256c5.514-4.304,11.736-4.516,17.855-1.402
      c3.737,2.051,7.355,4.309,10.839,6.763c4.967,3.274,9.857,6.668,14.801,9.978c0.667,0.344,1.058,1.06,0.985,1.808
      c-0.08,1.706-0.023,3.42-0.023,5.491"/>
  </svg>

  <svg id="send" viewBox="0 0 24 24" fill="none" stroke="currentColor" stroke-width="2" stroke-linecap="round" stroke-linejoin="round">
    <line x1="22" y1="2" x2="11" y2="13"></line>
    <polygon points="22 2 15 22 11 13 2 9 22 2"></polygon>
  </svg>
   <svg id="send-custom" viewBox="0 0 24 24" fill="none" stroke="currentColor" stroke-width="inherit" stroke-linecap="round" stroke-linejoin="round">
    <line x1="22" y1="2" x2="11" y2="13"></line>
    <polygon points="22 2 15 22 11 13 2 9 22 2"></polygon>
  </svg>
  <svg id="award" viewBox="0 0 24 24" fill="none" stroke="currentColor" stroke-width="1.5" stroke-linecap="round" stroke-linejoin="round">
    <circle cx="12" cy="8" r="7"></circle>
    <polyline points="8.21 13.89 7 23 12 20 17 23 15.79 13.88"></polyline>
  </svg>
  <svg id="feather-award" viewBox="0 0 24 24" fill="none" stroke="currentColor" stroke-width="inherit" stroke-linecap="round" stroke-linejoin="round">
    <circle cx="12" cy="8" r="7"></circle>
    <polyline points="8.21 13.89 7 23 12 20 17 23 15.79 13.88"></polyline>
  </svg>
  <svg id="activity" viewBox="0 0 24 24" fill="none" stroke="currentColor" stroke-width="1.5" stroke-linecap="round" stroke-linejoin="round">
    <polyline points="22 12 18 12 15 21 9 3 6 12 2 12"></polyline>
  </svg>
  <svg id="feather-search" width="24" height="24" viewBox="0 0 24 24" fill="none" stroke="currentColor" stroke-width="1.5" stroke-linecap="round" stroke-linejoin="round">
    <circle cx="11" cy="11" r="8"></circle>
    <line x1="21" y1="21" x2="16.65" y2="16.65"></line>
  </svg>
  <svg id="settings" width="24" height="24" viewBox="0 0 24 24" fill="none" stroke="currentColor" stroke-width="1.5" stroke-linecap="round" stroke-linejoin="round">
    <circle cx="12" cy="12" r="3"></circle>
    <path d="M19.4 15a1.65 1.65 0 0 0 .33 1.82l.06.06a2 2 0 0 1 0 2.83 2 2 0 0 1-2.83 0l-.06-.06a1.65 1.65 0 0 0-1.82-.33 1.65 1.65 0 0 0-1 1.51V21a2 2 0 0 1-2 2 2 2 0 0 1-2-2v-.09A1.65 1.65 0 0 0 9 19.4a1.65 1.65 0 0 0-1.82.33l-.06.06a2 2 0 0 1-2.83 0 2 2 0 0 1 0-2.83l.06-.06a1.65 1.65 0 0 0 .33-1.82 1.65 1.65 0 0 0-1.51-1H3a2 2 0 0 1-2-2 2 2 0 0 1 2-2h.09A1.65 1.65 0 0 0 4.6 9a1.65 1.65 0 0 0-.33-1.82l-.06-.06a2 2 0 0 1 0-2.83 2 2 0 0 1 2.83 0l.06.06a1.65 1.65 0 0 0 1.82.33H9a1.65 1.65 0 0 0 1-1.51V3a2 2 0 0 1 2-2 2 2 0 0 1 2 2v.09a1.65 1.65 0 0 0 1 1.51 1.65 1.65 0 0 0 1.82-.33l.06-.06a2 2 0 0 1 2.83 0 2 2 0 0 1 0 2.83l-.06.06a1.65 1.65 0 0 0-.33 1.82V9a1.65 1.65 0 0 0 1.51 1H21a2 2 0 0 1 2 2 2 2 0 0 1-2 2h-.09a1.65 1.65 0 0 0-1.51 1z"></path>
  </svg>
  <svg id="graph-tracing" height="24" width="24" viewBox="0 0 24 24" fill="none" stroke="currentColor" stroke-width="1" stroke-linecap="round" stroke-linejoin="round">
    <circle r="2.6861653" cy="13.717236" cx="15.783906" stroke="none" />
    <path d="M 20.655637,11.728432 22.649712,8.2733517" />
    <path d="m 19.925134,9.0038543 2.724578,-0.7305026 0.730502,2.7245773" />
    <path d="m 16.265704,18.681974 -1.994075,3.45508" />
    <path d="m 16.996207,21.406551 -2.724578,0.730503 -0.730502,-2.724578"/>
    <path d="m 0.64468017,2.2426048 c 0,0 5.11983113,16.6377722 10.02342583,16.6377722 4.903595,0 9.591625,-16.6377722 9.591625,-16.6377722" />
  </svg>
  <svg id="graph-poi" width="24" height="24" viewBox="0 0 24 24" fill="none" stroke="currentColor" stroke-width="1" stroke-linecap="round" stroke-linejoin="round">
    <line y1="18.346716" x2="23.739717" x1="0.32480454" y2="6.6392584" />
    <circle cx="17.235577" cy="9.8190613" r="2.3125842" stroke="none" />
    <circle cx="5.9617281" cy="15.311449" r="2.3125842" stroke="none" />
    <path d="m 1.6001625,4.4712083 c 0,0 4.4077853,14.3238567 8.6294075,14.3238567 4.221622,0 8.25766,-14.3238567 8.25766,-14.3238567" />
  </svg>
  <svg id="alert-triangle" viewBox="0 0 24 24" fill="none" stroke="currentColor" stroke-width="inherit" stroke-linecap="round" stroke-linejoin="round">
    <path d="M10.29 3.86L1.82 18a2 2 0 0 0 1.71 3h16.94a2 2 0 0 0 1.71-3L13.71 3.86a2 2 0 0 0-3.42 0z"></path>
    <line x1="12" y1="9" x2="12" y2="13"></line>
    <line x1="12" y1="17" x2="12.01" y2="17"></line>
  </svg>
  <svg id="brick-icon" viewBox="0 0 220.998 232.001" fill="currentColor">
    <path d="M24205,232h-62.951a15.993,15.993,0,0,1-16-16V16a15.993,15.993,0,0,1,16-16H24205a16,16,0,0,1,16,16V85.314l-27.551,28.617,17.252,17.517,9.879,10.192v-.161l.42.426V216a16,16,0,0,1-16,16Zm-106.922,0h-39.861a12,12,0,0,1-12-12v-2.292h63.863V220a12,12,0,0,1-12,12Zm-72.986,0H24006a6,6,0,0,1-5.994-6V6A6,6,0,0,1,24006,0h19.1a6.007,6.007,0,0,1,6,6V226A6.007,6.007,0,0,1,24025.1,232Zm84.988-19.332h-63.863V199.216h63.863v13.452Zm0-18.493h-63.863V36.986h63.863V194.174h0v0Zm0-162.236h-63.863V18.493h63.863V31.939Zm0-18.487-63.863-.006V12a12,12,0,0,1,12-12h39.861a12,12,0,0,1,12,12v1.452Z" transform="translate(-24000.006 0)"/>
  </svg>
  <svg id="book-open" viewBox="0 0 24 24" fill="none" stroke="currentColor" stroke-width="inherit" stroke-linecap="round" stroke-linejoin="round">
    <path d="M2 3h6a4 4 0 0 1 4 4v14a3 3 0 0 0-3-3H2z"></path>
    <path d="M22 3h-6a4 4 0 0 0-4 4v14a3 3 0 0 1 3-3h7z"></path>
  </svg>
  <svg id="repeat" viewBox="0 0 24 24" fill="none" stroke="currentColor" stroke-width="inherit" stroke-linecap="round" stroke-linejoin="round">
    <polyline points="17 1 21 5 17 9"></polyline>
    <path d="M3 11V9a4 4 0 0 1 4-4h14"></path>
    <polyline points="7 23 3 19 7 15"></polyline>
    <path d="M21 13v2a4 4 0 0 1-4 4H3"></path>
  </svg>
  <svg id="corner-up-left" viewBox="0 0 24 24" fill="none" stroke="currentColor" stroke-width="inherit" stroke-linecap="round" stroke-linejoin="round">
    <polyline points="9 14 4 9 9 4"></polyline>
    <path d="M20 20v-7a4 4 0 0 0-4-4H4"></path>
  </svg>
  <svg id="custom-bookmark" viewBox="0 0 32 987">
    <path d="M39.5,991.5,23.642,963.719,7.5,991.5V114.167C7.5,53.6,9.547,4.5,12.071,4.5H34.929c2.525,0,4.571,49.1,4.571,109.667Z" transform="translate(-7.5 -4.5)" fill="#c43c30"/>
  </svg>
  <svg id="life-buoy" viewBox="0 0 24 24" fill="none" stroke="currentColor" stroke-width="inherit" stroke-linecap="round" stroke-linejoin="round">
    <circle cx="12" cy="12" r="10"></circle>
    <circle cx="12" cy="12" r="4"></circle>
    <line x1="4.93" y1="4.93" x2="9.17" y2="9.17"></line>
    <line x1="14.83" y1="14.83" x2="19.07" y2="19.07"></line>
    <line x1="14.83" y1="9.17" x2="19.07" y2="4.93"></line>
    <line x1="14.83" y1="9.17" x2="18.36" y2="5.64"></line>
    <line x1="4.93" y1="19.07" x2="9.17" y2="14.83"></line>
  </svg>
  <svg id="student-back-to-work" viewBox="0 0 184 108" fill="currentColor">
    <g transform="translate(-876 -427)">
      <rect width="56" height="32" rx="8" transform="translate(940 427)" />
      <rect width="56" height="32" rx="8" transform="translate(907 465)"/>
      <rect width="56" height="32" rx="8" transform="translate(971 465)"/>
      <rect width="56" height="32" rx="8" transform="translate(876 503)"/>
      <rect width="56" height="32" rx="8" transform="translate(940 503)"/>
      <rect width="56" height="32" rx="8" transform="translate(1004 503)"/>
    </g>
  </svg>
  <svg id="library-book" viewBox="0 0 163.991 148.79" stroke="currentColor">
    <g transform="translate(-878.008 -684)">
      <path d="M3,4.5H48.6a30.4,30.4,0,0,1,30.4,30.4V141.29a22.8,22.8,0,0,0-22.8-22.8H3Z" transform="translate(881.008 685.5)" fill="none" stroke-linecap="round" stroke-linejoin="round" stroke-width="12"/>
      <path d="M93.995,4.5H48.4A30.4,30.4,0,0,0,18,34.9V141.29a22.8,22.8,0,0,1,22.8-22.8h53.2Z" transform="translate(942.004 685.5)" fill="none" stroke-linecap="round" stroke-linejoin="round" stroke-width="12"/>
      <path d="M27,41.335V15" transform="translate(986.602 724.134)" fill="none" stroke-linecap="round" stroke-linejoin="round" stroke-width="6"/>
      <path d="M18,48.135V6" transform="translate(979.801 717.333)" fill="none" stroke-linecap="round" stroke-linejoin="round" stroke-width="6"/>
      <path d="M9,36.8V21" transform="translate(973 728.668)" fill="none" stroke-linecap="round" stroke-linejoin="round" stroke-width="6"/>
    </g>
  </svg>
  <svg id="lock" viewBox="0 0 24 24" fill="none" stroke="currentColor" stroke-width="inherit" stroke-linecap="round" stroke-linejoin="round">
    <rect x="3" y="11" width="18" height="11" rx="2" ry="2"></rect>
    <path d="M7 11V7a5 5 0 0 1 10 0v4"></path>
  </svg>
  <svg id="undo" viewBox="0 0 24 24" fill="none" stroke="currentColor" stroke-width="2" stroke-linecap="round" stroke-linejoin="round">
    <polyline points="1 4 1 10 7 10"></polyline>
    <path d="M3.51 15a9 9 0 1 0 2.13-9.36L1 10"></path>
  </svg>
  <svg id="redo" viewBox="0 0 24 24" fill="none" stroke="currentColor" stroke-width="2" stroke-linecap="round" stroke-linejoin="round">
    <polyline points="23 4 23 10 17 10"></polyline>
    <path d="M20.49 15a9 9 0 1 1-2.12-9.36L23 10"></path>
  </svg>
  <svg id="plus-square" viewBox="0 0 24 24" fill="none" stroke="currentColor" stroke-width="inherit" stroke-linecap="round" stroke-linejoin="round">
    <rect x="3" y="3" width="18" height="18" rx="2" ry="2"></rect>
    <line x1="12" y1="8" x2="12" y2="16"></line>
    <line x1="8" y1="12" x2="16" y2="12"></line>
  </svg>
  <svg id="minus-square" viewBox="0 0 24 24" fill="none" stroke="currentColor" stroke-width="inherit" stroke-linecap="round" stroke-linejoin="round">
    <rect x="3" y="3" width="18" height="18" rx="2" ry="2"></rect>
    <line x1="8" y1="12" x2="16" y2="12"></line>
  </svg>
  <svg id="maximize-2" viewBox="0 0 24 24" fill="none" stroke="currentColor" stroke-width="2" stroke-linecap="round" stroke-linejoin="round">
    <path d="M8 3H5a2 2 0 0 0-2 2v3m18 0V5a2 2 0 0 0-2-2h-3m0 18h3a2 2 0 0 0 2-2v-3M3 16v3a2 2 0 0 0 2 2h3"></path>
  </svg>
  <svg id="minimize-2" viewBox="0 0 24 24" fill="none" stroke="currentColor" stroke-width="2" stroke-linecap="round" stroke-linejoin="round">
    <path d="M8 3v3a2 2 0 0 1-2 2H3m18 0h-3a2 2 0 0 1-2-2V3m0 18v-3a2 2 0 0 1 2-2h3M3 16h3a2 2 0 0 1 2 2v3"></path>
  </svg>
  <svg id="move" viewBox="0 0 24 24" fill="none" stroke="currentColor" stroke-width="inherit" stroke-linecap="round" stroke-linejoin="round">
    <polyline points="5 9 2 12 5 15"></polyline>
    <polyline points="9 5 12 2 15 5"></polyline>
    <polyline points="15 19 12 22 9 19"></polyline>
    <polyline points="19 9 22 12 19 15"></polyline>
    <line x1="2" y1="12" x2="22" y2="12"></line>
    <line x1="12" y1="2" x2="12" y2="22"></line>
  </svg>
  <svg id="latex" viewBox="0 0 192.756 192.756" fill="currentColor" stroke="currentColor">
    <g fill-rule="evenodd" clip-rule="evenodd">
      <path d="M50.618 101.811l1.231.268-4.314 13.678H8.504v-1.371h1.903c2.132 0 3.654-.697 4.568-2.08.521-.799.774-2.641.774-5.508V74.263c0-3.146-.343-5.113-1.041-5.9-.964-1.091-2.398-1.637-4.301-1.637H8.504v-1.383h22.827v1.383c-2.677-.025-4.555.216-5.634.736-1.078.52-1.814 1.18-2.208 1.979-.393.786-.596 2.689-.596 5.685v31.67c0 2.057.203 3.465.596 4.238.292.521.749.9 1.371 1.154.621.242 2.55.369 5.798.369h3.68c3.87 0 6.585-.279 8.146-.852 1.561-.57 2.982-1.586 4.276-3.031 1.282-1.445 2.576-3.742 3.858-6.863z"/>
      <path d="M56.631 92.346H41.439l-2.657 6.193c-.662 1.521-.987 2.658-.987 3.418 0 .594.286 1.117.849 1.57.573.455 1.797.752 3.694.889v1.068H29.98v-1.068c1.64-.295 2.697-.67 3.181-1.135.988-.92 2.075-2.805 3.27-5.641L50.24 65.349h1.008l13.661 32.637c1.097 2.627 2.094 4.326 2.993 5.107.899.779 2.153 1.225 3.753 1.322v1.068H56.167v-1.068c1.561-.078 2.618-.346 3.171-.789.553-.436.83-.979.83-1.621 0-.848-.396-2.182-1.166-4.02l-2.371-5.639zm-.81-2.144l-6.658-15.854-6.826 15.854h13.484z"/>
      <path d="M104.479 65.008l.562 11.921h-1.432c-.27-2.098-.641-3.594-1.127-4.502-.768-1.445-1.803-2.507-3.082-3.198-1.291-.69-2.98-1.036-5.077-1.036H87.16v38.833c0 3.121.345 5.064 1.011 5.846.946 1.049 2.417 1.572 4.387 1.572h1.766v1.381H72.771v-1.381h1.804c2.148 0 3.671-.652 4.566-1.957.55-.793.832-2.621.832-5.461V68.193h-6.114c-2.366 0-4.055.179-5.052.524-1.304.474-2.417 1.395-3.338 2.737-.921 1.355-1.471 3.172-1.649 5.475H62.4l.601-11.921h41.478z"/>
      <path d="M110.646 81.675v19.258h10.709c2.785 0 4.637-.418 5.568-1.252 1.252-1.104 1.939-3.041 2.086-5.826h1.324v16.965h-1.324c-.332-2.367-.674-3.889-1.006-4.564-.43-.832-1.141-1.496-2.121-1.975-.982-.477-2.49-.723-4.527-.723h-10.709v16.068c0 2.158.1 3.473.283 3.938.195.467.527.834 1.006 1.117.479.27 1.398.404 2.734.404h8.268c2.748 0 4.76-.184 6-.576 1.25-.381 2.439-1.129 3.594-2.258 1.484-1.484 3.004-3.729 4.562-6.723h1.436l-4.195 12.219h-37.56v-1.324h1.73a6.837 6.837 0 0 0 3.262-.834c.773-.381 1.289-.957 1.57-1.719.27-.771.404-2.342.404-4.709v-31.66c0-3.091-.305-4.992-.932-5.716-.859-.957-2.293-1.436-4.305-1.436h-1.73v-1.337h37.56l.539 10.672h-1.41c-.504-2.563-1.055-4.318-1.668-5.274-.613-.957-1.51-1.693-2.711-2.196-.957-.355-2.65-.539-5.066-.539h-13.371z"/>
      <path d="M161.217 87.709l10.832 16.14c2.996 4.469 5.219 7.289 6.68 8.471 1.447 1.18 3.289 1.828 5.523 1.955v1.371h-21.65v-1.371c1.434-.025 2.502-.178 3.199-.457a3.051 3.051 0 0 0 1.283-1.016c.33-.457.494-.928.494-1.398a4.8 4.8 0 0 0-.33-1.713c-.178-.42-.863-1.512-2.043-3.275l-8.561-12.941-10.564 13.537c-1.117 1.447-1.791 2.4-2.006 2.883-.229.482-.344.99-.344 1.51 0 .801.344 1.449 1.004 1.969.672.521 1.955.826 3.834.902v1.371h-17.893v-1.371c1.271-.127 2.35-.395 3.277-.787a18.931 18.931 0 0 0 4.381-2.604c1.396-1.092 2.984-2.77 4.762-5.029l11.912-15.022-9.932-14.553c-2.705-3.937-5.002-6.527-6.883-7.746-1.891-1.232-4.062-1.879-6.514-1.956v-1.384h23.328v1.384c-1.982.077-3.34.394-4.076.965-.725.571-1.092 1.207-1.092 1.892 0 .927.596 2.26 1.777 4.025l7.746 11.569 8.965-11.353c1.041-1.333 1.676-2.248 1.918-2.743.229-.508.355-1.016.355-1.537s-.152-.978-.457-1.372a2.9 2.9 0 0 0-1.41-1.092c-.572-.216-1.752-.33-3.529-.356v-1.384h17.891v1.384c-1.408.077-2.564.292-3.465.661-1.334.571-2.566 1.346-3.684 2.311s-2.691 2.756-4.725 5.359l-10.003 12.801z"/>
    </g>
  </svg>
  <svg id="image" viewBox="0 0 24 24" fill="none" stroke="currentColor" stroke-width="inherit" stroke-linecap="round" stroke-linejoin="round">
    <rect x="3" y="3" width="18" height="18" rx="2" ry="2"></rect>
    <circle cx="8.5" cy="8.5" r="1.5"></circle>
    <polyline points="21 15 16 10 5 21"></polyline>
  </svg>
  <svg id="copy" viewBox="0 0 24 24" fill="none" stroke="currentColor" stroke-width="inherit" stroke-linecap="round" stroke-linejoin="round">
    <rect x="9" y="9" width="13" height="13" rx="2" ry="2"></rect>
    <path d="M5 15H4a2 2 0 0 1-2-2V4a2 2 0 0 1 2-2h9a2 2 0 0 1 2 2v1"></path>
  </svg>
  <svg id="aperture" viewBox="0 0 24 24" fill="none" stroke="currentColor" stroke-width="2" stroke-linecap="round" stroke-linejoin="round">
    <circle cx="12" cy="12" r="10"></circle>
    <line x1="14.31" y1="8" x2="20.05" y2="17.94"></line>
    <line x1="9.69" y1="8" x2="21.17" y2="8"></line>
    <line x1="7.38" y1="12" x2="13.12" y2="2.06"></line>
    <line x1="9.69" y1="16" x2="3.95" y2="6.06"></line>
    <line x1="14.31" y1="16" x2="2.83" y2="16"></line>
    <line x1="16.62" y1="12" x2="10.88" y2="21.94"></line>
  </svg>
  <svg id="circle-filled" viewBox="0 0 24 24" fill="currentColor">
    <circle cx="12" cy="12" r="10"></circle>
  </svg>
  <svg id="volume-1" viewBox="0 0 24 24" fill="none" stroke="currentColor" stroke-width="inherit" stroke-linecap="round" stroke-linejoin="round">
    <polygon points="11 5 6 9 2 9 2 15 6 15 11 19 11 5"></polygon>
    <path d="M15.54 8.46a5 5 0 0 1 0 7.07"></path>
  </svg>
  <svg id="volume-2" viewBox="0 0 24 24" fill="none" stroke="currentColor" stroke-width="inherit" stroke-linecap="round" stroke-linejoin="round">
    <polygon points="11 5 6 9 2 9 2 15 6 15 11 19 11 5"></polygon>
    <path d="M19.07 4.93a10 10 0 0 1 0 14.14M15.54 8.46a5 5 0 0 1 0 7.07"></path>
  </svg>
  <svg id="volume-x" viewBox="0 0 24 24" fill="none" stroke="currentColor" stroke-width="inherit" stroke-linecap="round" stroke-linejoin="round">
    <polygon points="11 5 6 9 2 9 2 15 6 15 11 19 11 5"></polygon>
    <line x1="23" y1="9" x2="17" y2="15"></line><line x1="17" y1="9" x2="23" y2="15"></line>
  </svg>
  <svg id="sound-icon" viewBox="0 0 97.567 64">
    <g transform="translate(-269 -593)">
      <g transform="translate(269 1083)">
        <path d="M0-284.735A3.265,3.265,0,0,1,3.265-288h0a3.265,3.265,0,0,1,3.265,3.265v4.049a3.265,3.265,0,0,1-3.265,3.265h0A3.265,3.265,0,0,1,0-280.686Z" transform="translate(0 -175.616)"/>
        <path d="M87-324.735A3.265,3.265,0,0,1,90.265-328h0a3.265,3.265,0,0,1,3.265,3.265v15.02a3.265,3.265,0,0,1-3.265,3.265h0A3.265,3.265,0,0,1,87-309.714Z" transform="translate(-75.637 -140.841)"/>
        <path d="M175-408.735A3.265,3.265,0,0,1,178.265-412h0a3.265,3.265,0,0,1,3.265,3.265v36.31a3.265,3.265,0,0,1-3.265,3.265h0A3.265,3.265,0,0,1,175-372.424Z" transform="translate(-152.143 -67.812)"/>
        <path d="M264-486.735A3.265,3.265,0,0,1,267.265-490h0a3.265,3.265,0,0,1,3.265,3.265v57.469A3.265,3.265,0,0,1,267.265-426h0A3.265,3.265,0,0,1,264-429.265Z" transform="translate(-229.518)"/>
        <path d="M353-365.735A3.265,3.265,0,0,1,356.265-369h0a3.265,3.265,0,0,1,3.265,3.265v25.208a3.265,3.265,0,0,1-3.265,3.265h0A3.265,3.265,0,0,1,353-340.527Z" transform="translate(-306.894 -105.196)"/>
        <path d="M441-323.735A3.265,3.265,0,0,1,444.265-327h0a3.265,3.265,0,0,1,3.265,3.265v14.89a3.265,3.265,0,0,1-3.265,3.265h0A3.265,3.265,0,0,1,441-308.845Z" transform="translate(-383.4 -141.71)"/>
        <path d="M526-285.8a3.2,3.2,0,0,1,3.2-3.2h0a3.2,3.2,0,0,1,3.2,3.2v5.747a3.2,3.2,0,0,1-3.2,3.2h0a3.2,3.2,0,0,1-3.2-3.2Z" transform="translate(-457.298 -174.747)"/>
        <path d="M612-324.735A3.265,3.265,0,0,1,615.265-328h0a3.265,3.265,0,0,1,3.265,3.265v15.02a3.265,3.265,0,0,1-3.265,3.265h0A3.265,3.265,0,0,1,612-309.714Z" transform="translate(-532.065 -140.841)"/>
        <path d="M698-285.8a3.2,3.2,0,0,1,3.2-3.2h0a3.2,3.2,0,0,1,3.2,3.2v4.18a3.2,3.2,0,0,1-3.2,3.2h0a3.2,3.2,0,0,1-3.2-3.2Z" transform="translate(-606.833 -174.747)"/>
      </g>
    </g>
  </svg>
  <svg id="radio" viewBox="0 0 24 24"  stroke="currentColor" stroke-width="inherit" stroke-linecap="round" stroke-linejoin="round">
    <circle cx="12" cy="12" r="10" fill="none"></circle>
    <circle cx="12" cy="12" r="6" fill="inherit"></circle>
  </svg>
  <svg id="corner-up-left" viewBox="0 0 24 24" fill="none" stroke="currentColor" stroke-width="inherit" stroke-linecap="round" stroke-linejoin="round">
    <polyline points="9 14 4 9 9 4"></polyline>
    <path d="M20 20v-7a4 4 0 0 0-4-4H4"></path>
  </svg>
  <svg id="arrow-right-circle" viewBox="0 0 24 24" fill="none" stroke="currentColor" stroke-width="2" stroke-linecap="round" stroke-linejoin="round">
    <circle cx="12" cy="12" r="10"></circle>
    <polyline points="12 16 16 12 12 8"></polyline>
    <line x1="8" y1="12" x2="16" y2="12"></line>
  </svg>
  <svg id="star" viewBox="0 0 24 24" fill="none" stroke="currentColor" stroke-width="2" stroke-linecap="round" stroke-linejoin="round">
    <polygon points="12 2 15.09 8.26 22 9.27 17 14.14 18.18 21.02 12 17.77 5.82 21.02 7 14.14 2 9.27 8.91 8.26 12 2"></polygon>
  </svg>
</svg>
