<?xml version="1.0" encoding="utf-8"?>
<svg xmlns="http://www.w3.org/2000/svg"
  xmlnsXlink="http://www.w3.org/1999/xlink" width="38px" height="38px" viewBox="0 0 760 38" preserveAspectRatio="none" xml:space="preserve" style="display:none">
  <svg id="arrow-up" viewBox="0 0 24 24" fill="none" stroke="currentColor" stroke-width="2" stroke-linecap="round" stroke-linejoin="round" class="feather feather-chevron-up">
    <polyline points="18 15 12 9 6 15"></polyline>
  </svg>
  <svg id="arrow-down" viewBox="0 0 24 24" fill="none" stroke="currentColor" stroke-width="2" stroke-linecap="round" stroke-linejoin="round">
    <polyline points="6 9 12 15 18 9"></polyline>
  </svg>
  <svg id="cancel" viewBox="0 0 24 24" fill="none" stroke="currentColor" stroke-width="2" stroke-linecap="round" stroke-linejoin="round" class="feather feather-x">
    <line x1="18" y1="6" x2="6" y2="18"></line>
    <line x1="6" y1="6" x2="18" y2="18"></line>
  </svg>
  <svg id="more-thin" viewBox="0 0 24 24" stroke-width="1" stroke-linecap="round" stroke-linejoin="round">
    <circle cx="12" cy="12" r="1"/>
    <circle cx="19" cy="12" r="1"/>
    <circle cx="5" cy="12" r="1"/>
  </svg>
  <svg id="more-thick" viewBox="0 0 24 24" stroke-width="2" stroke-linecap="round" stroke-linejoin="round">
    <circle cx="12" cy="12" r="1"/>
    <circle cx="19" cy="12" r="1"/>
    <circle cx="5" cy="12" r="1"/>
  </svg>
  <svg id="search-thin" viewBox="0 0 24 24" fill="none" stroke="currentColor" stroke-width="1" stroke-linecap="round" stroke-linejoin="round">
    <circle class="st0" cx="13.1" cy="10.9" r="8.9"/>
    <line class="st0" x1="6.8" y1="17.2" x2="2" y2="22"/>
  </svg>
  <svg id="search-thick" viewBox="0 0 24 24" fill="none" stroke="currentColor" stroke-width="2" stroke-linecap="round" stroke-linejoin="round">
    <circle class="st0" cx="13.1" cy="10.9" r="8.9"/>
    <line class="st0" x1="6.8" y1="17.2" x2="2" y2="22"/>
  </svg>
  <svg id="logo" viewBox="0 0 38 38">
    <path d="M32.175,34.742h-9.238c-1.008,0-1.824-0.814-1.826-1.822c0-0.002,0-0.002,0-0.004V5.083
      c0-1.008,0.818-1.825,1.826-1.825h9.238C33.183,3.258,34,4.076,34,5.083v9.753l-3.74,3.883l2.333,2.367l1.352,1.395v-0.021
      l0.057,0.059v10.398c0.001,1.008-0.814,1.826-1.822,1.826C32.177,34.742,32.176,34.742,32.175,34.742z M17.574,34.742h-5.933
      c-0.756,0-1.369-0.613-1.369-1.369v-0.57h8.67v0.57C18.942,34.129,18.33,34.742,17.574,34.742z M7.536,34.742H4.685
      c-0.379,0-0.685-0.307-0.686-0.686V3.943c0-0.379,0.307-0.685,0.686-0.685h2.852c0.378,0,0.684,0.306,0.686,0.685v30.114
      C8.22,34.436,7.914,34.742,7.536,34.742z M18.942,32.119l-8.668-0.002v-1.824h8.668V32.119z M18.942,29.609h-8.668V8.277h8.668
      V29.609L18.942,29.609L18.942,29.609z M18.942,7.593h-8.668V5.769h8.668V7.593z M18.942,5.084h-8.668V4.628
      c0-0.756,0.613-1.369,1.369-1.369h5.932c0.756,0,1.367,0.613,1.369,1.369v0.456H18.942z"/>
  </svg>
  <svg id="logo-home" viewBox="0 0 38 38">
    <path d="M30.005,37.535c-2.644,0-5.29,0-7.932,0c-1.005-0.519-1.254-1.36-1.248-2.452c0.037-6.798,0.037-13.598,0-20.396
      c-0.006-1.104,0.118-2.064,1.066-2.756c2.704,0,5.41,0,8.113,0c0.484,0.356,0.935,0.749,1.263,1.262c0,2.764,0,5.53,0,8.295
      c-1.101,0.78-1.819,1.926-2.748,2.869c-0.154,0.157-0.124,0.338,0.032,0.468c0.907,0.749,1.643,1.706,2.716,2.253
      c0,3.065,0,6.131,0,9.196C30.95,36.798,30.497,37.187,30.005,37.535z"/>
    <path fill="none" d="M21.892,11.931c-0.948,0.691-1.072,1.652-1.066,2.756c0.037,6.798,0.037,13.598,0,20.396
      c-0.006,1.092,0.243,1.934,1.248,2.452c-1.264,0-2.525,0-3.789,0c0.064-0.096,0.116-0.201,0.194-0.284
      c0.254-0.264,0.559-0.553,0.41-0.93c-0.155-0.392-0.581-0.216-0.886-0.218c-1.741-0.017-3.481-0.014-5.221-0.002
      c-0.25,0.002-0.58-0.112-0.71,0.223c-0.109,0.281,0.061,0.521,0.226,0.74c0.124,0.163,0.265,0.313,0.398,0.471
      c-0.961,0-1.923,0-2.885,0c0.248-0.362,0.291-0.766,0.29-1.196c-0.007-7.736-0.007-15.473,0-23.211
      c0-0.432-0.056-0.832-0.291-1.196c0.962,0,1.923,0,2.885,0c-0.069,0.091-0.131,0.188-0.208,0.273
      c-0.242,0.265-0.568,0.546-0.395,0.921c0.168,0.365,0.589,0.188,0.896,0.191c1.671,0.017,3.342,0.016,5.014,0
      c0.305-0.003,0.738,0.177,0.887-0.207c0.167-0.431-0.215-0.697-0.506-0.953c-0.089-0.079-0.185-0.15-0.276-0.226
      C19.367,11.931,20.629,11.931,21.892,11.931z M18.944,24.667c0-2.584-0.011-5.167,0.008-7.749c0.004-0.54-0.089-0.83-0.729-0.818
      c-1.833,0.036-3.665,0.03-5.497,0.002c-0.569-0.009-0.709,0.217-0.708,0.745c0.013,5.228,0.015,10.452-0.002,15.681
      c-0.002,0.587,0.188,0.797,0.776,0.789c1.742-0.024,3.485-0.046,5.226,0.008c0.785,0.023,0.95-0.28,0.94-0.996
      C18.921,29.773,18.944,27.22,18.944,24.667z M15.581,33.984c-0.99,0-1.979,0.02-2.969-0.009c-0.505-0.014-0.608,0.23-0.591,0.66
      c0.016,0.374-0.017,0.729,0.533,0.725c1.949-0.01,3.898-0.011,5.846,0.002c0.537,0.003,0.541-0.324,0.548-0.712
      c0.008-0.414-0.06-0.689-0.58-0.675C17.439,34.004,16.51,33.984,15.581,33.984z M15.494,15.33c0.926,0,1.853-0.008,2.78,0.004
      c0.411,0.005,0.693-0.054,0.678-0.573c-0.012-0.437-0.042-0.763-0.604-0.761c-1.914,0.014-3.827,0.012-5.741,0.002
      c-0.49-0.002-0.585,0.261-0.588,0.686c-0.004,0.441,0.118,0.66,0.605,0.647C13.578,15.312,14.537,15.33,15.494,15.33z"/>
    <path d="M9.811,11.931c0.234,0.366,0.291,0.764,0.291,1.196c-0.008,7.737-0.008,15.475-0.001,23.211
      c0,0.431-0.043,0.834-0.29,1.196c-0.842,0-1.684-0.029-2.524,0.012c-0.454,0.023-0.556-0.101-0.554-0.553
      c0.021-4.086,0.012-8.175,0.012-12.261s0.008-8.174-0.012-12.261c-0.002-0.45,0.1-0.575,0.554-0.553
      C8.125,11.961,8.969,11.931,9.811,11.931z"/>
    <path d="M18.104,11.931c0.092,0.076,0.187,0.147,0.276,0.226c0.292,0.256,0.673,0.521,0.506,0.953
      c-0.149,0.383-0.582,0.204-0.887,0.207c-1.672,0.017-3.343,0.017-5.014,0c-0.306-0.003-0.728,0.174-0.896-0.191
      c-0.174-0.375,0.152-0.657,0.395-0.921c0.077-0.085,0.139-0.181,0.208-0.273C14.498,11.931,16.302,11.931,18.104,11.931z"/>
    <path d="M12.695,37.535c-0.133-0.157-0.275-0.307-0.398-0.471c-0.166-0.219-0.334-0.459-0.225-0.74
      c0.129-0.335,0.459-0.221,0.709-0.223c1.74-0.012,3.481-0.015,5.222,0.002c0.305,0.002,0.731-0.174,0.886,0.218
      c0.149,0.377-0.156,0.666-0.409,0.93c-0.078,0.083-0.129,0.188-0.194,0.284C16.421,37.535,14.559,37.535,12.695,37.535z"/>
    <path fill="none" d="M31.268,27.077c-1.074-0.548-1.81-1.503-2.716-2.254c-0.158-0.129-0.188-0.309-0.033-0.467
      c0.928-0.943,1.647-2.089,2.749-2.868C31.268,23.351,31.268,25.214,31.268,27.077z"/>
    <path fill="none" d="M31.268,13.193c-0.329-0.514-0.778-0.906-1.264-1.262C31.268,11.931,31.268,11.931,31.268,13.193z"/>
    <path fill="none" d="M30.005,37.535c0.492-0.349,0.945-0.737,1.263-1.263C31.268,37.535,31.268,37.535,30.005,37.535z"/>
    <path d="M18.944,24.667c0,2.553-0.022,5.108,0.014,7.661c0.01,0.716-0.155,1.02-0.94,0.996c-1.741-0.054-3.484-0.032-5.226-0.008
      c-0.588,0.008-0.779-0.202-0.776-0.789c0.017-5.227,0.015-10.453,0.002-15.681c-0.001-0.528,0.138-0.754,0.708-0.745
      c1.832,0.028,3.666,0.033,5.497-0.002c0.64-0.012,0.733,0.278,0.729,0.818C18.933,19.5,18.944,22.083,18.944,24.667z"/>
    <path d="M15.581,33.984c0.929,0,1.858,0.02,2.787-0.009c0.519-0.015,0.588,0.261,0.58,0.675c-0.007,0.388-0.011,0.715-0.548,0.712
      c-1.949-0.013-3.898-0.012-5.846-0.002c-0.55,0.004-0.518-0.351-0.533-0.725c-0.017-0.43,0.086-0.674,0.591-0.66
      C13.602,34.004,14.591,33.984,15.581,33.984z"/>
    <path d="M15.494,15.33c-0.957,0-1.914-0.017-2.87,0.007c-0.488,0.014-0.61-0.204-0.605-0.646c0.003-0.426,0.098-0.688,0.588-0.687
      c1.914,0.008,3.827,0.01,5.741-0.001c0.562-0.005,0.593,0.322,0.604,0.76c0.014,0.519-0.268,0.577-0.679,0.571
      C17.347,15.322,16.419,15.33,15.494,15.33z"/>
    <path id="Path_4823" d="M37.266,13.167L20.233,1.188c-0.75-0.508-1.728-0.508-2.474,0l-7.417,5.292V3.717
      c-0.053-0.22-0.166-0.419-0.331-0.571c-0.253-0.113-0.529-0.167-0.805-0.16H5.461C5.26,2.977,5.061,3.032,4.894,3.146
      C4.734,3.3,4.624,3.5,4.576,3.719v6.717l-3.848,2.78c-0.274,0.182-0.451,0.479-0.477,0.807c-0.016,0.325,0.123,0.637,0.369,0.846
      c0.25,0.213,0.566,0.327,0.893,0.324c0.282,0.001,0.559-0.086,0.792-0.248L18.877,3.238c0.034-0.023,0.074-0.036,0.119-0.033
      c0.041,0,0.08,0.013,0.116,0.033l16.577,11.663c0.229,0.162,0.51,0.246,0.787,0.245c0.328,0.008,0.648-0.11,0.897-0.32
      c0.255-0.21,0.389-0.523,0.376-0.846C37.717,13.65,37.537,13.349,37.266,13.167z"/>
  </svg>
  <svg id="bell-empty" viewBox="0 0 24 24" fill="none" stroke-width="1" stroke-linecap="round" stroke-linejoin="round">
    <path d="M18 8A6 6 0 0 0 6 8c0 7-3 9-3 9h18s-3-2-3-9"/>
    <path d="M13.73 21a2 2 0 0 1-3.46 0"/>
  </svg>
  <svg id="bell-filled" viewBox="0 0 24 24" stroke="currentColor" stroke-width="2" stroke-linecap="round" stroke-linejoin="round">
    <path d="M18 8A6 6 0 0 0 6 8c0 7-3 9-3 9h18s-3-2-3-9"/>
    <path d="M13.73 21a2 2 0 0 1-3.46 0"/>
  </svg>
</svg>
