<?xml version="1.0" encoding="utf-8"?>
<svg xmlns="http://www.w3.org/2000/svg" xmlnsXlink="http://www.w3.org/1999/xlink" width="38px" height="38px" viewBox="0 0 760 38" preserveAspectRatio="none" xml:space="preserve" style="display: none;">
	<svg id="arrow-up" viewBox="0 0 38 38">
		<path d="M7.525,28.263L19,16.813l11.475,11.449L34,24.737l-15-15l-15,15L7.525,28.263z"/>
	</svg>
	<svg id="arrow-down" viewBox="0 0 38 38">
		<path d="M30.475,9.737L19,21.188L7.525,9.739L4,13.264l15,15l15-15L30.475,9.737z"/>
	</svg>
	<svg id="cancel" viewBox="0 0 38 38">
		<path d="M34,7.022L30.979,4L19,15.978L7.022,4L4,7.022L15.978,19L4,30.979L7.022,34L19,22.021L30.979,34L34,30.979L22.021,19
		L34,7.022z"/>
	</svg>
	<svg id="more-thin" viewBox="0 0 38 38">
		<circle fill="#c43c30" stroke="#c43c30" stroke-width="3" stroke-linecap="round" stroke-linejoin="round" cx="19" cy="19" r="1"/>
		<circle fill="#c43c30" stroke="#c43c30" stroke-width="3" stroke-linecap="round" stroke-linejoin="round" cx="31.636" cy="19" r="1"/>
		<circle fill="#c43c30" stroke="#c43c30" stroke-width="3" stroke-linecap="round" stroke-linejoin="round" cx="6.364" cy="19" r="1"/>
	</svg>
	<svg id="more-thick" viewBox="0 0 38 38">
		<circle fill="#c43c30" stroke="#c43c30" stroke-width="6" stroke-linecap="round" stroke-linejoin="round" cx="19" cy="19" r="1"/>
		<circle fill="#c43c30" stroke="#c43c30" stroke-width="6" stroke-linecap="round" stroke-linejoin="round" cx="31.636" cy="19" r="1"/>
		<circle fill="#c43c30" stroke="#c43c30" stroke-width="6" stroke-linecap="round" stroke-linejoin="round" cx="6.364" cy="19" r="1"/>
	</svg>
	<svg id="search-thin" viewBox="0 0 38 38">
		<circle fill-rule="evenodd" clip-rule="evenodd" fill="none" stroke="#C33C2F" stroke-width="2" stroke-linecap="round" stroke-miterlimit="10" cx="20.402" cy="17.599" r="12.29"/>
		<line fill="none" stroke="#C33C2F" stroke-width="2" stroke-linecap="round" stroke-miterlimit="10" x1="11.2" y1="26.8" x2="5.308" y2="32.692"/>
	</svg>
	<svg id="search-thick" viewBox="0 0 38 38">
		<circle fill-rule="evenodd" clip-rule="evenodd" fill="none" stroke="#C33C2F" stroke-width="4" stroke-linecap="round" stroke-miterlimit="10" cx="20.402" cy="17.599" r="12.29"/>
		<line fill="none" stroke="#C33C2F" stroke-width="4" stroke-linecap="round" stroke-miterlimit="10" x1="11.2" y1="26.8" x2="5.308" y2="32.692"/>
	</svg>
	<svg id="logo" viewBox="0 0 38 38">
		<path fill-rule="evenodd" clip-rule="evenodd" d="M31.88,33.983c-3.095,0-6.19,0-9.285,0c-1.175-0.608-1.466-1.592-1.459-2.87
			c0.043-7.957,0.043-15.914,0-23.871c-0.007-1.292,0.14-2.416,1.248-3.225c3.165,0,6.331,0,9.496,0
			c0.567,0.417,1.094,0.876,1.478,1.477c0,3.236,0,6.472,0,9.708c-1.288,0.913-2.13,2.253-3.216,3.358
			c-0.181,0.184-0.146,0.395,0.038,0.547c1.06,0.878,1.921,1.996,3.178,2.637c0,3.588,0,7.175,0,10.763
			C32.987,33.12,32.455,33.574,31.88,33.983z"/>
		<path fill-rule="evenodd" clip-rule="evenodd" fill="none" d="M22.384,4.017c-1.108,0.809-1.255,1.933-1.248,3.225
			c0.043,7.957,0.043,15.914,0,23.871c-0.007,1.278,0.284,2.262,1.459,2.87c-1.478,0-2.954,0-4.432,0
			c0.075-0.112,0.136-0.237,0.227-0.333c0.297-0.309,0.654-0.646,0.479-1.088c-0.181-0.458-0.68-0.252-1.037-0.256
			c-2.037-0.018-4.074-0.014-6.111-0.002c-0.292,0.002-0.678-0.13-0.831,0.261c-0.128,0.329,0.071,0.612,0.264,0.867
			c0.145,0.191,0.31,0.367,0.466,0.551c-1.125,0-2.251,0-3.376,0c0.289-0.425,0.34-0.896,0.339-1.4
			c-0.008-9.056-0.008-18.11,0.001-27.166c0-0.506-0.066-0.973-0.34-1.4c1.125,0,2.251,0,3.376,0
			c-0.081,0.106-0.154,0.22-0.244,0.319c-0.283,0.31-0.665,0.639-0.462,1.079c0.197,0.427,0.69,0.22,1.049,0.223
			c1.955,0.019,3.911,0.018,5.867,0c0.357-0.003,0.864,0.207,1.038-0.241c0.195-0.505-0.252-0.816-0.593-1.116
			c-0.104-0.092-0.216-0.176-0.323-0.264C19.429,4.017,20.906,4.017,22.384,4.017z M18.934,18.922c0-3.023-0.012-6.047,0.01-9.07
			c0.005-0.631-0.104-0.97-0.854-0.956c-2.144,0.041-4.289,0.035-6.433,0.002c-0.667-0.01-0.83,0.254-0.829,0.871
			c0.016,6.118,0.018,12.235-0.002,18.353c-0.002,0.686,0.221,0.933,0.908,0.923c2.039-0.029,4.079-0.053,6.117,0.009
			c0.918,0.027,1.112-0.327,1.1-1.166C18.907,24.899,18.934,21.911,18.934,18.922z M14.998,29.827c-1.158,0-2.316,0.022-3.474-0.01
			c-0.592-0.017-0.712,0.271-0.692,0.773c0.018,0.438-0.02,0.852,0.624,0.848c2.281-0.013,4.562-0.014,6.842,0.002
			c0.629,0.004,0.633-0.379,0.641-0.833c0.01-0.485-0.07-0.808-0.678-0.79C17.174,29.85,16.086,29.827,14.998,29.827z M14.896,7.995
			c1.084,0,2.169-0.01,3.254,0.005c0.48,0.007,0.811-0.063,0.794-0.67c-0.014-0.511-0.05-0.894-0.708-0.89
			c-2.24,0.015-4.479,0.012-6.719,0.002c-0.573-0.002-0.685,0.305-0.689,0.803c-0.004,0.517,0.139,0.772,0.709,0.757
			C12.655,7.973,13.776,7.994,14.896,7.995z"/>
		<path fill-rule="evenodd" clip-rule="evenodd" d="M8.245,4.017c0.274,0.428,0.341,0.894,0.34,1.4
			c-0.009,9.055-0.009,18.11-0.001,27.166c0,0.504-0.051,0.976-0.339,1.4c-0.985,0-1.971-0.035-2.954,0.014
			c-0.531,0.026-0.65-0.119-0.648-0.647C4.667,28.566,4.657,23.783,4.657,19s0.01-9.567-0.014-14.35
			C4.641,4.123,4.76,3.977,5.291,4.003C6.273,4.052,7.26,4.017,8.245,4.017z"/>
		<path fill-rule="evenodd" clip-rule="evenodd" d="M17.952,4.017c0.107,0.088,0.219,0.172,0.323,0.264
			c0.341,0.3,0.788,0.611,0.593,1.116c-0.174,0.448-0.681,0.238-1.038,0.241c-1.956,0.019-3.912,0.019-5.867,0
			c-0.359-0.003-0.852,0.204-1.049-0.223c-0.203-0.44,0.179-0.769,0.462-1.079c0.09-0.099,0.163-0.212,0.244-0.319
			C13.731,4.017,15.842,4.017,17.952,4.017z"/>
		<path fill-rule="evenodd" clip-rule="evenodd" d="M11.621,33.983c-0.156-0.184-0.321-0.359-0.466-0.551
			c-0.193-0.255-0.392-0.538-0.264-0.867c0.152-0.391,0.538-0.259,0.831-0.261c2.037-0.012,4.074-0.016,6.111,0.002
			c0.357,0.004,0.856-0.202,1.037,0.256c0.175,0.442-0.183,0.779-0.479,1.088c-0.091,0.096-0.151,0.221-0.227,0.333
			C15.982,33.983,13.802,33.983,11.621,33.983z"/>
		<path fill-rule="evenodd" clip-rule="evenodd" fill="none" d="M33.357,21.743c-1.257-0.641-2.118-1.759-3.178-2.637
			c-0.184-0.152-0.219-0.363-0.038-0.547c1.086-1.105,1.928-2.445,3.216-3.358C33.357,17.382,33.357,19.563,33.357,21.743z"/>
		<path fill-rule="evenodd" clip-rule="evenodd" fill="none" d="M33.357,5.494c-0.384-0.601-0.91-1.06-1.478-1.477
			C33.357,4.017,33.357,4.017,33.357,5.494z"/>
		<path fill-rule="evenodd" clip-rule="evenodd" fill="none" d="M31.88,33.983c0.575-0.409,1.107-0.863,1.478-1.478
			C33.357,33.983,33.357,33.983,31.88,33.983z"/>
		<path fill-rule="evenodd" clip-rule="evenodd" d="M18.934,18.922c0,2.989-0.026,5.978,0.017,8.966
			c0.012,0.839-0.182,1.193-1.1,1.166c-2.038-0.062-4.078-0.038-6.117-0.009c-0.688,0.01-0.911-0.237-0.908-0.923
			c0.02-6.117,0.018-12.235,0.002-18.353c-0.001-0.617,0.162-0.881,0.829-0.871c2.144,0.032,4.29,0.039,6.433-0.002
			c0.75-0.015,0.859,0.324,0.854,0.956C18.922,12.875,18.934,15.898,18.934,18.922z"/>
		<path fill-rule="evenodd" clip-rule="evenodd" d="M14.998,29.827c1.088,0,2.176,0.022,3.263-0.01
			c0.607-0.018,0.688,0.305,0.678,0.79c-0.008,0.454-0.012,0.837-0.641,0.833c-2.281-0.016-4.562-0.015-6.842-0.002
			c-0.643,0.004-0.606-0.41-0.624-0.848c-0.02-0.502,0.101-0.79,0.692-0.773C12.682,29.85,13.84,29.827,14.998,29.827z"/>
		<path fill-rule="evenodd" clip-rule="evenodd" d="M14.896,7.995c-1.12,0-2.24-0.021-3.359,0.008
			c-0.571,0.016-0.714-0.24-0.709-0.757c0.004-0.498,0.116-0.805,0.689-0.803c2.24,0.009,4.479,0.013,6.719-0.002
			c0.658-0.004,0.694,0.378,0.708,0.89C18.96,7.938,18.63,8.007,18.149,8C17.065,7.985,15.98,7.995,14.896,7.995z"/>
	</svg>
	<svg id="logo-home" viewBox="0 0 38 38">
		<path d="M30.005,37.535c-2.644,0-5.29,0-7.932,0c-1.005-0.519-1.254-1.36-1.248-2.452c0.037-6.798,0.037-13.598,0-20.396
			c-0.006-1.104,0.118-2.064,1.066-2.756c2.704,0,5.41,0,8.113,0c0.484,0.356,0.935,0.749,1.263,1.262c0,2.764,0,5.53,0,8.295
			c-1.101,0.78-1.819,1.926-2.748,2.869c-0.154,0.157-0.124,0.338,0.032,0.468c0.907,0.749,1.643,1.706,2.716,2.253
			c0,3.065,0,6.131,0,9.196C30.95,36.798,30.497,37.187,30.005,37.535z"/>
		<path fill="none" d="M21.892,11.931c-0.948,0.691-1.072,1.652-1.066,2.756c0.037,6.798,0.037,13.598,0,20.396
			c-0.006,1.092,0.243,1.934,1.248,2.452c-1.264,0-2.525,0-3.789,0c0.064-0.096,0.116-0.201,0.194-0.284
			c0.254-0.264,0.559-0.553,0.41-0.93c-0.155-0.392-0.581-0.216-0.886-0.218c-1.741-0.017-3.481-0.014-5.221-0.002
			c-0.25,0.002-0.58-0.112-0.71,0.223c-0.109,0.281,0.061,0.521,0.226,0.74c0.124,0.163,0.265,0.313,0.398,0.471
			c-0.961,0-1.923,0-2.885,0c0.248-0.362,0.291-0.766,0.29-1.196c-0.007-7.736-0.007-15.473,0-23.211
			c0-0.432-0.056-0.832-0.291-1.196c0.962,0,1.923,0,2.885,0c-0.069,0.091-0.131,0.188-0.208,0.273
			c-0.242,0.265-0.568,0.546-0.395,0.921c0.168,0.365,0.589,0.188,0.896,0.191c1.671,0.017,3.342,0.016,5.014,0
			c0.305-0.003,0.738,0.177,0.887-0.207c0.167-0.431-0.215-0.697-0.506-0.953c-0.089-0.079-0.185-0.15-0.276-0.226
			C19.367,11.931,20.629,11.931,21.892,11.931z M18.944,24.667c0-2.584-0.011-5.167,0.008-7.749c0.004-0.54-0.089-0.83-0.729-0.818
			c-1.833,0.036-3.665,0.03-5.497,0.002c-0.569-0.009-0.709,0.217-0.708,0.745c0.013,5.228,0.015,10.452-0.002,15.681
			c-0.002,0.587,0.188,0.797,0.776,0.789c1.742-0.024,3.485-0.046,5.226,0.008c0.785,0.023,0.95-0.28,0.94-0.996
			C18.921,29.773,18.944,27.22,18.944,24.667z M15.581,33.984c-0.99,0-1.979,0.02-2.969-0.009c-0.505-0.014-0.608,0.23-0.591,0.66
			c0.016,0.374-0.017,0.729,0.533,0.725c1.949-0.01,3.898-0.011,5.846,0.002c0.537,0.003,0.541-0.324,0.548-0.712
			c0.008-0.414-0.06-0.689-0.58-0.675C17.439,34.004,16.51,33.984,15.581,33.984z M15.494,15.33c0.926,0,1.853-0.008,2.78,0.004
			c0.411,0.005,0.693-0.054,0.678-0.573c-0.012-0.437-0.042-0.763-0.604-0.761c-1.914,0.014-3.827,0.012-5.741,0.002
			c-0.49-0.002-0.585,0.261-0.588,0.686c-0.004,0.441,0.118,0.66,0.605,0.647C13.578,15.312,14.537,15.33,15.494,15.33z"/>
		<path d="M9.811,11.931c0.234,0.366,0.291,0.764,0.291,1.196c-0.008,7.737-0.008,15.475-0.001,23.211
			c0,0.431-0.043,0.834-0.29,1.196c-0.842,0-1.684-0.029-2.524,0.012c-0.454,0.023-0.556-0.101-0.554-0.553
			c0.021-4.086,0.012-8.175,0.012-12.261s0.008-8.174-0.012-12.261c-0.002-0.45,0.1-0.575,0.554-0.553
			C8.125,11.961,8.969,11.931,9.811,11.931z"/>
		<path d="M18.104,11.931c0.092,0.076,0.187,0.147,0.276,0.226c0.292,0.256,0.673,0.521,0.506,0.953
			c-0.149,0.383-0.582,0.204-0.887,0.207c-1.672,0.017-3.343,0.017-5.014,0c-0.306-0.003-0.728,0.174-0.896-0.191
			c-0.174-0.375,0.152-0.657,0.395-0.921c0.077-0.085,0.139-0.181,0.208-0.273C14.498,11.931,16.302,11.931,18.104,11.931z"/>
		<path d="M12.695,37.535c-0.133-0.157-0.275-0.307-0.398-0.471c-0.166-0.219-0.334-0.459-0.225-0.74
			c0.129-0.335,0.459-0.221,0.709-0.223c1.74-0.012,3.481-0.015,5.222,0.002c0.305,0.002,0.731-0.174,0.886,0.218
			c0.149,0.377-0.156,0.666-0.409,0.93c-0.078,0.083-0.129,0.188-0.194,0.284C16.421,37.535,14.559,37.535,12.695,37.535z"/>
		<path fill="none" d="M31.268,27.077c-1.074-0.548-1.81-1.503-2.716-2.254c-0.158-0.129-0.188-0.309-0.033-0.467
			c0.928-0.943,1.647-2.089,2.749-2.868C31.268,23.351,31.268,25.214,31.268,27.077z"/>
		<path fill="none" d="M31.268,13.193c-0.329-0.514-0.778-0.906-1.264-1.262C31.268,11.931,31.268,11.931,31.268,13.193z"/>
		<path fill="none" d="M30.005,37.535c0.492-0.349,0.945-0.737,1.263-1.263C31.268,37.535,31.268,37.535,30.005,37.535z"/>
		<path d="M18.944,24.667c0,2.553-0.022,5.108,0.014,7.661c0.01,0.716-0.155,1.02-0.94,0.996c-1.741-0.054-3.484-0.032-5.226-0.008
			c-0.588,0.008-0.779-0.202-0.776-0.789c0.017-5.227,0.015-10.453,0.002-15.681c-0.001-0.528,0.138-0.754,0.708-0.745
			c1.832,0.028,3.666,0.033,5.497-0.002c0.64-0.012,0.733,0.278,0.729,0.818C18.933,19.5,18.944,22.083,18.944,24.667z"/>
		<path d="M15.581,33.984c0.929,0,1.858,0.02,2.787-0.009c0.519-0.015,0.588,0.261,0.58,0.675c-0.007,0.388-0.011,0.715-0.548,0.712
			c-1.949-0.013-3.898-0.012-5.846-0.002c-0.55,0.004-0.518-0.351-0.533-0.725c-0.017-0.43,0.086-0.674,0.591-0.66
			C13.602,34.004,14.591,33.984,15.581,33.984z"/>
		<path d="M15.494,15.33c-0.957,0-1.914-0.017-2.87,0.007c-0.488,0.014-0.61-0.204-0.605-0.646c0.003-0.426,0.098-0.688,0.588-0.687
			c1.914,0.008,3.827,0.01,5.741-0.001c0.562-0.005,0.593,0.322,0.604,0.76c0.014,0.519-0.268,0.577-0.679,0.571
			C17.347,15.322,16.419,15.33,15.494,15.33z"/>
		<path id="Path_4823" d="M37.266,13.167L20.233,1.188c-0.75-0.508-1.728-0.508-2.474,0l-7.417,5.292V3.717
			c-0.053-0.22-0.166-0.419-0.331-0.571c-0.253-0.113-0.529-0.167-0.805-0.16H5.461C5.26,2.977,5.061,3.032,4.894,3.146
			C4.734,3.3,4.624,3.5,4.576,3.719v6.717l-3.848,2.78c-0.274,0.182-0.451,0.479-0.477,0.807c-0.016,0.325,0.123,0.637,0.369,0.846
			c0.25,0.213,0.566,0.327,0.893,0.324c0.282,0.001,0.559-0.086,0.792-0.248L18.877,3.238c0.034-0.023,0.074-0.036,0.119-0.033
			c0.041,0,0.08,0.013,0.116,0.033l16.577,11.663c0.229,0.162,0.51,0.246,0.787,0.245c0.328,0.008,0.648-0.11,0.897-0.32
			c0.255-0.21,0.389-0.523,0.376-0.846C37.717,13.65,37.537,13.349,37.266,13.167z"/>
	</svg>
	<svg id="bell-empty" viewBox="0 0 38 38">
		<path fill-rule="evenodd" clip-rule="evenodd" d="M18.51,34c-0.101-0.082-0.23-0.074-0.348-0.103
			c-0.972-0.241-1.719-0.79-2.249-1.638c-0.254-0.408-0.156-0.887,0.222-1.125c0.384-0.242,0.85-0.127,1.109,0.281
			c0.413,0.647,0.997,1.002,1.769,1c0.754-0.002,1.333-0.35,1.736-0.984c0.19-0.3,0.451-0.461,0.809-0.407
			c0.58,0.087,0.862,0.696,0.556,1.2c-0.583,0.959-1.435,1.531-2.537,1.73c-0.042,0.008-0.097-0.014-0.118,0.045
			c-0.066,0-0.133,0-0.198,0c-0.065-0.032-0.132-0.032-0.197,0c-0.04,0-0.079,0-0.118,0c-0.08-0.032-0.158-0.032-0.237,0
			C18.643,34,18.576,34,18.51,34z"/>
		<path fill-rule="evenodd" clip-rule="evenodd" d="M18.746,4.179c-0.092-0.015-0.193,0.041-0.275-0.038
			c0.092,0,0.185,0,0.277,0c0.012,0.009,0.017,0.018,0.012,0.026S18.75,4.179,18.746,4.179z"/>
		<path fill-rule="evenodd" clip-rule="evenodd" d="M19.537,4.141c-0.082,0.079-0.184,0.023-0.274,0.038
			c-0.015-0.008-0.019-0.016-0.015-0.025s0.008-0.013,0.013-0.013C19.354,4.141,19.445,4.141,19.537,4.141z"/>
		<path fill-rule="evenodd" clip-rule="evenodd" d="M5.477,26.021c0.07,0.088,0.031,0.188,0.033,0.283
			c-0.012,0.003-0.023,0-0.033-0.006C5.477,26.206,5.477,26.113,5.477,26.021z"/>
		<path fill-rule="evenodd" clip-rule="evenodd" d="M18.708,34c0.079-0.063,0.157-0.059,0.237,0
			C18.865,34,18.787,34,18.708,34z"/>
		<path fill-rule="evenodd" clip-rule="evenodd" d="M18.746,4.179c0-0.013,0.001-0.025,0.002-0.038
			c0.064,0,0.131,0,0.197,0C18.889,4.206,18.813,4.172,18.746,4.179z"/>
		<path fill-rule="evenodd" clip-rule="evenodd" d="M19.261,4.141c0,0.013,0.001,0.025,0.002,0.038
			c-0.067-0.006-0.144,0.027-0.199-0.038C19.129,4.141,19.195,4.141,19.261,4.141z"/>
		<path fill-rule="evenodd" clip-rule="evenodd" d="M19.063,34c0.065-0.057,0.132-0.061,0.197,0
			C19.195,34,19.129,34,19.063,34z"/>
		<path fill-rule="evenodd" clip-rule="evenodd" d="M32.229,25.535c-0.746-0.588-1.301-1.336-1.769-2.15
			c-1.179-2.049-1.718-4.293-1.997-6.615c-0.145-1.203-0.176-2.413-0.195-3.624c-0.011-0.735-0.107-1.457-0.301-2.156
			C26.96,6.974,23.328,4,19,4c-3.563,0-6.656,2.018-8.199,4.972c-0.218,0.404-0.406,0.826-0.567,1.264
			c-0.316,0.864-0.512,1.758-0.54,2.678c-0.023,0.781-0.04,1.563-0.08,2.344c-0.045,0.881-0.14,1.757-0.283,2.626
			c-0.294,1.79-0.781,3.518-1.639,5.129c-0.493,0.925-1.087,1.771-1.902,2.444c-0.167,0.138-0.288,0.302-0.314,0.524
			c0,0.014,0,0.026,0,0.039c0.05,0.09-0.005,0.192,0.033,0.283c0.102,0.418,0.386,0.627,0.855,0.627c8.411,0,16.823,0,25.234,0
			c0.046,0,0.093,0,0.139,0c0.341-0.008,0.631-0.214,0.739-0.525C32.588,26.088,32.502,25.752,32.229,25.535z M8.184,25.35
			c-0.019-0.031-0.007-0.053,0.009-0.074c1.146-1.553,1.856-3.303,2.338-5.156c0.405-1.559,0.621-3.146,0.717-4.75
			c0.044-0.73,0.034-1.461,0.072-2.19c0.15-2.931,1.521-5.117,4.072-6.551c1.232-0.693,2.579-0.958,3.989-0.901
			c3.252,0.13,6.15,2.437,7.027,5.588c0.178,0.637,0.278,1.284,0.285,1.946c0.012,1.198,0.052,2.395,0.189,3.586
			c0.299,2.574,0.906,5.056,2.208,7.327c0.228,0.398,0.485,0.777,0.773,1.176C22.609,25.35,15.396,25.35,8.184,25.35z"/>
	</svg>
	<svg id="bell-filled" viewBox="0 0 38 38">
		<path d="M18.51,34c-0.101-0.082-0.23-0.074-0.348-0.104c-0.972-0.24-1.719-0.789-2.249-1.638
			c-0.254-0.407-0.156-0.887,0.222-1.125c0.384-0.241,0.85-0.127,1.109,0.281c0.413,0.647,0.997,1.002,1.769,1
			c0.754-0.002,1.333-0.351,1.736-0.983c0.19-0.301,0.451-0.461,0.81-0.408c0.58,0.088,0.861,0.697,0.556,1.201
			c-0.583,0.959-1.435,1.53-2.537,1.729c-0.042,0.008-0.097-0.015-0.118,0.045c-0.066,0-0.133,0-0.198,0
			c-0.065-0.032-0.132-0.032-0.197,0c-0.04,0-0.079,0-0.118,0c-0.08-0.032-0.158-0.032-0.237,0C18.643,34,18.576,34,18.51,34z"/>
		<path d="M18.746,4.179c-0.092-0.015-0.193,0.041-0.275-0.038c0.092,0,0.185,0,0.277,0
			c0.012,0.009,0.017,0.018,0.012,0.026C18.755,4.175,18.75,4.179,18.746,4.179z"/>
		<path d="M19.537,4.141c-0.082,0.079-0.184,0.023-0.274,0.038c-0.015-0.008-0.019-0.016-0.015-0.025
			c0.004-0.009,0.008-0.013,0.013-0.013C19.354,4.141,19.445,4.141,19.537,4.141z"/>
		<path d="M5.477,26.021c0.07,0.088,0.031,0.188,0.033,0.283c-0.012,0.002-0.023,0-0.033-0.007
			C5.477,26.206,5.477,26.113,5.477,26.021z"/>
		<path d="M18.708,34c0.079-0.063,0.157-0.059,0.237,0C18.865,34,18.787,34,18.708,34z"/>
		<path d="M18.746,4.179c0-0.013,0.001-0.025,0.002-0.038c0.064,0,0.131,0,0.197,0
			C18.889,4.206,18.813,4.172,18.746,4.179z"/>
		<path d="M19.261,4.141c0,0.013,0.001,0.025,0.002,0.038c-0.067-0.006-0.144,0.027-0.199-0.038
			C19.129,4.141,19.195,4.141,19.261,4.141z"/>
		<path d="M19.063,34c0.065-0.057,0.132-0.061,0.197,0C19.195,34,19.129,34,19.063,34z"/>
		<path d="M32.229,25.535c-0.746-0.588-1.301-1.336-1.769-2.15c-1.179-2.049-1.718-4.293-1.997-6.615
			c-0.145-1.203-0.176-2.413-0.195-3.624c-0.011-0.735-0.106-1.457-0.301-2.156C26.96,6.974,23.328,4,19,4
			c-3.563,0-6.656,2.018-8.199,4.972c-0.218,0.404-0.406,0.826-0.567,1.264c-0.316,0.864-0.512,1.758-0.54,2.678
			c-0.023,0.781-0.04,1.563-0.08,2.344c-0.045,0.881-0.14,1.757-0.283,2.626c-0.294,1.79-0.781,3.519-1.639,5.13
			c-0.493,0.924-1.087,1.771-1.902,2.443c-0.167,0.139-0.288,0.302-0.314,0.523c0,0.015,0,0.026,0,0.039
			c0.05,0.09-0.005,0.192,0.033,0.283c0.102,0.418,0.386,0.627,0.855,0.627c8.411,0,16.823,0,25.233,0c0.047,0,0.094,0,0.139,0
			c0.342-0.008,0.632-0.214,0.74-0.525C32.588,26.088,32.502,25.752,32.229,25.535z"/>
	</svg>
</svg>