<?xml version="1.0" encoding="utf-8"?>
<svg xmlns="http://www.w3.org/2000/svg"
  xmlnsXlink="http://www.w3.org/1999/xlink" width="38px" height="38px" viewBox="0 0 38 38" preserveAspectRatio="none" xml:space="preserve" style="display:none">
  <svg id="arrow-left" viewBox="0 0 24 24" fill="none" stroke="currentColor" stroke-width="2" stroke-linecap="round" stroke-linejoin="round">
    <polyline points="15 18 9 12 15 6"></polyline>
  </svg>
  <svg id="arrow-right" viewBox="0 0 24 24" fill="none" stroke="currentColor" stroke-width="2" stroke-linecap="round" stroke-linejoin="round">
    <polyline points="9 18 15 12 9 6"></polyline>
  </svg>
  <svg id="arrow-up" viewBox="0 0 24 24" fill="none" stroke="currentColor" stroke-width="2" stroke-linecap="round" stroke-linejoin="round">
    <polyline points="18 15 12 9 6 15"></polyline>
  </svg>
  <svg id="arrow-down" viewBox="0 0 24 24" fill="none" stroke="currentColor" stroke-width="2" stroke-linecap="round" stroke-linejoin="round">
    <polyline points="6 9 12 15 18 9"></polyline>
  </svg>
  <svg id="login" viewBox="0 0 24 24" fill="none" stroke="currentColor" stroke-width="2" stroke-linecap="round" stroke-linejoin="round">
    <path d="M15 3h4a2 2 0 0 1 2 2v14a2 2 0 0 1-2 2h-4"></path>
    <polyline points="10 17 15 12 10 7"></polyline>
    <line x1="15" y1="12" x2="3" y2="12"></line>
  </svg>
  <svg id="help-thin" viewBox="0 0 24 24" fill="none" stroke="currentColor" stroke-width="2" stroke-linecap="round" stroke-linejoin="round">
    <circle cx="12" cy="12" r="10"/>
    <path d="M9.09 9a3 3 0 0 1 5.83 1c0 2-3 3-3 3"/>
    <line x1="12" y1="17" x2="12.01" y2="17"/>
  </svg>
  <svg id="help-thick" viewBox="0 0 24 24" fill="none" stroke="currentColor" stroke-width="4" stroke-linecap="round" stroke-linejoin="round">
    <circle cx="12" cy="12" r="10"/>
    <path d="M9.09 9a3 3 0 0 1 5.83 1c0 2-3 3-3 3"/>
    <line x1="12" y1="17" x2="12.01" y2="17"/>
  </svg>
  <svg id="ok" viewBox="0 0 24 24" fill="none" stroke="currentColor" stroke-linecap="round" stroke-linejoin="round">
    <polyline points="20 6 9 17 4 12"></polyline>
  </svg>
  <svg id="cancel" viewBox="0 0 24 24" fill="none" stroke="currentColor" stroke-linecap="round" stroke-linejoin="round">
    <line x1="18" y1="6" x2="6" y2="18"></line>
    <line x1="6" y1="6" x2="18" y2="18"></line>
  </svg>
  <svg id="circle-cancel" viewBox="0 0 24 24" fill="none" stroke="currentColor" stroke-width="2" stroke-linecap="round" stroke-linejoin="round">
    <circle cx="12" cy="12" r="10"></circle>
    <line x1="15" y1="9" x2="9" y2="15"></line>
    <line x1="9" y1="9" x2="15" y2="15"></line>
  </svg>
  <svg id="more" viewBox="0 0 24 24" fill="currentColor" stroke="currentColor" stroke-linecap="round" stroke-linejoin="round">
    <circle cx="12" cy="12" r="1"/>
    <circle cx="19" cy="12" r="1"/>
    <circle cx="5" cy="12" r="1"/>
  </svg>
  <svg id="search" viewBox="0 0 24 24" fill="none" stroke="currentColor" stroke-linecap="round" stroke-linejoin="round">
    <circle cx="13.1" cy="10.9" r="8.9"/>
    <line x1="6.8" y1="17.2" x2="2" y2="22"/>
  </svg>
  <svg id="play-thin" viewBox="0 0 24 24" fill="none" stroke="currentColor" stroke-width="1" stroke-linecap="round" stroke-linejoin="round">
    <polygon points="5 3 19 12 5 21 5 3"></polygon>
  </svg>
  <svg id="play-thick" viewBox="0 0 24 24" fill="none" stroke="currentColor" stroke-width="2" stroke-linecap="round" stroke-linejoin="round">
    <polygon points="5 3 19 12 5 21 5 3"></polygon>
  </svg>
  <svg id="play-filled" viewBox="0 0 24 24" fill="currentColor" stroke="none">
    <path d="M3.36,20.26V3.74A1.74,1.74,0,0,1,6,2.25l13.8,8.26a1.74,1.74,0,0,1,0,3L6,21.75A1.74,1.74,0,0,1,3.36,20.26Z"/>
  </svg>
  <svg id="pause-filled" viewBox="0 0 24 24" fill="currentColor" stroke="none">
    <path d="M9.5,21h-3C5.7,21,5,20.3,5,19.5v-15C5,3.7,5.7,3,6.5,3h3C10.3,3,11,3.7,11,4.5v15C11,20.3,10.3,21,9.5,21z"/>
    <path d="M17.5,21h-3c-0.8,0-1.5-0.7-1.5-1.5v-15C13,3.7,13.7,3,14.5,3h3C18.3,3,19,3.7,19,4.5v15C19,20.3,18.3,21,17.5,21z"/>
  </svg>
  <svg id="circle-empty" viewBox="0 0 24 24" fill="none" stroke="currentColor" stroke-width="2" stroke-linecap="round" stroke-linejoin="round">
    <circle cx="12" cy="12" r="10"></circle>
  </svg>
  <svg id="circle-filled" viewBox="0 0 24 24" fill="currentColor" stroke="none" stroke-width="2" stroke-linecap="round" stroke-linejoin="round">
    <circle cx="12" cy="12" r="10"></circle>
  </svg>
  <svg id="plus" viewBox="0 0 24 24" fill="none" stroke="currentColor" stroke-width="2" stroke-linecap="round" stroke-linejoin="round">
    <line x1="12" y1="5" x2="12" y2="19"></line>
    <line x1="5" y1="12" x2="19" y2="12"></line>
  </svg>
  <svg id="user" viewBox="0 0 24 24" fill="none" stroke="currentColor" stroke-width="2" stroke-linecap="round" stroke-linejoin="round">
    <path d="M20,21v-2c0-2.2-1.8-4-4-4H8c-2.2,0-4,1.8-4,4v2"/>
    <circle cx="12" cy="7" r="4"/>
  </svg>
  <svg id="users" viewBox="0 0 24 24" fill="none" stroke="currentColor" stroke-width="2" stroke-linecap="round" stroke-linejoin="round">
    <path d="M16.5,20.2v-1.8c0-2-1.6-3.6-3.6-3.6H5.6c-2,0-3.6,1.6-3.6,3.6v1.8"/>
    <circle cx="9.3" cy="7.5" r="3.6"/>
    <path d="M22,20.2v-1.8c0-1.7-1.1-3.1-2.7-3.5"/>
    <path d="M15.6,3.9c1.9,0.5,3.1,2.5,2.6,4.4c-0.3,1.3-1.3,2.3-2.6,2.6"/>
  </svg>
  <svg id="logout-thin" viewBox="0 0 24 24" fill="none" stroke="currentColor" stroke-width="1" stroke-linecap="round" stroke-linejoin="round">
    <path d="M9.3,20H5.8c-1,0-1.8-0.8-1.8-1.8V5.8C4,4.8,4.8,4,5.8,4h3.6"/>
    <polyline points="15.6,16.4 20,12 15.6,7.6 	"/>
    <line x1="20" y1="12" x2="9.3" y2="12"/>
  </svg>
  <svg id="logout-thick" viewBox="0 0 24 24" fill="none" stroke="currentColor" stroke-width="2" stroke-linecap="round" stroke-linejoin="round">
    <path d="M9.3,20H5.8c-1,0-1.8-0.8-1.8-1.8V5.8C4,4.8,4.8,4,5.8,4h3.6"/>
    <polyline points="15.6,16.4 20,12 15.6,7.6 	"/>
    <line x1="20" y1="12" x2="9.3" y2="12"/>
  </svg>
  <svg id="clock" viewBox="0 0 24 24" fill="none" stroke="currentColor" stroke-width="2" stroke-linecap="round" stroke-linejoin="round">
    <circle cx="12" cy="12" r="10"></circle>
    <polyline points="12 6 12 12 16 14"></polyline>
  </svg>
  <svg id="email" viewBox="0 0 24 24">
    <path d="M0 0h24v24H0z" fill="none"/>
    <path d="M20 4H4c-1.1 0-1.99.9-1.99 2L2 18c0 1.1.9 2 2 2h16c1.1 0 2-.9 2-2V6c0-1.1-.9-2-2-2zm0 4l-8 5-8-5V6l8 5 8-5v2z"/>
  </svg>
  <svg id="gmail" viewBox="0 0 24 24">
    <path fill="#4285F4" d="M22,12.227c0-0.838-0.068-1.451-0.215-2.086h-9.581v3.787h5.625c-0.113,0.94-0.726,2.358-2.086,3.312
      l-0.019,0.126l3.027,2.347l0.211,0.021C20.889,17.952,22,15.334,22,12.227"/>
    <path fill="#34A853" d="M12.204,22.204c2.755,0,5.067-0.907,6.758-2.472l-3.221-2.494c-0.862,0.602-2.019,1.021-3.537,1.021
      c-2.699,0-4.989-1.78-5.804-4.239l-0.121,0.01L3.13,16.468l-0.041,0.114C4.766,19.914,8.214,22.204,12.204,22.204"/>
    <path fill="#FBBC05" d="M6.398,14.02c-0.213-0.636-0.34-1.315-0.34-2.02s0.127-1.383,0.33-2.018L6.383,9.848L3.194,7.369
      l-0.103,0.05C2.396,8.803,2,10.355,2,12s0.396,3.197,1.09,4.58L6.398,14.02"/>
    <path fill="#EB4335" d="M12.204,5.741c1.916,0,3.209,0.827,3.946,1.52l2.879-2.812c-1.769-1.645-4.07-2.653-6.825-2.653
      c-3.99,0-7.438,2.291-9.115,5.624l3.3,2.563C7.215,7.521,9.505,5.741,12.204,5.741"/>
  </svg>
  <svg id="list" viewBox="0 0 24 24" fill="none" stroke="currentColor" stroke-width="2" stroke-linecap="round" stroke-linejoin="round">
    <line x1="8" y1="6" x2="21" y2="6"></line>
    <line x1="8" y1="12" x2="21" y2="12"></line>
    <line x1="8" y1="18" x2="21" y2="18"></line>
    <line x1="3" y1="6" x2="3.01" y2="6"></line>
    <line x1="3" y1="12" x2="3.01" y2="12"></line>
    <line x1="3" y1="18" x2="3.01" y2="18"></line>
  </svg>
  <svg id="eye-off" viewBox="0 0 24 24" fill="none" stroke="currentColor" stroke-width="2" stroke-linecap="round" stroke-linejoin="round">
    <path d="M17.94 17.94A10.07 10.07 0 0 1 12 20c-7 0-11-8-11-8a18.45 18.45 0 0 1 5.06-5.94M9.9 4.24A9.12 9.12 0 0 1 12 4c7 0 11 8 11 8a18.5 18.5 0 0 1-2.16 3.19m-6.72-1.07a3 3 0 1 1-4.24-4.24"></path>
    <line x1="1" y1="1" x2="23" y2="23"></line>
  </svg>
  <svg id="eye-on" viewBox="0 0 24 24" fill="none" stroke="currentColor" stroke-width="2" stroke-linecap="round" stroke-linejoin="round">
    <path d="M1 12s4-8 11-8 11 8 11 8-4 8-11 8-11-8-11-8z"></path>
    <circle cx="12" cy="12" r="3"></circle>
  </svg>
  <svg id="trowel" viewBox="0 0 24 24" fill="currentColor" stroke="none">
    <path d="M1,20.2l0.1-0.4l7-8.6l0.5-0.3l0.4,0l0.3,0l0.3,0.1l0.3,0.2l1.6,1.6l1.3-0.8
	c0.1,0,0.1-0.1,0.1-0.2c0-0.1,0.1-0.1,0.1-0.2v-0.5l0-1.9L13.2,9l0.4-0.4l1.3-1l0-0.3V7L15,6.8l0.3-0.2L21,3.5l0.3-0.2l0.3,0l0.4,0
	l0.3,0.2l0.2,0.2l0.2,0.2l0.2,0.2L23,4.4l0,0.3v0.3l-0.1,0.2l-0.1,0.2l-0.2,0.2l-5.7,3.2L16.5,9L16.2,9l-0.3,0l-0.3-0.1l-0.3-0.3
	l-1,0.7l-0.2,0.2v2.8l0,0c0,0.1,0,0.1,0,0.2c0,0,0,0.1-0.1,0.1l-0.3,0.2L13.4,13L9,15.6l0.1,0.2l0.2,0.1h0.3l0.3-0.1l3.1-1.5
	l2.3,2.1l0.2,0.3l0,0.3l0,0.2l-0.2,0.2L15,17.7l-13.3,3H1.4l-0.2-0.1l-0.1-0.2L1,20.2"/>
  </svg>
  <svg id="trowel-home" viewBox="0 0 24 17" fill="currentColor" stroke="none">
    <path d="M2,16.5l0.1-0.4l6.4-7.8L8.9,8l0.4,0l0.3,0l0.3,0.1l0.3,0.1l1.4,1.5L12.7,9
	c0.1,0,0.1-0.1,0.1-0.1c0-0.1,0-0.1,0.1-0.2V8.3l0-1.7l0.1-0.3l0.3-0.4L14.6,5l0-0.2V4.5l0.2-0.2L15,4.1l5.2-2.8l0.3-0.1l0.3,0
	l0.3,0l0.2,0.1l0.1,0.2l0.2,0.2l0.2,0.2L22,2.1l0,0.2v0.3l-0.1,0.2L21.8,3l-0.2,0.2l-5.2,2.9l-0.3,0.2l-0.3,0.1l-0.3,0l-0.3-0.1
	L15,5.9l-0.9,0.7l-0.1,0.2v2.6l0,0c0,0.1,0,0.1,0,0.2c0,0,0,0.1-0.1,0.1l-0.3,0.2l-0.3,0.2l-4,2.3l0.1,0.2l0.2,0.1h0.3l0.2,0
	l2.8-1.3l2,1.9l0.2,0.3l0,0.3l0,0.2L15,14l-0.3,0.2L2.6,16.9H2.4l-0.2-0.1l-0.1-0.1L2,16.5"/>
  </svg>
  <svg id="logo" viewBox="0 0 38 38" fill="currentColor" stroke="none">
    <path d="M32.175,34.742h-9.238c-1.008,0-1.824-0.814-1.826-1.822c0-0.002,0-0.002,0-0.004V5.083
      c0-1.008,0.818-1.825,1.826-1.825h9.238C33.183,3.258,34,4.076,34,5.083v9.753l-3.74,3.883l2.333,2.367l1.352,1.395v-0.021
      l0.057,0.059v10.398c0.001,1.008-0.814,1.826-1.822,1.826C32.177,34.742,32.176,34.742,32.175,34.742z M17.574,34.742h-5.933
      c-0.756,0-1.369-0.613-1.369-1.369v-0.57h8.67v0.57C18.942,34.129,18.33,34.742,17.574,34.742z M7.536,34.742H4.685
      c-0.379,0-0.685-0.307-0.686-0.686V3.943c0-0.379,0.307-0.685,0.686-0.685h2.852c0.378,0,0.684,0.306,0.686,0.685v30.114
      C8.22,34.436,7.914,34.742,7.536,34.742z M18.942,32.119l-8.668-0.002v-1.824h8.668V32.119z M18.942,29.609h-8.668V8.277h8.668
      V29.609L18.942,29.609L18.942,29.609z M18.942,7.593h-8.668V5.769h8.668V7.593z M18.942,5.084h-8.668V4.628
      c0-0.756,0.613-1.369,1.369-1.369h5.932c0.756,0,1.367,0.613,1.369,1.369v0.456H18.942z"/>
  </svg>
  <svg id="roof" viewBox="0 0 38 14" fill="currentColor" stroke="none">
    <path d="M33.612,11.711L19.987,0.794c-0.577-0.461-1.397-0.461-1.977,0l-5.933,4.823V2.576
      c0-0.079-0.064-0.146-0.146-0.146H7.605c-0.08,0-0.144,0.065-0.144,0.146v6.646l-3.079,2.531C4.159,11.934,4.014,12.2,4,12.486
      c-0.017,0.286,0.093,0.565,0.295,0.771c0.188,0.189,0.446,0.295,0.714,0.295c0.229,0,0.455-0.08,0.634-0.223l13.259-10.67
      c0.025-0.022,0.061-0.032,0.095-0.029c0.032,0,0.064,0.01,0.094,0.029l13.257,10.625c0.182,0.145,0.402,0.225,0.634,0.225
      c0.564-0.004,1.021-0.465,1.02-1.029c0-0.012,0-0.021-0.001-0.037C33.983,12.156,33.842,11.889,33.612,11.711z"/>
  </svg>
  <svg id="zap-off" viewBox="0 0 24 24" fill="none" stroke="currentColor" stroke-width="2" stroke-linecap="round" stroke-linejoin="round">
    <polyline points="12.41 6.75 13 2 10.57 4.92"></polyline>
    <polyline points="18.57 12.91 21 10 15.66 10"></polyline>
    <polyline points="8 8 3 14 12 14 11 22 16 16"></polyline>
    <line x1="1" y1="1" x2="23" y2="23"></line>
  </svg>
  <svg id="zap" viewBox="0 0 24 24" fill="none" stroke="currentColor" stroke-width="2" stroke-linecap="round" stroke-linejoin="round">
    <polygon points="13 2 3 14 12 14 11 22 21 10 12 10 13 2"></polygon>
  </svg>
  <svg id="highlighter" viewBox="0 0 24 24" fill="currentColor" stroke="none">
    <path d="M1.4,20.8l3.9,1.3l1.4-1.4L4.1,18L1.4,20.8z M6.3,11.4c-0.4,0.4-0.6,0.9-0.4,1.5
      l0.5,1.7l-2,2l3.7,3.7l2-2l1.7,0.5c0.6,0.1,1.1,0,1.5-0.4l1.4-1.6L7.9,10L6.3,11.4z M22,5.2l-2.5-2.5c-0.8-0.8-2.1-0.8-2.9-0.1
      L8.8,9.3l6.6,6.6l6.6-7.8C22.8,7.2,22.7,5.9,22,5.2z"/>
  </svg>
  <svg id="trash-outline" viewBox="0 0 24 24" fill="none" stroke="currentColor" stroke-width="2" stroke-linecap="round" stroke-linejoin="round">
    <polyline points="3 6 5 6 21 6"></polyline>
    <path d="M19 6v14a2 2 0 0 1-2 2H7a2 2 0 0 1-2-2V6m3 0V4a2 2 0 0 1 2-2h4a2 2 0 0 1 2 2v2"></path>
    <line x1="10" y1="11" x2="10" y2="17"></line>
    <line x1="14" y1="11" x2="14" y2="17"></line>
  </svg>
  <svg id="edit-outline" viewBox="0 0 24 24" fill="none" stroke="currentColor" stroke-width="2" stroke-linecap="round" stroke-linejoin="round">
    <path d="M12 20h9"></path>
    <path d="M16.5 3.5a2.121 2.121 0 0 1 3 3L7 19l-4 1 1-4L16.5 3.5z"></path>
  </svg>
  <svg id="glasses" viewBox="0 0 58 24" fill="currentColor" stroke="none">
    <path d="M32.823,12c0-6.405,5.236-11.6,11.692-11.6c6.458,0,11.691,5.194,11.691,11.6
		  c0,6.405-5.233,11.6-11.691,11.6C38.06,23.6,32.823,18.404,32.823,12z M36.208,12c0,4.54,3.718,8.217,8.308,8.217
		  c4.589,0,8.311-3.678,8.311-8.217c0-4.538-3.722-8.217-8.311-8.217C39.926,3.783,36.208,7.461,36.208,12z"/>
    <path d="M2.161,12c0-6.407,5.248-11.6,11.723-11.6S25.605,5.592,25.605,12
		  c0,6.405-5.247,11.598-11.722,11.598S2.161,18.404,2.161,12z M5.543,12c0,4.536,3.735,8.213,8.341,8.213s8.34-3.678,8.34-8.213
		  c0-4.538-3.734-8.217-8.34-8.217S5.543,7.461,5.543,12z"/>
    <path d="M22.521,11.042c0-3.321,2.998-6.015,6.693-6.015c3.698,0,6.696,2.693,6.696,6.015h-3.012
		  c0-1.661-1.647-3.009-3.686-3.009c-2.034,0-3.685,1.348-3.685,3.009H22.521z"/>
    <path d="M57.75,6.822v2.426l-0.607,0.607h-4.081V6.213h4.081L57.75,6.822z"/>
    <path d="M0.25,9.248V6.822l0.604-0.607h4.021v3.641H0.854L0.25,9.248z"/>
  </svg>
  <svg id="glasses-home" viewBox="0 0 24 10" fill="currentColor" stroke="none">
    <path d="M13.5,5c0-2.5,2-4.4,4.5-4.4s4.5,2,4.5,4.4c0,2.5-2,4.4-4.5,4.4S13.5,7.4,13.5,5z M14.8,5c0,1.7,1.4,3.1,3.2,3.1
		s3.2-1.4,3.2-3.1S19.8,1.9,18,1.9C16.2,1.8,14.8,3.2,14.8,5z"/>
    <path d="M1.7,5c0-2.5,2-4.4,4.5-4.4s4.5,2,4.5,4.4c0,2.5-2,4.4-4.5,4.4S1.7,7.4,1.7,5z M3,5c0,1.7,1.4,3.1,3.2,3.1S9.4,6.7,9.4,5
		S8,1.9,6.2,1.9S3,3.2,3,5z"/>
    <path d="M9.5,4.6c0-1.3,1.1-2.3,2.6-2.3c1.4,0,2.6,1,2.6,2.3h-1.2c0-0.6-0.6-1.2-1.4-1.2c-0.8,0-1.4,0.5-1.4,1.2H9.5z"/>
    <path d="M23,3v0.9l-0.2,0.2h-1.6V2.7h1.6L23,3z"/>
    <path d="M1,3.9V3l0.2-0.2h1.5v1.4H1.2L1,3.9z"/>
  </svg>
  <svg id="globe" viewBox="0 0 24 24" fill="none" stroke="currentColor" stroke-width="2" stroke-linecap="round" stroke-linejoin="round">
    <circle cx="12" cy="12" r="10"></circle>
    <line x1="2" y1="12" x2="22" y2="12"></line>
    <path d="M12 2a15.3 15.3 0 0 1 4 10 15.3 15.3 0 0 1-4 10 15.3 15.3 0 0 1-4-10 15.3 15.3 0 0 1 4-10z"></path>
  </svg>
  <svg id="box" viewBox="0 0 24 24" fill="none" stroke="currentColor" stroke-width="2" stroke-linecap="round" stroke-linejoin="round">
    <path d="M21 16V8a2 2 0 0 0-1-1.73l-7-4a2 2 0 0 0-2 0l-7 4A2 2 0 0 0 3 8v8a2 2 0 0 0 1 1.73l7 4a2 2 0 0 0 2 0l7-4A2 2 0 0 0 21 16z"></path>
    <polyline points="3.27 6.96 12 12.01 20.73 6.96"></polyline>
    <line x1="12" y1="22.08" x2="12" y2="12"></line>
  </svg>
  <svg id="roller" viewBox="0 0 24 24" fill="currentColor" stroke="none">
    <path d="M16.3,6.5H5.8c-1.2,0-2.3-1-2.3-2.3S4.6,2,5.8,2h10.5c1.2,0,2.3,1,2.3,2.3S17.6,6.5,16.3,6.5z"/>
    <path d="M18.8,4.9c-0.3,0-0.5-0.2-0.5-0.5V4.1c0-0.3,0.2-0.5,0.5-0.5s0.5,0.2,0.5,0.5v0.3C19.3,4.7,19.1,4.9,18.8,4.9z"/>
    <path d="M11.1,14.1c-0.1,0-0.3-0.1-0.3-0.3v-1.3c0-0.9,0.6-1.3,0.9-1.4l7.6-3.2c0.5-0.2,0.6-0.8,0.6-0.8l0-2.2
			c0-0.3-0.1-0.4-0.4-0.4l-0.4,0c-0.1,0-0.3-0.1-0.3-0.3S19,4,19.1,4h0.5c0.3,0,0.8,0.2,0.9,0.9l0,2.3c0,0.1-0.1,0.9-0.8,1.2
			l-7.7,3.2c-0.1,0-0.6,0.2-0.6,0.9v1.3C11.3,14,11.2,14.1,11.1,14.1z"/>
    <path d="M12.1,22h-2c-0.3,0-0.5-0.2-0.5-0.5V14c0-0.3,0.2-0.5,0.5-0.5h2c0.3,0,0.5,0.2,0.5,0.5v7.5C12.6,21.8,12.4,22,12.1,22z"/>
  </svg>
  <svg id="roller-home" viewBox="0 0 24 22" fill="currentColor" stroke="none">
    <path d="M16.3,5.5H5.8c-1.2,0-2.3-1-2.3-2.3S4.6,1,5.8,1h10.5c1.2,0,2.3,1,2.3,2.3S17.6,5.5,16.3,5.5z"/>
    <path d="M18.8,3.9c-0.3,0-0.5-0.2-0.5-0.5V3.1c0-0.3,0.2-0.5,0.5-0.5s0.5,0.2,0.5,0.5v0.3C19.3,3.7,19.1,3.9,18.8,3.9z"/>
    <path d="M11.1,13.1c-0.1,0-0.3-0.1-0.3-0.3v-1.3c0-0.9,0.6-1.3,0.9-1.4l7.6-3.2c0.5-0.2,0.6-0.8,0.6-0.8V3.9c0-0.3-0.1-0.4-0.4-0.4
		h-0.4c-0.1,0-0.3-0.1-0.3-0.3S19,3,19.1,3h0.5c0.3,0,0.8,0.2,0.9,0.9v2.3c0,0.1-0.1,0.9-0.8,1.2L12,10.6c-0.1,0-0.6,0.2-0.6,0.9
		v1.3C11.3,13,11.2,13.1,11.1,13.1z"/>
    <path d="M12.1,21h-2c-0.3,0-0.5-0.2-0.5-0.5V13c0-0.3,0.2-0.5,0.5-0.5h2c0.3,0,0.5,0.2,0.5,0.5v7.5C12.6,20.8,12.4,21,12.1,21z"/>
  </svg>
  <svg id="maximize-2" viewBox="0 0 24 24" fill="none" stroke="#c43c30" stroke-width="1.5" stroke-linecap="round" stroke-linejoin="round">
    <polyline points="15 3 21 3 21 9"></polyline>
    <polyline points="9 21 3 21 3 15"></polyline>
    <line x1="21" y1="3" x2="14" y2="10"></line>
    <line x1="3" y1="21" x2="10" y2="14"></line>
  </svg>
  <svg id="minimize-2" viewBox="0 0 24 24" fill="none" stroke="#c43c30" stroke-width="1.5" stroke-linecap="round" stroke-linejoin="round">
    <polyline points="4 14 10 14 10 20"></polyline>
    <polyline points="20 10 14 10 14 4"></polyline>
    <line x1="14" y1="10" x2="21" y2="3"></line>
    <line x1="3" y1="21" x2="10" y2="14"></line>
  </svg>
  <svg id="pen-tool" viewBox="0 0 24 24" fill="none" stroke="currentColor" stroke-width="2" stroke-linecap="round" stroke-linejoin="round">
    <path d="M12 19l7-7 3 3-7 7-3-3z"></path>
    <path d="M18 13l-1.5-7.5L2 2l3.5 14.5L13 18l5-5z"></path>
    <path d="M2 2l7.586 7.586"></path>
    <circle cx="11" cy="11" r="2"></circle>
  </svg>
  <svg id="delete-2" viewBox="0 0 24 24" fill="none" stroke="currentColor" stroke-width="2" stroke-linecap="round" stroke-linejoin="round">
    <path d="M21 4H8l-7 8 7 8h13a2 2 0 0 0 2-2V6a2 2 0 0 0-2-2z"></path>
    <line x1="18" y1="9" x2="12" y2="15"></line>
    <line x1="12" y1="9" x2="18" y2="15"></line>
  </svg>
  <svg id="save-icon" viewBox="0 0 24 24" fill="none" stroke="currentColor" stroke-width="2" stroke-linecap="round" stroke-linejoin="round">
    <path d="M19 21H5a2 2 0 0 1-2-2V5a2 2 0 0 1 2-2h11l5 5v11a2 2 0 0 1-2 2z"></path>
    <polyline points="17 21 17 13 7 13 7 21"></polyline>
    <polyline points="7 3 7 8 15 8"></polyline>
  </svg>
  <svg id="check-icon" viewBox="0 0 24 24" fill="none" stroke="currentColor" stroke-width="3" stroke-linecap="round" stroke-linejoin="round">
    <polyline points="20 6 9 17 4 12"></polyline>
  </svg>
  <svg id="message-square" viewBox="0 0 24 24" fill="none" stroke="currentColor" stroke-linecap="round" stroke-linejoin="round">
    <path d="M21 15a2 2 0 0 1-2 2H7l-4 4V5a2 2 0 0 1 2-2h14a2 2 0 0 1 2 2z"></path>
  </svg>
</svg>
