<svg xmlns="http://www.w3.org/2000/svg" width="225.555" height="290.841" viewBox="0 0 225.555 290.841">
  <defs>
    <style>
      .cls-1 {
        fill: #001c55;
      }

      .cls-2, .cls-3 {
        fill: none;
      }

      .cls-2 {
        stroke: #001c55;
      }

      .cls-3 {
        stroke: #707070;
      }
    </style>
  </defs>
  <g id="Group_357" data-name="Group 357" transform="translate(-1541.621 -276.503)">
    <path id="Path_5124" data-name="Path 5124" class="cls-1" d="M-22321.824,3930.555c.754,0-3.443,2.575-5.6,7.265s-2.264,6.952-3.02,11.494,3.684-.993,0,6.675-10.572,12.012-14.73,24-2.635,15.209-1.906,23.949,4.348,2.268,4.824,11.009,0,12.565-2.918,23.955-5.918,13.431-8.744,21.6.979,5.348-2.564,11.087-7.025,8.188-11.605,11.869-.768,2.141-6.719,2.855-11.359,1.085-17.084,0-1.512-3.255-5.814-4.34-6.41,1.2-11.4,0-6.068-4.009-8.561-4.817.051-1.138-1.4-3.676-6.693-2.429-7.762-3.694-.8-3.465-2.32-6.258-2.234-2.564-3.754-4.912-2.686-3.361-2.326-4.481,1.176-.39,3.764,0a29.535,29.535,0,0,1,6.588,1.56c3.449,1.12,3.541,4.05,7.213,2.921s5.611-2.943,7.48-7.437,1.182-6.144,0-10.538-3.926-2.925-4.732-7.041-1.043-5.038,1.5-9.423,4.029-3.057,8.682-8.117,7.439-5.913,9.92-12.125,1.889-6.314,0-12.72-7.158-5-7.551-12.9,1.83-10.948,5.984-18.694,6.775-5.024,10.629-12.29,2.045-9.967,4.779-16.773,1.625-4.72,6.164-10.448,8.424-9.042,11.994-12.465,2.275-5.718,2.848-3.412-.146,8.857,1.242,12.279,3.416,1.127,4.8,3.6-1.1,3.72,0,6.332,2.668,1.81,4.213,4.116-.152,2.1,2.625,5.4,5.281,4.969,7.615,7.807-2.256,5.048,0,3.562,4.611-5.315,9.021-9.508S-22322.58,3930.555-22321.824,3930.555Z" transform="translate(23998.641 -3530)"/>
    <path id="Path_5125" data-name="Path 5125" class="cls-1" d="M-22392.52,3918.233c2.494-2.16,3.092-.46,8.355-3.121s11.082-6.582,11.082-4.422-7.023,7.993-11.082,14.159-3.062,5.216-5.152,10.5-.363,5.842-3.2,10.647-4.158,2.381-8.156,8.574-5.59,9.138-7.836,16.2-1.578,6.472-1.152,12.049,2.145,5.478,2.859,10.26,2.867,4.2,0,8.868-7.053,4.952-11.469,9.785-3.693,3.772-6.2,9.547-2.861,7.99-3.816,13.554,1.977,5.922,0,8.7-4.414,1.051-7.908,2.419a28.233,28.233,0,0,0-6.066,3.055c-3.018,1.74-3.7,3.641-6,3.905s-2.4-.5-3.2-2.848a9.2,9.2,0,0,1,0-6.531c.8-2.181,3.2-.464,3.2-2.193s-1.461-2.419-3.2-4.726-2.043-.934-3.742-4.5-3.7-6.095-3.051-9.771,4.879-2.283,5.641-4.936-2.879-1.81-2.59-5.675.813-5.564,3.742-9.785,4.158-4.881,7.975-7.1,2.246.13,7.291-1.771,6.783-.03,11.725-9.152,3.625-16.227,8.041-27.337,4.721-10.788,9.625-17.1,6.422-4.494,9.992-8.154,1.313-10,1.313-10A13.855,13.855,0,0,1-22392.52,3918.233Z" transform="translate(24000 -3530)"/>
    <g id="Group_356" data-name="Group 356">
      <path id="Path_5126" data-name="Path 5126" class="cls-1" d="M-22300.068,3951.693c-2.045,1.126-1.061,5.691,0,7.588s2.2-1.479,4.242,0,2.951,3.1,3.936,5.914.984-.05,0,5.333-2.951,5.608-3.936,16.2a116.313,116.313,0,0,0,0,26.169c.984,10.344.6,8.117,3.936,15.206s8.227,7.459,9.391,13.148-2.385,2.688-4.732,9.609-4.658,9.835-4.658,18.075a28.852,28.852,0,0,0,4.658,14.885l4.732-3.18v-8.372s-3.008-9.039,0-6.86,2.2,5.076,4.7,11.134,2.525,10.848,5.273,13.1,10.99,0,10.99,0,6.5-2.033,6.5-9-2.129-12.354-6.5-18.867-10.225-2.054-10.99-7.185,5.182-5.911,7.93-13.338,5.043-4.413,3.061-16.37-8.242-20.484-10.99-31.456,0-5.372,0-12.43,1.318-15.8,0-15.8-3.955,7.648-5.273,15.8,0,8.837,0,16.813V4012.9c0,6.768,2.357,10.385,0,11.984s-7.07,3.95-9.428-5.589,0-19.04,0-32.565,1.164-13.546,0-21.534-1.449-7.044-4.658-10.419S-22298.023,3950.567-22300.068,3951.693Z" transform="translate(24000 -3530)"/>
      <g id="Group_355" data-name="Group 355" transform="translate(-44 -11.274)">
        <g id="Group_354" data-name="Group 354" transform="translate(1586.408 287.777)">
          <path id="Path_5105" data-name="Path 5105" class="cls-1" d="M-22352.352,3894.207l2.391-2.828,9.344-4.735a26.121,26.121,0,0,1,8.129,0,30.673,30.673,0,0,1,8.023,2.925s3.848-.08,3.848-1.423-.879-2.961-3.848-3.949-8.023,0-8.023,0h-6.582Z" transform="translate(22458.947 -3804.245)"/>
          <path id="Path_5106" data-name="Path 5106" class="cls-1" d="M-22304.371,3888.985l9.637-2.02c2.406-.505,5.27,0,7.027,0s3.8,2.02,3.8,2.02l1.637-2.02-5.441-2.767h-12.32c-1.738,0-4.344,2.767-4.344,2.767Z" transform="translate(22458.666 -3804.247)"/>
          <path id="Path_5107" data-name="Path 5107" class="cls-2" d="M-22345.746,3899.937l5.184-2.017a15.721,15.721,0,0,1,5.645-2.653c3.1-.663,4.156-.663,6.758,0a5.93,5.93,0,0,1,3.652,2.653s-2.734,1.513-3.652,2.017a42.5,42.5,0,0,1-4.76,1.573h-5.7Z" transform="translate(22458.906 -3804.31)"/>
          <path id="Path_5104" data-name="Path 5104" class="cls-1" d="M-22396.664,3918.189l-5.437,1.639c-1.359.41-4.316,2.694-5.75,3.593s-4.434,0-5.922,0c-1.473,0-1.73-3.924-2.312-5.231s6.176-7.409,8.234-9.879,2.473-7.462,3.289-9.95-2.469-3.776-3.289-5.035-12.211,0-16.281,0-5.023-6.171-6.7-8.229,0-12.407,0-16.542,7.5-10.715,10.008-14.288,6.727-7.6,8.965-10.132,4-11.212,4-11.212,5.617-7.35,7.488-9.8,18.457-13.024,18.457-13.024l8.871-1.717,27.91-2.775,10.746-1.827h8.348l3.082,1.827h21.648c5.41,0,6.922,3.368,9.238,4.492s4.8,5.463,6.391,7.285,6.656,4.3,8.879,5.739,7.957,4.614,10.605,6.151,2.758,7.4,3.672,9.868-1.4,7-1.871,9.333-5.609,9.549-7.48,12.733-1.461,5.51-1.949,7.348,5.727,1.4,7.629,1.862,3.785,4.907,5.043,6.542-3.242,4.228-3.242,4.228l-5.609,3.911c-1.41.978-6.512,2.484-8.684,3.313a10.933,10.933,0,0,0-3.918,3.025v-8.571s-7.105-7.776-9.465-10.369-6.93-2.955-9.238-3.94-13.754,0-18.336,0h-16.578c-4.148,0-9.77,2.955-13.027,3.94s-5.031,3.348-6.7,4.463c-1.684,1.116-1.715,6.1-2.285,8.139s-2.4,6.173-3.2,8.229-1.02,5.822-1.359,7.762-6.133,3.936-8.176,5.249-8.215,3.721-10.953,4.961S-22396.664,3918.189-22396.664,3918.189Z" transform="translate(22459.406 -3803.778)"/>
          <path id="Path_5108" data-name="Path 5108" class="cls-1" d="M-21164.213,3893.246h2.41v2.614h5.584v-4.888h-2.971Z" transform="translate(21283.873 -3799.316)"/>
          <path id="Path_5109" data-name="Path 5109" class="cls-2" d="M-21129.43,3885.928s-1.076,1.249,0,3.458a27.41,27.41,0,0,0,4.3,5.378s1.318,6.022,1.758,8.739,0,1.14,0,2.129-.65.443,0,1.826a25.889,25.889,0,0,0,2.6,3.708,16.691,16.691,0,0,1,1.867,3.375c.467,1.208-.75,3.388-1.867,5.024s-.436,1.14-2.6,1.521a30,30,0,0,1-6.062,0s1.529-2.921,0-3.895-3.508-.594-6.117,0-4.316,1.781-4.316,2.374,2.383.594,4.316,0,2.564-1.781,3.42-2.374" transform="translate(21283.727 -3799.287)"/>
          <path id="Path_5110" data-name="Path 5110" class="cls-2" d="M-21187.619,3896.548v11.465c0,2.866,3.957,3.965,5.279,5.286s0,3.994,0,5.324,3.355,3.164,4.482,4.218,1.352,3.888,1.8,5.184,2.85,2.871,3.8,3.828,3.412,3.144,4.553,4.192,0,2.969,0,3.957,5.893-6.112,7.854-8.149,4.725-4.672,6.3-6.231,3.945-1.031,6.068-2.781,1.818-1.833,2.424-4.218,0-3.992,0-5.324,3.561-2.423,3.561-2.423h4.365" transform="translate(21284.006 -3799.348)"/>
          <path id="Path_5111" data-name="Path 5111" class="cls-1" d="M-21121.318,3921.24s2.51,1.955,3.342,2.607,5.57,1.555,5.57,1.555v-6.858c0-1.714,2.775-3.355,2.775-3.355v-25.1l4.07-6.649-1.336,6.649,1.336,4.756s5.5,8.91,7.338,11.879,2.9,14.521,2.9,14.521v15.523l8.754,9.626s3.143,7.817,4.2,10.422,2.191,9.458,2.191,9.458l9.533,11.994-11.725-11.994s-3.15-7.093-4.2-9.458a85.727,85.727,0,0,0-4.838-7.962s-5.115-5.284-6.82-7.581-2.244-8.883-2.244-8.883h-5.094l-4.07-6.985-2.775,1.544Z" transform="translate(21283.621 -3799.272)"/>
          <path id="Path_5112" data-name="Path 5112" class="cls-2" d="M-21168.955,3890.954a48.633,48.633,0,0,1,8.818-3.313c3.777-.828,3.268-.828,6.287,0a16.966,16.966,0,0,1,5.789,3.313" transform="translate(21283.9 -3799.296)"/>
          <path id="Path_5113" data-name="Path 5113" class="cls-2" d="M-21126.619,3890.959a5.315,5.315,0,0,1,3.287-2.342,10.742,10.742,0,0,1,6.08,0,4.058,4.058,0,0,1,2.832,2.342s-1.469,3.188-2.832,4.251-1.1,0-2.621,0h-3.459" transform="translate(21283.65 -3799.302)"/>
          <path id="Path_5114" data-name="Path 5114" class="cls-2" d="M-21129.291,3887.632a16.621,16.621,0,0,0,4.564,0,5.985,5.985,0,0,0,2.959-1.52" transform="translate(21283.668 -3799.287)"/>
          <path id="Path_5115" data-name="Path 5115" class="cls-1" d="M-21120.508,3889.267s1.078,2.044,1.438,2.728-1.078,1.365-1.437,1.819-1.781,0-2.373,0-1.172-1.365-1.559-1.819,0-1.264,0-1.686v-1.042C-21124.439,3889.005-21120.508,3889.267-21120.508,3889.267Z" transform="translate(21282.639 -3799.305)"/>
          <path id="Path_5116" data-name="Path 5116" class="cls-3" d="M-21221.3,3925.785h0" transform="translate(21284.203 -3799.519)"/>
          <path id="Path_5117" data-name="Path 5117" class="cls-2" d="M-21071.621,3977.366s2.535,4.052,3.375,5.4,0,6.06,0,8.081,1.461,3.912,1.941,5.216,4.225,6.575,5.629,8.766-1.061,9.909-1.418,13.211-3.16,6.288-4.211,8.383-2.527,5.9-3.371,7.872-7.721,7.8-10.295,10.4-1.875,3.9-2.5,5.207,2.912,3.445,3.883,4.595,5.229,0,6.969,0h7.563c1.895,0,2.539,2.606,3.383,3.475s0,4.3,0,5.732-2.535,3.911-3.383,5.216-3.137,2.265-4.187,3.021-6.281,1.4-8.373,1.87-6.105,0-8.145,0-2.291,3.584-3.053,4.779-4.521,3.3-6.029,4.4-3.738,0-4.982,0,0-3.3,0-4.4-2.023-7.253-2.7-9.67-4.225-4.929-5.639-6.572-1.486-4.644-1.986-6.193-2.518,7.577-3.357,10.1,0,7.554,0,7.554v1.036s-1.98.976-3.953,1.911-2.949,1.374-3.936,1.832,0,4.4,0,4.4h0c-.887.989-1.568,5.547-4.064,6.631s-4.582-2.3-5.918-2.3,4.033-1.176,3.5-2.26-3.721,0-5.643-2.076-2.045-6.229-2.045-6.229-1.289.448-3.578,1.454-5.574,2.57-5.574,2.57a14.177,14.177,0,0,1-2.93,2.205c-1.223.551-1.1.551-1.961,0a5.4,5.4,0,0,1-1.461-2.205l3.422-2.192-1.961-1.832-2.955-2.947s1.963-1.4,1.494-1.87-2.525,0-3.367,0-3.178-1.6-4.238-3.021.711-1.358,0-2.663-1.148-1.576-2.842-2.553-3.932-.717-3.932-1.356,2.947-.9,3.932-1.2,1.072-1.926,2.842-3.174,3.984-.113,4.238-1.817-2.42-3.75-3.225-5-16.516-8.627-11.613-10.081,3.826,5.11,3.826,5.11-1.408,2.789-1.879,3.719-3.354,3.445-4.473,4.595c-.125.13-3.637,6.879-4.531,7.851-1.006,1.093-2.973-2.845-5.652-1.2s-7.557,7.774-7.557,7.774-5.748,4.883-6.395,5.927-7.088,3.365-7.088,3.365-9.979,1.1-16.109,0-3.742-3.3-8.41-4.4-7.7,0-10.262,0-5.2-2.357-6.926-3.142-2.365-2.331-2.635-4.412-3.119-2.632-4.334-3.91-2.441.346-3.785-1.2-1.594-4.991-1.594-4.991a3.691,3.691,0,0,1-2.309-1.658,28.1,28.1,0,0,1-2.432-4.595c-.609-1.149-.723.009-2.617,1.252s-4.748.929-7.578,0-2.023-.154-3.738-3.714-3.127-8.437-3.127-10.525,1.865,2.17,3.127,2.17a1.933,1.933,0,0,0,1.916-2.17c0-1.2-.654-1.2-1.916-2.618s-2.07-1.081-3.127-3.049-.189-3.367-1.111-4.823-1.166,1.094-2.568-1-3.031-4.94-3.031-7.381,3.031-2.38,3.031-2.38,2.76,1.605,3.68,0,.92-3.982,0-6.421-3.68-1.307-3.68-3.337,2.76-2.321,3.68-4.781a8.259,8.259,0,0,0,0-5.057s4.258-4.909,6.865-6.544,1.67.915,3.564,0a15.248,15.248,0,0,0,4.014-3.661s8.156-1.915,10.957-5.178,1.33-1.582,2.857-6.349,1.506-6.269,3.256-12.72,3.752-13.083,3.752-13.083,4.863-8.886,5.809-9.889,1.2-3.937,4.342-7.447a42.856,42.856,0,0,1,8.215-6.592l3.262-6.172v-4.459" transform="translate(21284.594 -3799.451)"/>
          <path id="Path_5118" data-name="Path 5118" class="cls-1" d="M-21147.937,3937.377a15.781,15.781,0,0,1,3.029-3.342c1.533-1.109,1.2-.82,3.1-1.094s2.883.27,4.514,0,1.131-1.079,2.012-1.079.465,1.079,1.512,1.079.984-.809,2.676-1.079a20.755,20.755,0,0,1,4.094,0h2.9l-2.9,2.173a8.129,8.129,0,0,1-4.094,1.394h-12.648Z" transform="translate(21285.773 -3799.555)"/>
          <path id="Path_5119" data-name="Path 5119" class="cls-1" d="M-21136.857,3940.319h0c-4.416-1.323-3.713-1.451-1.316-1.153,2.236.274,4.377,1.24,6.828,1.153s2.975-1.5,2.975-1.5a12.528,12.528,0,0,1,3.838-2.53c1.889-.632,1.824.432,3.719,0s2.893-2.359,3.857-1.727,0,4.257,0,4.257a4.308,4.308,0,0,1-2.668,1.5c-1.895.375-3.105-.263-4.908,0s-1.725.788-2.3,1.05" transform="translate(21283.732 -3799.571)"/>
          <path id="Path_5120" data-name="Path 5120" class="cls-2" d="M-21158.445,3898.463a20.528,20.528,0,0,0,5.395,0c1.842-.444.973-1.024,1.975-1.774a12.664,12.664,0,0,1,2.037-1.226" transform="translate(21283.834 -3799.342)"/>
          <path id="Path_5121" data-name="Path 5121" class="cls-1" d="M-21153.73,3887.576c0-1.111,4.789-2.622,4.789-2.622l3.072-1.973h2.77a30.765,30.765,0,0,0,1.711-4.245c.428-1.624-.437-2.251,0-2.251s1.311,1.126,1.748,2.251.865.694,0,2.249a13.564,13.564,0,0,1-3.459,3.969c-1.287.992-1.689,0-1.689,0s-.811.32-1.08,2.622.768,3.685,0,6.585-1.578,3.333-3.072,5.019-1.244,1.293-2.9,1.724-3.73.431-3.73,0,1.609-.039,3.73-1.724,3.566-2.573,4.754-5.019a4.737,4.737,0,0,0,0-4.764c-.463-1.191-.191.456-1.852,0S-21153.73,3888.687-21153.73,3887.576Z" transform="translate(21283.822 -3799.231)"/>
        </g>
        <path id="Path_5123" data-name="Path 5123" class="cls-1" d="M-22311.7,3919.014l2.361-1.637a33.614,33.614,0,0,0,4.438-3.076,24.8,24.8,0,0,0,3.773-4.016c1.791-2.092,4.336-4.353,3.393-4.353s-7.166,4.353-7.166,4.353-5.1,2.345-6.8,4.016,0,.828,0,2.668v4.693a4.777,4.777,0,0,0-3.463,2.563c-.865,2.151.887,3.294,0,6.041a12.616,12.616,0,0,1-3.549,4.944l-1.426,6.632s-2.3,3.569-4.375,6.979-2.949,2.114-3.934,6.661.852,5.648,0,11.525-3.936,8.605-3.408,11.985,3.68-.045,5.516,1.534.275-.8,1.826,4.783,4.375,17.536,4.375,17.536l-2.721,12.946,2.721,5.177,8.438,12.763a9.556,9.556,0,0,0-3.463,3.746c-.865,2.161-3.234-.088-4.975,1.713s-7.066,5.046-6.2,6.051,6.2,7.843,6.2,7.843a13.538,13.538,0,0,1,4.975,2.853c1.74,1.848.8,3.93,1.984,4.538s-.074,2.821,1.479,4.619.8,3.727,4.73,2.572,8.234-.073,10.979-7.191,1.283-13.246,0-21.284-2.908-8.151-5.137-10.868-2.832,0-3.773,0-6.209-3.792-8.277-7.354,1.383-.974,0-6.895-4.15-8.4-5.533-16.789a58.5,58.5,0,0,1,0-16.758s-3.111-10.14-4.146-13.52,2.223-1.116,4.146-6.311,1.8-8.874,3.549-14.467,2.6-3.914,3.463-7.9-.691-4.938,0-8.06a7.2,7.2,0,0,1,2.764-4.425h-2.764" transform="translate(24032.859 -3494.593)"/>
      </g>
      <path id="Path_5130" data-name="Path 5130" class="cls-1" d="M-22307.225,3875.814c0,.867,1.623,2.363,1.623,5.636s-1.623,6.877-1.623,7.455,1.623-5.145,1.623-5.145,2.525,2.212,2.963,1.635-1.213-1.55-1.213-3.945a20.055,20.055,0,0,1,1.213-5.636l-2.963,2.168S-22307.225,3874.948-22307.225,3875.814Z" transform="translate(23997 -3527)"/>
    </g>
  </g>
</svg>
