<?xml version="1.0" encoding="utf-8"?>
<!-- Generator: Adobe Illustrator 16.0.0, SVG Export Plug-In . SVG Version: 6.00 Build 0)  -->
<!DOCTYPE svg PUBLIC "-//W3C//DTD SVG 1.1//EN" "http://www.w3.org/Graphics/SVG/1.1/DTD/svg11.dtd">
<svg version="1.1" id="Layer_1" xmlns="http://www.w3.org/2000/svg" xmlns:xlink="http://www.w3.org/1999/xlink" x="0px" y="0px"
	 width="38px" height="38px" viewBox="0 0 38 38" enable-background="new 0 0 38 38" xml:space="preserve">
<path fill-rule="evenodd" clip-rule="evenodd" fill="#C33C30" d="M33.926,16.081c-0.085-0.8-0.239-1.581-0.45-2.354
	c-0.366-1.347-0.966-2.592-1.732-3.746c-0.715-1.075-1.577-2.03-2.58-2.86c-0.925-0.765-1.923-1.403-3.007-1.905
	c-1.795-0.831-3.68-1.254-5.709-1.213c-0.418,0.035-0.882,0.001-1.351,0.049c-0.908,0.094-1.789,0.281-2.66,0.545
	c-1.365,0.414-2.61,1.058-3.777,1.872c-1.043,0.727-1.952,1.601-2.743,2.584c-0.814,1.013-1.463,2.135-1.955,3.345
	c-0.526,1.294-0.854,2.639-0.94,4.025c-0.051,0.819-0.054,1.648,0.036,2.475c0.097,0.897,0.273,1.771,0.534,2.632
	c0.46,1.518,1.198,2.895,2.148,4.154c0.163,0.217,0.092,0.281-0.045,0.417c-1.733,1.729-3.463,3.459-5.192,5.19
	c-0.324,0.325-0.507,0.701-0.5,1.182c0.01,0.604,0.239,1.066,0.78,1.337c0.538,0.27,1.085,0.257,1.591-0.082
	c0.466-0.313,0.816-0.757,1.21-1.148c1.446-1.436,2.883-2.881,4.327-4.318c0.073-0.072,0.116-0.237,0.301-0.091
	c0.982,0.782,2.068,1.389,3.229,1.864c1.273,0.521,2.603,0.839,3.969,0.924c0.819,0.051,1.648,0.053,2.475-0.035
	c0.907-0.098,1.79-0.278,2.66-0.542c1.355-0.41,2.595-1.051,3.755-1.854c1.044-0.723,1.954-1.596,2.747-2.58
	c0.81-1.005,1.453-2.118,1.95-3.314c0.54-1.3,0.869-2.654,0.962-4.049C34.015,17.757,34.015,16.917,33.926,16.081z M27.573,25.169
	c-1.982,1.855-4.387,2.794-7.085,2.783c-3.019-0.012-5.62-1.147-7.676-3.38c-2.027-2.201-2.939-4.834-2.742-7.819
	c0.182-2.75,1.33-5.071,3.338-6.943c1.987-1.853,4.389-2.791,7.086-2.782c3.02,0.009,5.621,1.148,7.676,3.382
	c1.827,1.985,2.766,4.35,2.762,8.111C30.92,20.528,29.785,23.098,27.573,25.169z"/>
</svg>
