<?xml version="1.0" standalone="no"?>
<!DOCTYPE svg PUBLIC "-//W3C//DTD SVG 20010904//EN"
 "http://www.w3.org/TR/2001/REC-SVG-20010904/DTD/svg10.dtd">
<svg version="1.0" xmlns="http://www.w3.org/2000/svg"
 width="900.000000pt" height="900.000000pt" viewBox="0 0 900.000000 900.000000"
 preserveAspectRatio="xMidYMid meet">
<metadata>
Created by potrace 1.11, written by Peter Selinger 2001-2013
</metadata>
<g transform="translate(0.000000,900.000000) scale(0.100000,-0.100000)"
fill="#000000" stroke="none">
<path d="M364 8989 c-52 -6 -110 -49 -128 -94 -13 -29 -14 -649 -13 -4404 l2
-4369 30 -44 c55 -78 35 -75 562 -74 530 1 519 0 563 79 l24 42 1 4373 1 4373
-22 33 c-12 17 -41 45 -65 60 l-42 28 -436 2 c-240 0 -455 -1 -477 -5z"/>
<path d="M2293 8970 c-100 -43 -121 -58 -161 -118 -66 -98 -92 -178 -96 -292
-1 -25 1 -54 5 -65 6 -20 15 -20 1222 -20 846 0 1218 3 1221 10 16 42 -17 233
-54 321 -24 56 -115 134 -192 164 l-63 25 -911 0 -912 0 -59 -25z"/>
<path d="M5572 8985 c-53 -12 -146 -56 -210 -100 -41 -28 -169 -152 -183 -176
-5 -10 -21 -67 -35 -126 l-26 -108 -5 -1210 c-2 -665 -5 -2447 -6 -3960 -2
-2629 -1 -2753 16 -2810 10 -33 20 -71 23 -85 11 -54 45 -109 125 -204 l84
-98 120 -44 120 -44 1371 0 1371 0 89 46 c104 53 135 76 210 152 84 85 100
111 119 186 9 38 20 79 23 90 4 12 8 722 9 1580 l3 1558 -23 22 c-43 39 -181
161 -287 255 -58 52 -121 108 -140 125 -51 46 -134 121 -225 201 -43 39 -88
79 -100 90 -13 11 -73 65 -134 119 -120 106 -117 101 -71 146 3 3 32 36 65 75
33 38 69 79 80 90 11 11 52 56 90 100 39 44 86 98 105 119 19 22 44 49 55 61
11 13 45 51 75 85 30 35 59 68 65 74 5 6 62 69 125 141 63 71 122 137 130 145
23 25 134 151 164 186 l26 32 0 1390 c0 1568 7 1420 -80 1587 -42 81 -89 136
-191 226 -49 42 -69 52 -140 70 -83 22 -94 22 -1419 24 -1003 1 -1348 -1
-1388 -10z"/>
<path d="M2030 8020 l0 -270 1228 2 1227 3 2 268 1 267 -1229 0 -1229 0 0
-270z"/>
<path d="M2030 4512 l0 -3038 1229 0 1230 0 -1 3038 -1 3038 -1228 0 -1229 0
0 -3038z"/>
<path d="M2040 1262 c-6 -2 -10 -100 -10 -266 l0 -263 1228 0 1229 0 1 264 c0
195 -2 263 -11 264 -45 2 -2429 3 -2437 1z"/>
<path d="M2049 501 c-8 -147 16 -234 98 -359 31 -46 47 -58 121 -94 l86 -42
915 0 915 -1 65 27 c81 34 162 103 188 160 40 84 73 278 56 324 -3 9 -317 12
-1224 12 l-1219 0 -1 -27z"/>
</g>
</svg>
