<svg id="Capa_1" enable-background="new 0 0 512 512" height="512" fill="#001c58" viewBox="0 0 512 512" width="512" xmlns="http://www.w3.org/2000/svg"><g><g><g><g><g><g><g><g><g><g><g><path d="m64.232 117.477v-86.924c0-8.765-5.136-16.814-13.085-20.508-7.952-3.694-17.414-2.427-24.113 3.227l-14.317 12.082c-4.616 3.896-7.439 9.356-7.948 15.375s1.355 11.876 5.251 16.492c2.428 2.877 5.535 5.081 8.986 6.445v53.811c-10.761 1.732-19.006 11.085-19.006 22.326 0 12.469 10.144 22.614 22.613 22.614h38.011c12.469 0 22.613-10.145 22.613-22.614 0-11.241-8.244-20.594-19.005-22.326zm-3.608 29.94h-38.011c-4.198 0-7.613-3.416-7.613-7.614s3.416-7.613 7.613-7.613h3.892c4.142 0 7.5-3.358 7.5-7.5v-66.961c0-3.989-3.122-7.28-7.105-7.49-2.122-.112-4.046-1.068-5.417-2.692-1.312-1.554-1.939-3.526-1.768-5.553s1.122-3.864 2.676-5.176l14.317-12.083c2.256-1.902 5.442-2.329 8.119-1.086 2.676 1.243 4.405 3.954 4.405 6.904v94.136c0 4.142 3.358 7.5 7.5 7.5h3.892c4.198 0 7.613 3.416 7.613 7.613 0 4.199-3.415 7.615-7.613 7.615z"/><path d="m152.658 38.167h-10.266c-9.97 0-18.082 8.111-18.082 18.082v57.859c0 9.971 8.112 18.082 18.082 18.082h10.266c9.971 0 18.082-8.111 18.082-18.082v-57.859c0-9.971-8.111-18.082-18.082-18.082zm3.082 75.94c0 1.699-1.383 3.082-3.082 3.082h-10.266c-1.699 0-3.082-1.383-3.082-3.082v-57.858c0-1.699 1.383-3.082 3.082-3.082h10.266c1.699 0 3.082 1.382 3.082 3.082z"/><path d="m200.967 56.249c0-26.638-21.671-48.309-48.309-48.309h-10.266c-26.638 0-48.309 21.671-48.309 48.309v57.859c0 26.638 21.671 48.309 48.309 48.309h10.266c26.638 0 48.309-21.671 48.309-48.309zm-15 57.858c0 18.367-14.942 33.309-33.309 33.309h-10.266c-18.367 0-33.309-14.942-33.309-33.309v-57.858c0-18.366 14.942-33.309 33.309-33.309h10.266c18.367 0 33.309 14.942 33.309 33.309z"/><path d="m214.071 139.803c0 12.469 10.144 22.614 22.613 22.614h38.011c12.469 0 22.613-10.145 22.613-22.614 0-11.241-8.244-20.593-19.005-22.326v-86.924c0-8.765-5.136-16.814-13.086-20.508-7.95-3.692-17.414-2.426-24.112 3.227l-14.318 12.083c-4.616 3.896-7.439 9.355-7.948 15.375s1.355 11.876 5.251 16.492c2.428 2.877 5.535 5.081 8.986 6.445v53.811c-10.76 1.731-19.005 11.084-19.005 22.325zm26.9-89.564c-2.122-.112-4.046-1.068-5.417-2.692-1.312-1.554-1.939-3.526-1.768-5.553.172-2.026 1.122-3.865 2.676-5.176l14.318-12.083c2.254-1.903 5.442-2.331 8.119-1.086 2.676 1.243 4.405 3.954 4.405 6.904v94.136c0 4.142 3.357 7.5 7.5 7.5h3.892c4.198 0 7.613 3.416 7.613 7.613 0 4.198-3.415 7.614-7.613 7.614h-38.011c-4.198 0-7.613-3.416-7.613-7.614s3.416-7.613 7.613-7.613h3.892c4.142 0 7.5-3.358 7.5-7.5v-66.96c0-3.989-3.122-7.28-7.106-7.49z"/><path d="m356.463 162.417h10.267c26.638 0 48.309-21.671 48.309-48.309v-57.859c0-26.638-21.671-48.309-48.309-48.309h-10.267c-26.638 0-48.309 21.671-48.309 48.309v57.858c0 26.638 21.671 48.31 48.309 48.31zm-33.309-106.168c0-18.367 14.942-33.309 33.309-33.309h10.267c18.366 0 33.309 14.942 33.309 33.309v57.858c0 18.367-14.942 33.309-33.309 33.309h-10.267c-18.366 0-33.309-14.942-33.309-33.309z"/><path d="m356.463 132.189h10.267c9.971 0 18.082-8.111 18.082-18.082v-57.858c0-9.971-8.111-18.082-18.082-18.082h-10.267c-9.971 0-18.082 8.111-18.082 18.082v8.976c0 4.142 3.357 7.5 7.5 7.5s7.5-3.358 7.5-7.5v-8.976c0-1.699 1.383-3.082 3.082-3.082h10.267c1.699 0 3.082 1.383 3.082 3.082v57.858c0 1.699-1.383 3.082-3.082 3.082h-10.267c-1.699 0-3.082-1.383-3.082-3.082v-11.856c0-4.142-3.357-7.5-7.5-7.5s-7.5 3.358-7.5 7.5v11.856c0 9.971 8.111 18.082 18.082 18.082z"/><path d="m64.232 288.299v-30.934c0-4.142-3.358-7.5-7.5-7.5s-7.5 3.358-7.5 7.5v38.146c0 4.142 3.358 7.5 7.5 7.5h3.892c4.198 0 7.613 3.416 7.613 7.614s-3.416 7.613-7.613 7.613h-38.011c-4.198 0-7.613-3.416-7.613-7.613 0-4.198 3.416-7.614 7.613-7.614h3.892c4.142 0 7.5-3.358 7.5-7.5v-66.961c0-3.989-3.122-7.28-7.105-7.49-2.122-.112-4.046-1.068-5.417-2.692-1.312-1.554-1.939-3.526-1.768-5.553.171-2.026 1.122-3.864 2.676-5.176l14.317-12.083c2.255-1.903 5.443-2.329 8.119-1.086s4.405 3.954 4.405 6.904v18.964c0 4.142 3.358 7.5 7.5 7.5s7.5-3.358 7.5-7.5v-18.964c0-8.765-5.136-16.814-13.086-20.508-7.948-3.691-17.413-2.425-24.112 3.227l-14.316 12.083c-4.617 3.895-7.44 9.355-7.949 15.375s1.355 11.876 5.251 16.492c2.428 2.877 5.535 5.081 8.986 6.445v53.811c-10.761 1.732-19.006 11.084-19.006 22.326 0 12.469 10.144 22.613 22.613 22.613h38.011c12.469 0 22.613-10.144 22.613-22.613 0-11.242-8.244-20.594-19.005-22.326z"/><path d="m64.232 459.121v-86.923c0-8.765-5.136-16.815-13.086-20.509-7.948-3.691-17.413-2.425-24.112 3.227l-14.317 12.083c-9.529 8.042-10.739 22.337-2.698 31.866 2.428 2.877 5.535 5.081 8.986 6.445v53.811c-10.76 1.732-19.005 11.084-19.005 22.326 0 12.469 10.144 22.613 22.613 22.613h38.011c12.469 0 22.613-10.144 22.613-22.613 0-11.242-8.244-20.594-19.005-22.326zm-3.608 29.939h-38.011c-4.198 0-7.613-3.416-7.613-7.613 0-4.198 3.416-7.614 7.613-7.614h3.892c4.142 0 7.5-3.358 7.5-7.5v-66.96c0-3.988-3.122-7.279-7.104-7.49-2.123-.112-4.047-1.068-5.418-2.692-2.707-3.208-2.3-8.021.909-10.729l14.317-12.083c2.255-1.903 5.443-2.33 8.119-1.086 2.676 1.243 4.405 3.954 4.405 6.905v94.136c0 4.142 3.358 7.5 7.5 7.5h3.892c4.198 0 7.613 3.416 7.613 7.614-.001 4.197-3.416 7.612-7.614 7.612z"/><path d="m158.315 459.121v-86.923c0-8.765-5.136-16.815-13.086-20.509-7.949-3.691-17.413-2.425-24.112 3.227l-14.317 12.082c-4.616 3.896-7.439 9.356-7.949 15.375-.509 6.019 1.355 11.875 5.251 16.491 2.428 2.877 5.535 5.081 8.986 6.445v53.811c-10.76 1.732-19.005 11.084-19.005 22.326 0 12.469 10.144 22.613 22.613 22.613h38.011c12.469 0 22.613-10.144 22.613-22.613 0-11.241-8.244-20.593-19.005-22.325zm-3.608 29.939h-38.011c-4.198 0-7.613-3.416-7.613-7.613 0-4.198 3.416-7.614 7.613-7.614h3.892c4.142 0 7.5-3.358 7.5-7.5v-66.96c0-3.988-3.122-7.279-7.104-7.49-2.123-.112-4.047-1.068-5.418-2.692-1.312-1.554-1.939-3.526-1.768-5.553.171-2.026 1.122-3.864 2.676-5.176l14.317-12.083c2.256-1.903 5.443-2.33 8.119-1.086 2.676 1.243 4.405 3.954 4.405 6.905v94.136c0 4.142 3.358 7.5 7.5 7.5h3.892c4.198 0 7.613 3.416 7.613 7.614 0 4.197-3.415 7.612-7.613 7.612z"/><path d="m167.569 288.299v-86.924c0-8.765-5.136-16.814-13.086-20.508-7.948-3.691-17.413-2.425-24.112 3.227l-14.317 12.083c-4.616 3.896-7.439 9.355-7.949 15.375-.509 6.019 1.355 11.876 5.251 16.492 2.428 2.877 5.535 5.081 8.986 6.445v53.811c-10.76 1.732-19.005 11.084-19.005 22.326 0 12.469 10.144 22.613 22.613 22.613h38.011c12.469 0 22.613-10.144 22.613-22.613 0-11.243-8.244-20.595-19.005-22.327zm-3.608 29.939h-38.011c-4.198 0-7.613-3.416-7.613-7.613 0-4.198 3.416-7.614 7.613-7.614h3.892c4.142 0 7.5-3.358 7.5-7.5v-66.961c0-3.989-3.122-7.28-7.105-7.49-2.122-.112-4.046-1.068-5.417-2.692-1.312-1.554-1.939-3.526-1.768-5.553s1.122-3.864 2.676-5.176l14.317-12.083c2.256-1.903 5.443-2.329 8.119-1.086s4.405 3.954 4.405 6.904v94.136c0 4.142 3.358 7.5 7.5 7.5h3.892c4.198 0 7.613 3.416 7.613 7.614 0 4.199-3.415 7.614-7.613 7.614z"/><path d="m428.763 139.803c0 12.469 10.145 22.614 22.613 22.614h38.011c12.469 0 22.613-10.145 22.613-22.614 0-11.241-8.244-20.593-19.005-22.326v-86.924c0-8.765-5.136-16.814-13.086-20.508-7.95-3.691-17.414-2.426-24.112 3.227l-14.317 12.083c-9.529 8.041-10.739 22.336-2.697 31.867 2.429 2.877 5.534 5.081 8.985 6.444v53.812c-10.761 1.731-19.005 11.084-19.005 22.325zm26.899-89.564c-2.122-.112-4.046-1.068-5.417-2.692-2.707-3.208-2.3-8.021.908-10.729l14.317-12.083c2.255-1.903 5.44-2.331 8.119-1.086 2.676 1.243 4.405 3.954 4.405 6.904v94.136c0 4.142 3.357 7.5 7.5 7.5h3.892c4.198 0 7.613 3.416 7.613 7.613 0 4.198-3.415 7.614-7.613 7.614h-38.011c-4.198 0-7.613-3.416-7.613-7.614s3.415-7.613 7.613-7.613h3.892c4.143 0 7.5-3.358 7.5-7.5v-66.96c.001-3.989-3.121-7.28-7.105-7.49z"/><path d="m429.754 446.438 43.176 43.176c1.465 1.465 3.384 2.197 5.304 2.197 1.919 0 3.839-.732 5.304-2.197 2.929-2.929 2.929-7.678 0-10.606l-37.032-37.033c2.83-1.582 5.463-3.556 7.819-5.911 2.379-2.379 4.339-5.02 5.9-7.824l37.041 37.041c1.465 1.464 3.385 2.197 5.304 2.197s3.839-.732 5.304-2.197c2.929-2.929 2.929-7.678 0-10.606l-43.189-43.189c.129-9.248-3.318-18.537-10.359-25.577l-7.317-7.317c7.896-13.78 13.42-29.083 16.023-45.349h.66c26.639 0 48.311-21.672 48.311-48.31v-57.86c0-26.638-21.672-48.31-48.311-48.31h-10.27c-17.963 0-34.228 9.974-42.546 25.463-18.033-13.53-39.265-22.406-61.795-25.579-4.095-.571-7.895 2.279-8.473 6.38s2.279 7.895 6.381 8.473c58.572 8.251 102.742 59.15 102.742 118.395 0 65.937-53.644 119.581-119.581 119.581s-119.581-53.644-119.581-119.581c0-58.656 43.661-109.484 101.559-118.23 4.096-.619 6.914-4.441 6.296-8.536-.619-4.096-4.443-6.914-8.536-6.296-14.909 2.252-29.235 7.012-42.418 13.961-2.133-5.168-6.134-9.491-11.365-11.92-7.957-3.703-17.424-2.432-24.11 3.227l-14.319 12.08c-4.618 3.895-7.442 9.355-7.952 15.376-.509 6.022 1.358 11.881 5.25 16.487 1.737 2.063 3.802 3.746 6.078 5.046-16.504 22.837-25.482 50.401-25.482 78.806 0 18.005 3.563 35.191 10.006 50.902-9.663 9.118-15.154 21.747-15.154 35.096v57.86c0 26.638 21.672 48.31 48.31 48.31h10.268c26.638 0 48.31-21.672 48.31-48.31v-13.337c9.677 2.436 19.766 3.82 30.141 4.025v12.68c-10.763 1.733-19.01 11.088-19.01 22.332 0 12.467 10.147 22.61 22.62 22.61h38.01c12.467 0 22.609-10.143 22.609-22.61 0-11.247-8.248-20.604-19.01-22.333v-19.533c8.463-2.826 16.555-6.467 24.181-10.837l7.315 7.316c6.698 6.694 16.114 10.371 25.588 10.371zm-205.085-233.621c.171-2.026 1.122-3.863 2.676-5.174l14.33-12.088c2.25-1.903 5.429-2.329 8.106-1.083 2.51 1.166 4.168 3.624 4.369 6.358-8.419 5.766-16.21 12.504-23.196 20.118-1.762-.296-3.348-1.191-4.516-2.578-1.312-1.554-1.94-3.526-1.769-5.553zm27.411 208.638v34.295c0 1.698-1.382 3.08-3.08 3.08h-10.27c-1.698 0-3.08-1.382-3.08-3.08v-48.134c5.097 5.032 10.588 9.664 16.43 13.839zm30.23 34.295c0 18.367-14.942 33.31-33.31 33.31h-10.27c-18.367 0-33.31-14.943-33.31-33.31v-57.86c0-7.547 2.556-14.76 7.153-20.583 2.774 4.967 5.852 9.741 9.212 14.297-.75 2.014-1.136 4.12-1.136 6.286v57.86c0 9.969 8.111 18.08 18.08 18.08h10.271c9.97 0 18.08-8.111 18.08-18.08v-25.001c4.905 2.613 9.989 4.93 15.229 6.93v18.071zm82.86 18.08h3.9c4.196 0 7.609 3.418 7.609 7.62 0 4.196-3.413 7.61-7.609 7.61h-38.01c-4.202 0-7.62-3.414-7.62-7.61 0-4.202 3.418-7.62 7.62-7.62h3.89c4.143 0 7.5-3.358 7.5-7.5v-20.425c5.162-.47 10.241-1.227 15.22-2.266v22.691c0 4.142 3.357 7.5 7.5 7.5zm78.546-77.317c7.98 7.979 7.98 20.963 0 28.943-3.864 3.865-9.004 5.994-14.471 5.994-5.468 0-10.607-2.128-14.472-5.994l-5.08-5.08c11.05-8.124 20.818-17.893 28.942-28.943zm18.878-108.503c-2.304-12.79-6.446-25.157-12.281-36.724.012-.174.027-.348.027-.526v-23.69c0-1.698 1.382-3.08 3.08-3.08h10.27c1.698 0 3.08 1.381 3.08 3.08v57.86c0 1.698-1.382 3.08-3.08 3.08zm34.406-3.08c0 18.07-14.466 32.814-32.424 33.288.098-2.097.153-4.205.153-6.326 0-2.984-.101-5.959-.297-8.919 9.624-.394 17.338-8.323 17.338-18.042v-57.86c0-9.969-8.11-18.08-18.08-18.08h-10.27c-9.97 0-18.08 8.11-18.08 18.08v.877c-1.27-1.59-2.578-3.154-3.924-4.69-2.766-3.157-5.67-6.169-8.694-9.034 5.159-12.318 17.23-20.462 30.698-20.462h10.27c18.367 0 33.311 14.943 33.311 33.31v57.858z"/><path d="m232.255 311.892c0 53.56 43.575 97.134 97.134 97.134 53.56 0 97.134-43.575 97.134-97.134s-43.574-97.134-97.135-97.134c-53.559 0-97.133 43.574-97.133 97.134zm22.145-31.432c5.448 0 9.88 4.432 9.88 9.88s-4.433 9.88-9.88 9.88h-6.301c.986-6.898 2.826-13.522 5.42-19.76zm104.02 108.25c-6.26 2.374-12.882 4.001-19.76 4.778v-14.058c0-3.985-3.116-7.274-7.095-7.489-2.761-.149-5.258-1.39-7.035-3.5-3.514-4.161-2.984-10.406 1.177-13.919l16.458-13.889c2.931-2.471 7.067-3.025 10.537-1.411 3.474 1.612 5.718 5.128 5.718 8.958zm5.35-108.25h4.48c5.442 0 9.87 4.432 9.87 9.88s-4.428 9.88-9.87 9.88h-43.71c-5.448 0-9.88-4.432-9.88-9.88s4.432-9.88 9.88-9.88h4.479c4.143 0 7.5-3.358 7.5-7.5v-42.873c6.858.593 13.474 2.031 19.75 4.212v38.661c.001 4.142 3.358 7.5 7.501 7.5zm-42.25-50.317v35.499c-12.3 1.496-21.859 12.001-21.859 24.698 0 13.719 11.161 24.88 24.88 24.88h43.71c13.714 0 24.87-11.161 24.87-24.88 0-12.696-9.556-23.202-21.851-24.698v-24.366c24.079 14.335 40.254 40.617 40.254 70.616 0 29.095-15.22 54.686-38.104 69.281v-32.993c0-9.646-5.653-18.502-14.397-22.561-8.739-4.063-19.152-2.672-26.529 3.549l-16.462 13.892c-10.482 8.852-11.811 24.579-2.966 35.054 2.833 3.361 6.512 5.889 10.595 7.362v8.328c-41.526-2.878-74.643-36.743-76.32-78.584h7.06c13.719 0 24.88-11.161 24.88-24.88 0-11.411-7.724-21.045-18.217-23.966 13.366-20 35.267-33.825 60.456-36.231z"/></g></g></g></g></g></g></g></g></g></g></g></svg>