<svg height="512" viewBox="0 0 60 59" width="512" xmlns="http://www.w3.org/2000/svg"><g id="Page-1" fill="none" fill-rule="evenodd"><g id="026---Idea" fill="#001c58" fill-rule="nonzero"><path id="Shape" d="m55.143 30.953c-.180728-.9415823-1.0042302-1.6224504-1.963-1.623h-1.931l-.142-.851c-.141662-.8547477-.8150907-1.5225343-1.671-1.657-.19-.03-.382-.05-.571-.076.3274689-1.5288062.0554127-3.1249886-.76-4.459.4308169-1.1175257.3504088-2.3676964-.2200195-3.4208244s-1.5736058-1.8034792-2.7449805-2.0531756c-.7488911-4.0080145-4.2356951-6.9214442-8.313-6.946-.1 0-.189.013-.284.016-.6515045-1.02315288-1.7256011-1.70220088-2.929298-1.85191345-1.2036969-.14971258-2.4114108.24552995-3.293702 1.07791345-1.111462-.72248434-2.4083569-1.1076628-3.734-1.109-2.1359492.00874082-4.1489959 1.00014234-5.458 2.688-1.4534677-.4238352-3.0208066-.1635964-4.2593137.7072106-1.2385071.8708071-2.0137239 2.2576432-2.1066863 3.7687894-1.5266629.641743-2.5200364 2.1359406-2.521 3.792.003134.2870658.0366541.572993.1.853-1.3501124 2.0353266-1.7029006 4.5736359-.959 6.9-.268.037-.542.07-.8.108-.86035287.129809-1.53978521.7979443-1.684 1.656l-.142.854h-1.936c-.9571508.0006578-1.77966295.679377-1.962 1.619l-4.379 22.482c-.17101461.8804657.06089033 1.7912635.6321472 2.4827341.57125686.6914705 1.42193438 1.0910707 2.3188528 1.0892659h20.854c.828 1.366 3.344 2 5.716 2 2.347 0 4.839-.619 5.691-2h20.879c.8967062.0017463 1.7471793-.3977201 2.318396-1.0889483.5712166-.6912283.8032791-1.6017364.632604-2.4820517zm-39.878-10.187c-.811938-.4881877-1.1994384-1.4573229-.9479146-2.3707266.2515237-.9134037 1.08052-1.5475526 2.0279146-1.5512734.6630417-.0019666 1.2870585.313201 1.679.848.2129303.2868843.5627369.4383793.9176511.3974184.3549143-.0409609.6610161-.2681548.803-.596.141984-.3278452.0982792-.7065341-.1146511-.9934184-.6790297-.9075527-1.708075-1.4881143-2.836-1.6.2981423-1.4004791 1.5331428-2.403058 2.965-2.407.1220124.0061884.2435554.0195448.364.04-.0804495.2050145-.150538.413945-.21.626-.1244587.5293486.1968889 1.0611281.7233961 1.1971062.5265073.1359781 1.0651711-.173691 1.2126039-.6971062.1137118-.439513.288408-.8609381.519-1.252.8870486-1.4860588 2.4873452-2.3992674 4.218-2.407.9418914.00417 1.8622497.2821189 2.649.8-.1498789.4211076-.2292778.8640519-.235 1.311 0 .5522847.4477153 1 1 1s1-.4477153 1-1c0-1.161731.941769-2.1035 2.1035-2.1035s2.1035.941769 2.1035 2.1035c0 .5522847.4477153 1 1 1s1-.4477153 1-1c0-.077-.019-.15-.023-.227 2.8633441.1766672 5.2711283 2.2120213 5.922 5.006-.4664661.1358062-.9047548.3542731-1.294.645-.2858125.2143594-.4355547.5649147-.3928203.9196152.0427344.3547006.2714531.6596589.6.8.3285469.1403412.7070078.0947442.9928203-.1196152.7991086-.5916463 1.9029846-.5444616 2.6486913.113217.7457068.6576787.9304614 1.7470062.4433087 2.613783-.217683.382746-.548483.6887447-.947.876-.4179164.2023494-.6415685.6657486-.5399835 1.1188268.1015849.4530783.5016789.776627.9659835.7811732.1466355.0002227.2914783-.0322303.424-.095.2650236-.1284335.515464-.2850007.747-.467.5169232 1.4695642.1927165 3.1040105-.846 4.265l-.024.025c-1.3027747 1.4112776-3.3809864 1.7926906-5.1.936-.1683686-.0889266-.3301196-.1898539-.484-.302.7365719-1.032642.8383019-2.3890425.264-3.52-.1607695-.3192168-.4796268-.5284158-.8364614-.5487937-.3568347-.0203779-.6974349.1511611-.8935.45s-.2178081.6795769-.0570386.9987937c.3288222.6609419.1237272 1.4630251-.482 1.885-.3557078.2368235-.7951482.3117249-1.2092239.2061089s-.7639552-.3818448-.9627761-.7601089c-.1598763-.3195741-.4780989-.5295797-.8347964-.5509098-.3566974-.02133-.6976789.149256-.8945.4475001-.1968211.298244-.21958.6788356-.0597036.9984097.5864681 1.1838838 1.7948213 1.9315427 3.116 1.928.4301201-.0029151.8558543-.086705 1.255-.247.3571725.3127.7506661.5812964 1.172.8 1.4252119.7387529 3.0825117.8919607 4.619.427-.9882273 1.3493456-2.4672193 2.2562069-4.118 2.525-.5135633.083605-.8771992.5470675-.8362143 1.0657749.040985.5187073.4728938.919311.9932143.9212251.0532255-.0000175.1063747-.0040287.159-.012.6089289-.1054158 1.2040242-.279181 1.774-.518.3080574.5446553.5580939 1.1201415.746 1.717.0344142.1042128.0519685.2132519.052.323-.0002519.4322075-.2583895.8225619-.656.992-.4599764.1779113-.9822029.0375453-1.291-.347-.7744533-.9094404-1.7885601-1.5833173-2.927-1.945-2.161-.724-2.995-1.371-3.349-2.075.518862-.0647395 1.0315675-.1717622 1.533-.32.3415459-.1050361.6011113-.384306.6809203-.7326115.0798091-.3483054-.0322631-.7127306-.294-.956s-.6333744-.3284246-.9749203-.2233885c-.5611159.1721511-1.1403319.2785308-1.726.317-1.1283402.0881894-2.2619048-.0828373-3.314-.5-.3950277-.1540605-.8442701-.0422508-1.121.279-1.4559635 1.6724538-3.9478574 1.9567152-5.7430816.6551386-1.7952242-1.3015765-2.2998086-3.7583497-1.1629184-5.6621386.1841704-.307427.1903405-.6897551.0161861-1.0029649s-.5021752-.5097173-.8605-.5155-.6925157.1800378-.8766861.4874649c-.238586.406059-.4304726.8378039-.572 1.287-.7874809-.041431-1.4084206-.6855304-1.421-1.474v-.025c-.0005173-.2638693-.1064589-.5165907-.2942597-.7019501-.1878009-.1853594-.4418868-.2879853-.7057403-.2850499-.5546788.005491-1.0011256.4572951-1 1.012.0044528 1.7734668 1.3418538 3.2598987 3.105 3.451.0035845.3352284.0340151.6696311.091 1-2.2327928.4831347-4.5486183-.3194455-6.0036118-2.0806316-1.4549936-1.7611862-1.8061655-4.1868533-.9103882-6.2883684.2237217.2263432.4734607.425396.744.593.4723969.2767228 1.0794921.1221344 1.3620132-.3468178.2825212-.4689522.1354231-1.0779056-.3300132-1.3661822zm-4.4 8.033c.461-.068.937-.128 1.41-.19 1.8489234 2.9546304 5.3851304 4.389274 8.77 3.558.9094997 1.7261663 2.5714022 2.9299599 4.4950808 3.2559972 1.9236787.3260372 3.8894278-.262919 5.3169192-1.5929972.6795698.202697 1.3795072.3294705 2.087.378.483 1.832 1.879 2.942 4.812 3.925.7906821.2478808 1.4960375.7124592 2.036 1.341.6002998.7138339 1.4833272 1.1286667 2.416 1.135.4079034-.0001344.8115999-.0824381 1.187-.242 1.1335438-.4844411 1.8688883-1.5982775 1.869-2.831.0009195-.3214858-.0504164-.6409841-.152-.946-.2248837-.7065599-.5210757-1.3884046-.884-2.035 1.7004725-1.2224254 2.8850466-3.0340431 3.323-5.082.2129773-.253039.4055794-.5225483.576-.806.335.043.67.081 1.007.137l3.61 21.714c-7.0564939-2.3562987-14.6875061-2.3562987-21.744 0v-12.518c0-.5522847-.4477153-1-1-1s-1 .4477153-1 1v12.522c-7.0556977-2.358461-14.6865688-2.3612685-21.744-.008zm-8.214 25.833c-.18895586-.228251-.2659823-.5290209-.21-.82l4.379-22.482h1.6l-3.138 18.859c-.11037243.6864386.14237999 1.3811045.66806574 1.836115.52568576.4550104 1.24941507.6055441 1.91293426.397885 5.3310039-1.7271415 11.0104532-2.0875013 16.517-1.048l-.298 3.625h-20.652c-.30168092.0002141-.58756596-.1348382-.779-.368zm27.349 2.368c-2.409 0-3.791-.712-3.994-1.029l.344-4.15c1.0995773.2737803 2.1756369.6345846 3.218 1.079.1348035.0649541.2823664.0991122.432.1.1500306-.0002285.2980631-.0344161.433-.1 1.0417263-.447028 2.1174766-.8101815 3.217-1.086l.344 4.156c-.203.318-1.585 1.03-3.994 1.03zm27.349-2.368c-.191434.2331618-.4773191.3682141-.779.368h-20.649l-.3-3.632c5.5095832-1.037362 11.191496-.6739038 16.524 1.057.6633643.2049213 1.3855275.0522508 1.9091961-.4036178.5236686-.4558685.7743775-1.1501113.6628039-1.8353822l-3.135-18.855h1.6l4.38 22.48c.055473.2917534-.0226859.5930135-.213.821z"/><path id="Shape" d="m26.686 22.685c-.4093551.3703847-.441136 1.0024199-.071 1.412.8483053.9366084 1.9694213 1.5830428 3.205 1.848-.5595777.7885583-1.4670723 1.2564735-2.434 1.255-.5522847 0-1 .4477153-1 1s.4477153 1 1 1c2.070157.0082594 3.9276303-1.2703233 4.659-3.207 2.4865405-.4120764 4.4551291-2.3260373 4.937-4.8.0744538-.3538613-.0479307-.7203513-.3200693-.9584726-.2721387-.2381213-.6516311-.3107736-.9924777-.1900059-.3408465.1207677-.5899418.4161394-.651453.7724785-.1960875 1.031393-.7911685 1.9437787-1.656 2.539-1.6637494 1.1205406-3.8950927.8662081-5.264-.6-.3703847-.4093551-1.0024199-.441136-1.412-.071z"/><path id="Shape" d="m23.2 21.6c.5522847 0 1-.4477153 1-1 0-.6895629.2739278-1.350883.7615224-1.8384776s1.1489147-.7615224 1.8384776-.7615224c.5522847 0 1-.4477153 1-1s-.4477153-1-1-1c-2.5393675.0027557-4.5972443 2.0606325-4.6 4.6 0 .2652165.1053568.5195704.2928932.7071068s.4418903.2928932.7071068.2928932z"/><path id="Shape" d="m31 2v-1c0-.55228475-.4477153-1-1-1s-1 .44771525-1 1v1c0 .55228475.4477153 1 1 1s1-.44771525 1-1z"/><path id="Shape" d="m46.41 7.176-1 1c-.2599566.25107447-.3642126.62287789-.2726972.97250732.0915155.34962944.3645604.6226744.7141899.71418984.3496294.09151544.7214328-.01274058.9725073-.27269716l1-1c.2599566-.25107447.3642126-.62287789.2726972-.97250732-.0915155-.34962944-.3645604-.6226744-.7141899-.71418984-.3496294-.09151544-.7214328.01274058-.9725073.27269716z"/><path id="Shape" d="m13.883 9.883c.4043959-.00008635.7689341-.2437275.923678-.61734544s.0692299-.80366031-.216678-1.08965456l-1-1c-.2510745-.25995658-.6228779-.3642126-.9725073-.27269716-.3496295.09151544-.6226744.3645604-.7141899.71418984-.0915154.34962943.0127406.72143285.2726972.97250732l1 1c.1874927.18754937.4418052.29294336.707.293z"/><path id="Shape" d="m21.581 5.675c.1313847-.00028124.2614627-.02609305.383-.076.2451011-.10152817.4398132-.29629087.5412776-.54141839s.1013645-.52052773-.0002776-.76558161l-1.149-2.772c-.1316192-.33762411-.43559-.57762635-.7945371-.62733226-.358947-.04970591-.7166983.09866304-.9351117.38781568s-.2633091.67383911-.1173512 1.00551658l1.148 2.772c.1548963.37359074.5195709.61710177.924.617z"/><path id="Shape" d="m39.95.979c-.5100349-.21099754-1.0945733.0311428-1.306.541l-1.149 2.772c-.1019555.24516905-.10222.52082095-.0007353.76618523.1014848.24536427.2963859.44029399.5417353.54181477.1215373.04990695.2516153.07571876.383.076.4044291.00010177.7691037-.24340926.924-.617l1.148-2.772c.1019555-.24516905.10222-.52082095.0007353-.76618523-.1014848-.24536427-.2963859-.44029399-.5417353-.54181477z"/><path id="Shape" d="m50.325 17.582c.1314874-.0002372.2616372-.0264031.383-.077l2.771-1.148c.3301134-.1366541.5622467-.4390411.6089575-.7932547.0467108-.3542137-.0990974-.7064405-.3825-.924-.2834026-.2175596-.6613441-.2673994-.9914575-.1307453l-2.772 1.148c-.4423387.1816955-.6941348.6511321-.6008203 1.1201409.0933144.4690087.5056209.8063148.9838203.8048591z"/><path id="Shape" d="m9.292 17.505c.51031111.2115251 1.0954749-.0306889 1.307-.541s-.0306889-1.0954749-.541-1.307l-2.772-1.148c-.51031111-.2112489-1.09525108.0311889-1.3065.5415s.03118889 1.0952511.5415 1.3065z"/></g></g></svg>