<svg id="Layer_1" fill="#001c58" enable-background="new 0 0 512 512" height="512" viewBox="0 0 512 512" width="512" xmlns="http://www.w3.org/2000/svg"><g id="XMLID_1580_"><g id="XMLID_1078_"><path id="XMLID_265_" d="m485.71 328.056-83.276-83.276v-63.28c0-5.523-4.478-10-10-10s-10 4.477-10 10v43.281l-20.077-20.077c.319-2.341.498-4.726.498-7.153 0-29.111-24.385-52.795-53.496-52.795-15.897 0-31.83-5.891-43.591-16.587-2.929-2.664-7.153-3.349-10.773-1.748s-5.955 5.187-5.955 9.146v14.515c-7.364-3.522-15.48-5.384-23.884-5.384-14.804 0-28.721 5.765-39.188 16.232-13.811 13.812-36.281 13.81-50.092 0-10.468-10.468-24.385-16.232-39.188-16.232-9.315 0-18.278 2.287-26.253 6.588v-91.286h312v31.5c0 5.523 4.478 10 10 10s10-4.477 10-10v-41.5c0-5.523-4.478-10-10-10h-89.835v-30c0-5.523-4.478-10-10-10h-132.334c-5.522 0-10 4.477-10 10v30h-89.833c-5.522 0-10 4.477-10 10v230h-.646c-18.116 0-32.854 15.884-32.854 34s14.738 34 32.854 34h42.348l-40.569 151.412c-.805 3.003-.167 6.209 1.726 8.676s4.825 3.913 7.934 3.913h49.793c4.526 0 8.488-3.04 9.659-7.412l20.088-74.971h171.336l20.088 74.971c1.171 4.372 5.133 7.412 9.659 7.412h49.793c3.108 0 6.041-1.446 7.934-3.913 1.893-2.466 2.53-5.672 1.726-8.676l-40.571-151.412h42.348c3.563 0 7.052-.588 10.372-1.692l27.003 27.003c6.239 6.238 14.433 9.357 22.628 9.357 8.194 0 16.39-3.119 22.628-9.357 12.475-12.478 12.475-32.779 0-45.255zm-315.444-308.056h112.334v20h-112.334zm98.773 134.802c12.081 6.494 26.354 9.953 40.319 9.953 18.084 0 33.496 14.712 33.496 32.795s-14.712 32.796-32.796 32.796c-22.618 0-41.02-18.401-41.02-41.019v-34.525zm-198.606 21.285c.421-.306.829-.637 1.208-1.016 6.689-6.69 15.584-10.374 25.045-10.374 9.462 0 18.356 3.684 25.046 10.375 10.805 10.804 24.996 16.206 39.188 16.206s28.384-5.402 39.188-16.206c6.689-6.69 15.584-10.374 25.046-10.374 8.924 0 17.343 3.281 23.884 9.268v15.362c0 33.646 27.373 61.019 61.02 61.019 2.36 0 4.679-.171 6.958-.473l30.127 30.126h-276.71zm32.913 315.913h-29.088l38.583-144h29.088zm42.778-82.382 16.51-61.618h127.599l16.51 61.618zm232.485 82.382h-29.088l-38.583-144h29.088zm-328.821-164c-7.088 0-12.854-6.912-12.854-14s5.767-14 12.854-14h317.355l28 28zm421.779 31.168c-4.68 4.68-12.293 4.679-16.971 0l-116.752-116.752c6.876-4.274 12.7-10.083 16.994-16.946l116.729 116.728c4.679 4.678 4.679 12.292 0 16.97z"/><path id="XMLID_1516_" d="m392.433 126.5c-2.63 0-5.21 1.07-7.07 2.93s-2.93 4.44-2.93 7.07 1.069 5.21 2.93 7.07 4.44 2.93 7.07 2.93 5.21-1.07 7.069-2.93c1.86-1.86 2.931-4.44 2.931-7.07s-1.07-5.21-2.931-7.07c-1.859-1.86-4.439-2.93-7.069-2.93z"/></g></g></svg>