<svg height="512pt" fill="#001c58" viewBox="0 -21 512 512" width="512pt" xmlns="http://www.w3.org/2000/svg"><path d="m501.996094 291.199219c-5.511719 0-10.003906 4.480469-10.003906 9.992187 0 2.671875 1.042968 4.808594 2.921874 6.699219 1.890626 1.890625 4.402344 2.546875 7.074219 2.546875h.007813c5.511718 0 9.992187-4.097656 10.003906-9.613281 0-5.519531-4.480469-9.625-10.003906-9.625zm0 0"/><path d="m461.996094 291.167969-45.449219-.027344-40.410156-70.109375 43.09375-74.53125c1.789062-3.097656 1.792969-6.910156.007812-10.003906l-42.953125-74.503906 29.570313-46.628907c2.957031-4.667969 1.574219-10.847656-3.09375-13.804687-4.664063-2.960938-10.84375-1.5781252-13.804688 3.089844l-29.828125 46.871093-86.785156-.164062h-.003906c-3.574219 0-6.875 2.007812-8.660156 5.097656l-43.125 74.4375-80.007813-.195313-20.828125-38.152343c-1.75-3.21875-5.121094-5.199219-8.792969-5.199219-1.660156 0-3.3125.425781-4.78125 1.226562-2.34375 1.28125-4.050781 3.394532-4.804687 5.964844-.757813 2.5625-.46875 5.261719.8125 7.613282l20.902344 38.238281-41.054688 71.019531h-71.996094c-5.527344 0-10.003906 4.480469-10.003906 10.003906 0 5.523438 4.476562 10.003906 10.003906 10.003906h72.785156l39.835938 69.1875-24.484375 35.296876c-1.519531 2.1875-2.101563 4.867187-1.628906 7.488281.480469 2.632812 1.949219 4.929687 4.140625 6.449219 1.679687 1.171874 3.648437 1.796874 5.691406 1.796874 3.28125 0 6.363281-1.597656 8.230469-4.289062l25.382812-36.546875 80.5625.054687 40.292969 69.894532-24.730469 39.882812c-2.898437 4.691406-1.449219 10.871094 3.234375 13.773438 1.589844.980468 3.410156 1.5 5.261719 1.5 3.488281 0 6.679687-1.769532 8.511719-4.730469l25.113281-40.523437 79.742187.140624 43.253907 75.027344c1.855469 3.214844 5.214843 5.007813 8.675781 5.007813 1.695312 0 3.414062-.429688 4.988281-1.335938 4.785157-2.761719 6.429688-8.878906 3.667969-13.664062l-42.933594-74.46875 40.570313-70.207031 45.816406.027343c5.511719 0 9.992187-4.480469 10.003906-9.992187 0-2.671875-1.039062-5.183594-2.929687-7.074219-1.882813-1.890625-4.394532-2.929687-7.0625-2.941406zm-183.890625-219.59375 80.640625.050781 40.277344 69.859375-40.144532 69.429687-80.640625-.050781-40.273437-69.863281zm-57.789063 219.28125-80.300781-.050781-40.277344-69.863282 40.367188-69.808594 80.183593.050782 40.335938 69.957031zm138.339844 79.734375-80.636719-.050782-40.105469-69.566406 40.3125-69.722656 80.742188.050781 40.054688 69.476563zm0 0"/><path d="m91.777344 72.363281h.011718c1.660157 0 3.3125-.492187 4.769532-1.292969 2.351562-1.28125 4.054687-3.421874 4.8125-5.984374.75-2.570313.460937-5.285157-.820313-7.625-1.75-3.222657-5.121093-5.230469-8.78125-5.230469-1.660156 0-3.320312.417969-4.78125 1.226562-2.351562 1.273438-4.0625 3.390625-4.8125 5.949219-.75 2.570312-.460937 5.332031.820313 7.671875 1.75 3.222656 5.121094 5.285156 8.78125 5.285156zm0 0"/><path d="m89.238281 366.28125c-1.679687-1.171875-3.652343-1.789062-5.703125-1.789062-3.28125 0-6.351562 1.609374-8.222656 4.300781-3.140625 4.53125-2.019531 10.773437 2.511719 13.925781 1.679687 1.167969 3.652343 1.789062 5.703125 1.789062 3.28125 0 6.351562-1.609374 8.222656-4.300781 3.140625-4.53125 2.019531-10.773437-2.511719-13.925781zm0 0"/><path d="m228.78125 451.40625c-1.589844-.980469-3.410156-1.5-5.261719-1.5-3.492187 0-6.671875 1.773438-8.511719 4.730469-1.410156 2.273437-1.851562 4.960937-1.242187 7.566406.613281 2.597656 2.203125 4.808594 4.472656 6.210937 1.589844.976563 3.402344 1.5 5.261719 1.5 3.492188 0 6.671875-1.773437 8.511719-4.730468 1.410156-2.273438 1.851562-4.953125 1.242187-7.554688-.621094-2.601562-2.203125-4.808594-4.472656-6.222656zm0 0"/><path d="m161.742188 72.191406c1.265624.734375 2.734374 1.101563 4.535156 1.101563 1.734375 0 3.351562-.367188 4.648437-1.101563 1.300781-.734375 2.046875-1.734375 2.046875-3v-28.839844h22.007813v28.839844c0 1.265625.761719 2.265625 2.03125 3 1.265625.734375 2.863281 1.101563 4.664062 1.101563 1.734375 0 3.15625-.367188 4.457031-1.101563 1.300782-.734375 1.851563-1.734375 1.851563-3v-65.054687c0-1.332031-.503906-2.335938-1.769531-3.003907-1.269532-.664062-2.738282-1-4.539063-1s-3.433593.335938-4.695312 1c-1.269531.667969-2 1.671876-2 3.003907v26.210937h-22.003907v-26.210937c0-1.332031-.765624-2.335938-2.03125-3.003907-1.265624-.664062-2.867187-1-4.667968-1-1.800782 0-3.238282.335938-4.503906 1-1.269532.667969-1.800782 1.671876-1.800782 3.003907v65.050781c-.003906 1.269531.5 2.269531 1.769532 3.003906zm0 0"/><path d="m478.367188 178.277344c-1.269532-.667969-2.707032-1.003906-4.507813-1.003906s-3.480469.335937-4.746094 1.003906c-1.269531.664062-2.046875 1.667968-2.046875 3v26.125h-22.007812v-26.125c0-1.332032-.695313-2.335938-1.960938-3-1.269531-.667969-2.835937-1.003906-4.636718-1.003906-1.800782 0-3.285157.335937-4.554688 1.003906-1.265625.664062-1.851562 1.667968-1.851562 3v65.050781c0 1.269531.570312 2.269531 1.835937 3.003906 1.269531.734375 2.769531 1.101563 4.574219 1.101563 1.730468 0 3.296875-.367188 4.597656-1.101563s1.996094-1.734375 1.996094-3.003906v-28.921875h22.007812v28.925781c0 1.265625.828125 2.265625 2.09375 3 1.269532.734375 2.898438 1.101563 4.703125 1.101563 1.730469 0 3.105469-.367188 4.402344-1.101563 1.300781-.734375 1.804687-1.734375 1.804687-3v-65.054687c0-1.332032-.4375-2.335938-1.703124-3zm0 0"/><path d="m46.304688 271.75c1.800781 0 3.296874.25 4.632812.75s2.300781 1.101562 2.96875 1.800781c.667969.703125 1.199219 1.570313 1.636719 2.605469.429687 1.035156.691406 1.867188.789062 2.5.101563.636719.179688 1.386719.246094 2.253906.066406 2.734375 2.234375 4.101563 6.503906 4.101563 2.335938 0 4.003907-.449219 5.003907-1.351563s1.5-2.585937 1.5-5.054687c0-5.734375-2.21875-10.339844-6.65625-13.808594s-10.15625-5.207031-17.164063-5.207031c-6.871094 0-12.304687 1.855468-16.574219 5.554687-4.269531 3.703125-6.265625 9.492188-6.265625 17.363281v27.925782c0 7.871094 1.980469 13.660156 6.21875 17.363281 4.234375 3.699219 9.71875 5.554687 16.59375 5.554687 7.070313 0 12.789063-1.804687 17.226563-5.40625 4.4375-3.601562 6.640625-8.40625 6.640625-14.410156 0-2.46875-.527344-4.152344-1.5625-5.054687-1.035157-.898438-2.722657-1.351563-5.058594-1.351563-4.070313 0-6.207031 1.367188-6.40625 4.101563-.066406 1.402343-.21875 2.589843-.449219 3.554687-.234375.96875-.671875 2.070313-1.304687 3.304688-.632813 1.234375-1.667969 2.183594-3.101563 2.851562-1.433594.667969-3.082031 1-5.21875 1-7.140625 0-10.570312-3.835937-10.570312-11.507812v-27.921875c-.003906-7.671875 3.363281-11.511719 10.371094-11.511719zm0 0"/></svg>