<svg id="Layer_1" fill="#001c58" enable-background="new 0 0 511.993 511.993" height="512" viewBox="0 0 511.993 511.993" width="512" xmlns="http://www.w3.org/2000/svg"><path d="m488.769 466.908c-2.311-8.885-2.309-18.258 0-27.131 26.584-3.64 26.684-41.12.15-44.924 12.086-10.641 19.789-26.081 19.955-43.237.219-22.843-13.357-44.277-34.105-53.864 10.775-15.323-1.613-36.7-20.101-35.588-2.259-8.784-2.262-18.052 0-26.848 29.885 1.565 31.85-45.227 1.598-45.227h-54.672l-21.397-72.042 102.572-26.942c17.684-4.645 17.708-30.605 0-35.257l-199.01-52.27c-18.162-4.771-37.361-4.771-55.523 0l-74 19.438c-9.078 2.384-5.681 16.997 3.811 14.508l74-19.438c15.669-4.115 32.233-4.115 47.902 0l199.009 52.272c3.203.841 3.202 5.4 0 6.241l-153.158 40.229-48.206-43.71v-17.363c-1.226-29.62-43.433-29.613-44.656 0v21.319c0 2.606 1.353 5.026 3.574 6.39 10.156 6.235 22.066 7.117 32.843 2.431l39.129 35.48-28.536 7.495c-15.669 4.115-32.233 4.115-47.902 0l-199.009-52.271c-3.203-.842-3.204-5.4 0-6.241l87.056-22.866c9.078-2.384 5.68-17-3.811-14.508l-87.056 22.866c-17.684 4.645-17.709 30.605 0 35.257l102.571 26.941-21.397 72.042h-18.074c-32.335 0-58.896 26.052-59.207 58.075-.162 16.764 7.051 33.021 19.506 44.226h-26.896c-28.506.977-30.562 41.054-2.502 45.084 2.314 8.885 2.314 18.246 0 27.131-26.585 3.638-26.686 41.12-.152 44.924-12.086 10.641-19.789 26.08-19.956 43.236-.152 15.76 5.881 30.615 16.987 41.831 11.109 11.218 25.903 17.396 41.656 17.396h424.502c28.415-.935 30.645-41.015 2.505-45.085zm-226.176-394.443c-4.792 1.871-9.876 1.874-14.656.005v-16.715c.345-9.7 14.314-9.694 14.656 0zm187.638 265.153c17.782.726 17.824 26.103 0 26.848h-314.06v-26.848zm-329.061 90.266-20.673 10.846v-101.112h20.673zm-35.673-63.418h-46.855c1.759-8.856 1.759-17.992 0-26.848h46.855zm3.619 93.086c2.435 1.364 4.89 1.438 7.365.224l34.037-17.857h342.836c-1.754 8.849-1.753 17.991.002 26.848h-411.594c-7.4 0-13.421-6.022-13.421-13.424s6.021-13.424 13.421-13.424h23.734v11.216c.001 2.625 1.374 5.059 3.62 6.417zm350.173-195.387h-347.527c-7.4 0-13.421-6.022-13.421-13.424s6.021-13.424 13.421-13.424h203.16c-.189 5.342-.161 13.175 7.378 13.175h43.164c7.562 0 7.567-7.83 7.378-13.175h86.449c-1.755 8.858-1.756 17.999-.002 26.848zm-115.406-78.81c6.609 0 12.9 23.453 13.934 50.138h-27.868c1.033-26.685 7.325-50.138 13.934-50.138zm139.994 29.349c0 4.198-3.415 7.613-7.612 7.613h-104.407c-.493-5.099-1.149-10.185-2.059-15.227h106.466c4.197.001 7.612 3.417 7.612 7.614zm-77.931-22.613h-39.894c-3.569-10.504-8.474-17.221-14.669-20.105v-39.116l34.299-9.009zm-239.634-68.23 81.923 21.518c18.093 4.752 37.431 4.752 55.523 0l32.624-8.569v35.176c-6.196 2.884-11.1 9.601-14.669 20.105h-175.665zm-85.548 157.58c-8.268-8.349-12.759-19.405-12.646-31.13.232-23.832 20.063-43.22 44.208-43.22h205.64c-.91 5.042-1.566 10.128-2.059 15.227h-204.145c-15.672 0-28.421 12.751-28.421 28.424s12.75 28.424 28.421 28.424h364.502c9.523 0 9.959 15.227 0 15.227h-364.502c-11.718-.001-22.727-4.6-30.998-12.952zm-42.647 35.564c0-4.198 3.415-7.613 7.612-7.613h424.503c23.929 0 43.872 20.14 43.643 44.08-.232 23.832-20.063 43.22-44.208 43.22h-39.337c-9.385 0-9.813 15 0 15h75.935c4.197 0 7.612 3.415 7.612 7.613s-3.415 7.613-7.612 7.613h-350.095v-15.227h234.632c9.385 0 9.813-15 0-15h-234.632v-15.227h314.061c15.672 0 28.422-12.751 28.422-28.424s-12.75-28.424-28.422-28.424h-424.502c-4.198.002-7.612-3.414-7.612-7.611zm7.612 79.687c-10.077-.359-10.069-14.871 0-15.227h59.768v15.227zm460.536 102.301h-424.503c-11.719 0-22.728-4.599-30.998-12.951-8.268-8.35-12.759-19.405-12.646-31.13.232-23.832 20.063-43.22 44.208-43.22h23.171v15.227h-23.735c-37.714 1.566-37.685 55.296 0 56.848h424.502c10.078.358 10.071 14.871.001 15.226z"/></svg>