<svg id="Capa_1" fill="#001c58" enable-background="new 0 0 512 512" height="512" viewBox="0 0 512 512" width="512" xmlns="http://www.w3.org/2000/svg"><g><g><path d="m256 512c-12.406 0-22.5-10.094-22.5-22.5 0-.399.011-.795.031-1.189l-125.923-52.158c-4.121 4.576-10.089 7.457-16.718 7.457-12.406 0-22.5-10.094-22.5-22.5s10.094-22.5 22.5-22.5 22.5 10.094 22.5 22.5c0 .399-.011.795-.031 1.189l125.923 52.158c4.121-4.576 10.089-7.457 16.718-7.457s12.597 2.881 16.718 7.457l125.923-52.158c-.021-.395-.031-.79-.031-1.189 0-12.406 10.094-22.5 22.5-22.5s22.5 10.094 22.5 22.5-10.094 22.5-22.5 22.5c-6.629 0-12.597-2.881-16.718-7.457l-125.923 52.158c.021.395.031.79.031 1.189 0 12.406-10.094 22.5-22.5 22.5zm0-30c-4.136 0-7.5 3.364-7.5 7.5s3.364 7.5 7.5 7.5 7.5-3.364 7.5-7.5-3.364-7.5-7.5-7.5zm165.109-68.391c-4.136 0-7.5 3.364-7.5 7.5s3.364 7.5 7.5 7.5 7.5-3.364 7.5-7.5-3.364-7.5-7.5-7.5zm-330.218 0c-4.136 0-7.5 3.364-7.5 7.5s3.364 7.5 7.5 7.5 7.5-3.364 7.5-7.5-3.365-7.5-7.5-7.5zm165.109 8.391c-91.533 0-166-74.467-166-166s74.467-166 166-166c32.449 0 63.883 9.364 90.904 27.081 3.464 2.271 4.431 6.921 2.16 10.385-2.271 3.465-6.923 4.43-10.385 2.16-8.474-5.556-17.425-10.208-26.727-13.92 6.728 6.835 12.997 14.967 18.689 24.317 3.544 5.82 6.791 11.998 9.727 18.477h30.971c-3.721-4.376-7.714-8.573-11.973-12.575-3.02-2.836-3.168-7.582-.331-10.601 2.836-3.021 7.583-3.168 10.601-.331 33.278 31.261 52.364 75.366 52.364 121.007 0 91.533-74.467 166-166 166zm7.5-68.5v52.961c20.287-2.926 39.351-17.682 54.33-42.285 2.087-3.427 4.061-6.987 5.92-10.676zm-75.25 0c1.859 3.688 3.833 7.249 5.92 10.676 14.979 24.604 34.043 39.359 54.33 42.285v-52.961zm152.119 0c-2.936 6.479-6.183 12.656-9.727 18.477-5.675 9.32-11.923 17.432-18.627 24.253 23.078-9.253 43.37-24.052 59.201-42.729h-30.847zm-199.586 0c15.831 18.678 36.123 33.477 59.201 42.729-6.704-6.821-12.952-14.933-18.627-24.253-3.544-5.82-6.791-11.998-9.727-18.477h-30.847zm205.636-15h36c14.253-21.768 23.041-47.426 24.397-75h-46.918c-.733 26.702-5.377 52.296-13.479 75zm-82.919 0h66.921c8.692-22.289 13.69-47.983 14.472-75h-81.393zm-81.921 0h66.921v-75h-81.393c.782 27.017 5.78 52.711 14.472 75zm-51.998 0h36c-8.103-22.704-12.746-48.298-13.479-75h-46.918c1.356 27.574 10.144 53.232 24.397 75zm230.317-90h46.922c-1.304-27.121-9.67-52.779-24.246-75h-36.155c8.102 22.704 12.746 48.298 13.479 75zm-96.398 0h81.393c-.781-27.017-5.779-52.711-14.472-75h-66.921v17.5c0 4.143-3.357 7.5-7.5 7.5s-7.5-3.357-7.5-7.5v-17.5h-66.921c-8.692 22.289-13.69 47.983-14.472 75h81.393v-27.5c0-4.143 3.357-7.5 7.5-7.5s7.5 3.357 7.5 7.5zm-158.316 0h46.918c.733-26.702 5.377-52.296 13.479-75h-36c-14.253 21.768-23.041 47.426-24.397 75zm158.316-90h60.25c-1.859-3.688-3.833-7.249-5.92-10.676-14.979-24.604-34.043-39.359-54.33-42.285zm-75.25 0h60.25v-52.961c-20.287 2.926-39.351 17.682-54.33 42.285-2.087 3.427-4.061 6.988-5.92 10.676zm-47.467 0h30.848c2.936-6.479 6.183-12.656 9.727-18.477 5.675-9.32 11.923-17.432 18.627-24.253-23.079 9.253-43.371 24.052-59.202 42.73zm296.494 231.072c-.957 0-1.929-.184-2.867-.573-3.827-1.585-5.645-5.972-4.059-9.799l44.105-106.482c-4.575-4.121-7.456-10.089-7.456-16.718s2.881-12.597 7.457-16.718l-52.158-125.923c-.395.021-.79.031-1.189.031-12.406 0-22.5-10.094-22.5-22.5s10.094-22.5 22.5-22.5 22.5 10.094 22.5 22.5c0 6.629-2.881 12.597-7.457 16.718l52.158 125.923c.395-.021.79-.031 1.189-.031 12.406 0 22.5 10.094 22.5 22.5s-10.094 22.5-22.5 22.5c-.399 0-.795-.011-1.189-.031l-44.102 106.471c-1.196 2.888-3.989 4.632-6.932 4.632zm52.223-141.072c-4.136 0-7.5 3.364-7.5 7.5s3.364 7.5 7.5 7.5 7.5-3.364 7.5-7.5-3.364-7.5-7.5-7.5zm-68.391-165.109c-4.136 0-7.5 3.364-7.5 7.5s3.364 7.5 7.5 7.5 7.5-3.364 7.5-7.5-3.364-7.5-7.5-7.5zm-346.386 306.181c-2.943 0-5.735-1.743-6.932-4.632l-44.102-106.471c-.395.021-.79.031-1.189.031-12.406 0-22.5-10.094-22.5-22.5s10.094-22.5 22.5-22.5c.399 0 .795.011 1.189.031l52.158-125.923c-4.576-4.121-7.457-10.089-7.457-16.718 0-12.406 10.094-22.5 22.5-22.5 6.629 0 12.597 2.881 16.718 7.457l125.923-52.158c-.021-.395-.031-.79-.031-1.189 0-12.406 10.094-22.5 22.5-22.5s22.5 10.094 22.5 22.5c0 .399-.011.795-.031 1.189l106.619 44.163c3.827 1.585 5.645 5.972 4.059 9.799-1.585 3.827-5.973 5.647-9.799 4.059l-106.63-44.167c-4.121 4.575-10.09 7.457-16.718 7.457-6.629 0-12.597-2.881-16.718-7.457l-125.923 52.158c.021.395.031.79.031 1.189 0 12.406-10.094 22.5-22.5 22.5-.399 0-.795-.011-1.189-.031l-52.158 125.923c4.576 4.121 7.457 10.089 7.457 16.718s-2.881 12.597-7.457 16.718l44.105 106.482c1.586 3.827-.231 8.214-4.059 9.799-.938.389-1.91.573-2.866.573zm-52.223-141.072c-4.136 0-7.5 3.364-7.5 7.5s3.364 7.5 7.5 7.5 7.5-3.364 7.5-7.5-3.364-7.5-7.5-7.5zm68.391-165.109c-4.136 0-7.5 3.364-7.5 7.5s3.364 7.5 7.5 7.5 7.5-3.364 7.5-7.5-3.365-7.5-7.5-7.5zm165.109-68.391c-4.136 0-7.5 3.364-7.5 7.5s3.364 7.5 7.5 7.5 7.5-3.364 7.5-7.5-3.364-7.5-7.5-7.5z"/></g></g></svg>