<svg xmlns="http://www.w3.org/2000/svg" width="137.906" height="161.419" viewBox="0 0 137.906 161.419">
  <g id="Group_444" data-name="Group 444" transform="translate(-473.345 -721.982)">
    <path id="Path_5184" data-name="Path 5184" d="M12661.633,7787c-5.8,2.959,22.7,12.724-23.2,11.834s-43.1-8.182-61.583-1.1-17.8,18.627-12.353,29.416,11.954,19.428,21.787,27.108,15.646,7.853,23.739,7.853,3.688-16.094,3.688-16.094-12.066-5.312-21.925-3.88-11.284-2.145-21.467,5.725-14.448,13.321-19.267,25.75-4.693,10.842-3.692,20.688,10.464,9.284,7.7,18.7-15.076,22.229-15.076,22.229" transform="translate(-12055.413 -7063)" fill="none" stroke="#c43c30" stroke-linecap="round" stroke-width="3" stroke-dasharray="8 8"/>
    <path id="Icon_feather-chevron-right" data-name="Icon feather-chevron-right" d="M0,18,9,9,0,0" transform="translate(495.222 874.275) rotate(133)" fill="none" stroke="#c43c30" stroke-linecap="round" stroke-linejoin="round" stroke-width="3"/>
  </g>
</svg>
