<svg xmlns="http://www.w3.org/2000/svg" width="102.368" height="161.71" viewBox="0 0 102.368 161.71">
  <g id="Group_450" data-name="Group 450" transform="translate(-576.623 -805.523)">
    <path id="Path_5184" data-name="Path 5184" d="M12542.534,7787c4.224,3.181-16.534,13.681,16.894,12.726s31.385-8.8,44.846-1.187,12.963,20.028,9,31.63-8.706,20.89-15.867,29.147-11.393,8.445-17.288,8.445-2.684-17.306-2.684-17.306,8.786-5.711,15.966-4.172,8.217-2.307,15.633,6.154,10.522,14.325,14.03,27.689,3.418,11.658,2.69,22.245-7.621,9.982-5.605,20.1,12.611,16.479,12.611,16.479" transform="translate(-11961.984 -6979.377)" fill="none" stroke="#c43c30" stroke-linecap="round" stroke-width="3" stroke-dasharray="8 8"/>
    <path id="Icon_feather-chevron-right" data-name="Icon feather-chevron-right" d="M0,18,9,9,0,0" transform="translate(670.734 946.41) rotate(51)" fill="none" stroke="#c43c30" stroke-linecap="round" stroke-linejoin="round" stroke-width="3"/>
  </g>
</svg>
