<svg xmlns="http://www.w3.org/2000/svg" width="226.547" height="241.391" viewBox="0 0 226.547 241.391">
  <g id="Group_449" data-name="Group 449" transform="translate(-473.345 -722.011)">
    <path id="Path_5184" data-name="Path 5184" d="M12747.786,7787c-9.906,4.555,38.784,19.59-39.626,18.221s-73.622-12.6-105.2-1.7-30.405,28.68-21.1,45.292,20.42,29.914,37.217,41.739,26.726,12.092,40.553,12.092,6.3-24.781,6.3-24.781-20.611-8.178-37.451-5.974-19.276-3.3-36.671,8.814-24.681,20.512-32.91,39.649-8.018,16.694-6.309,31.854,17.875,14.295,13.146,28.786-25.753,34.227-25.753,34.227" transform="translate(-12055.413 -7063)" fill="none" stroke="#c43c30" stroke-linecap="round" stroke-width="3" stroke-dasharray="8 8"/>
    <path id="Icon_feather-chevron-right" data-name="Icon feather-chevron-right" d="M0,18,9,9,0,0" transform="translate(495.222 954.276) rotate(133)" fill="none" stroke="#c43c30" stroke-linecap="round" stroke-linejoin="round" stroke-width="3"/>
  </g>
</svg>
