<svg xmlns="http://www.w3.org/2000/svg" width="569.109" height="181.647" viewBox="0 0 569.109 181.647">
  <g id="Group_443" data-name="Group 443" transform="translate(-890.221 -818.284)">
    <path id="Path_5194" data-name="Path 5194" d="M22782.416,7871s-4.8,30.345,11.725,53.106,20.77,24.624,54.395,37.937,35.467,12.694,80.105,15.317,102.244-20.914,107.34-31.652,9.621-29.159-8.885-33.19-26.541-5.954-41.713,0-13.26,21.247-13.26,33.19,18.854,40.4,18.854,40.4,13.822,25,36.119,36.246,30.912,20.345,62.756,26.227,64.621-26.227,64.621-26.227,19.25-12.322,41.291-13.627,41.047,34.135,63.785,39.854,32.336-18.6,49.9-18.6,38.021,5.991,38.021,5.991" transform="translate(-21890 -7051)" fill="none" stroke="#c43c30" stroke-linecap="round" stroke-width="3" stroke-dasharray="8 8"/>
    <path id="Icon_feather-chevron-right" data-name="Icon feather-chevron-right" d="M0,18,9,9,0,0" transform="translate(1447.609 973.169) rotate(8)" fill="none" stroke="#c43c30" stroke-linecap="round" stroke-linejoin="round" stroke-width="3"/>
  </g>
</svg>
