<svg xmlns="http://www.w3.org/2000/svg" width="257.283" height="60.351" viewBox="0 0 257.283 60.351">
  <path id="Path_5080" data-name="Path 5080" d="M8.692,1A1.125,1.125,0,0,0,9.8,2.1h18.87c11.05,0,18.7-6.63,18.7-16.15,0-8.16-5.185-12.58-11.22-14.2a14.6,14.6,0,0,0,9.35-13.77c0-9.35-7.14-15.385-17.6-15.385H9.8a1.125,1.125,0,0,0-1.105,1.105Zm4-30.856v-23.8H27.9c8.16,0,13.26,4.42,13.26,11.815,0,6.97-4.675,11.985-12.665,11.985ZM12.6-1.469V-26.2H28.5c8.075,0,14.535,4.505,14.535,12.07,0,7.4-5.78,12.665-14.025,12.665ZM62.328,1c0,.6,3.74.68,3.74,0V-23.229a11.944,11.944,0,0,1,10.115-5.865,10.815,10.815,0,0,1,4.42,1.02c.6.255,1.87-3.4,1.105-3.655a14.071,14.071,0,0,0-5.27-1.02,13.042,13.042,0,0,0-10.625,5.27c-.425-4.08-3.485-3.91-3.485-3.315ZM95.989-48.56a2.849,2.849,0,0,0,2.89-2.805,2.939,2.939,0,0,0-2.89-2.975,2.939,2.939,0,0,0-2.89,2.975A2.849,2.849,0,0,0,95.989-48.56ZM94.119,1c0,.6,3.74.68,3.74,0V-30.794c0-.6-3.74-.6-3.74,0Zm20.91,0c0,.6,3.74.68,3.74,0V-56.295c0-.6-3.74-.6-3.74,0Zm20.91,0c0,.6,3.74.68,3.74,0V-56.295c0-.6-3.74-.6-3.74,0Zm18.445-15.9c0,9.945,6.885,17.85,15.725,17.85a16.475,16.475,0,0,0,11.73-4.93c.34,3.74,3.4,3.57,3.4,2.975V-56.295c0-.6-3.655-.6-3.655,0v26.946a17.155,17.155,0,0,0-10.455-3.4C161.44-32.75,154.385-24.929,154.385-14.9Zm3.74,0c0-8.075,5.525-14.2,13.345-14.2a16,16,0,0,1,10.115,3.57v19.04a13.5,13.5,0,0,1-11.22,6.035C163.225-.449,158.125-6.994,158.125-14.9Zm41.821-.085c0,9.945,6.375,17.935,16.745,17.935,5.27,0,10.625-2.3,12.325-4,.51-.51-1.275-3.06-2.04-2.55a18.145,18.145,0,0,1-10.03,3.145c-7.65,0-12.92-6.12-13.26-13.43H230.8c1.275,0,1.275-1.955,1.275-3.315,0-9.01-6.46-15.555-15.385-15.555C206.321-32.75,199.946-24.674,199.946-14.984Zm3.825-1.955c.425-6.97,5.44-12.41,12.92-12.41,7.65,0,11.645,5.78,11.645,12.41ZM246.357,1a.989.989,0,0,0,.935,1.105c2.465,0,2.805-.425,2.805-1.105V-23.229a11.944,11.944,0,0,1,10.115-5.865,10.815,10.815,0,0,1,4.42,1.02c.6.255,1.87-3.4,1.105-3.655a14.071,14.071,0,0,0-5.27-1.02,13.042,13.042,0,0,0-10.625,5.27c-.425-4.08-3.485-3.91-3.485-3.315Z" transform="translate(-8.692 57.4)" fill="#fff"/>
</svg>
