<svg xmlns="http://www.w3.org/2000/svg" xmlns:xlink="http://www.w3.org/1999/xlink" width="240.531" height="50.454" viewBox="0 0 240.531 50.454">
  <defs>
    <style>
      .cls-1 {
        fill: #001c55;
      }

      .cls-2 {
        clip-path: url(#clip-path);
      }
    </style>
    <clipPath id="clip-path">
      <path id="Path_10" data-name="Path 10" class="cls-1" d="M0-130H240.531v50.454H0Z" transform="translate(0 130)"/>
    </clipPath>
  </defs>
  <g id="Scholar_6_Logo" data-name="Scholar 6 Logo" transform="translate(-452.469 -389.454)">
    <g id="Group_18" data-name="Group 18" transform="translate(670.949 390.141)">
      <path id="Path_8" data-name="Path 8" class="cls-1" d="M-5.623-32.153a6.524,6.524,0,0,0,6.907,6.818,6.679,6.679,0,0,0,6.894-6.834C8.213-36.244,5.444-39,1.306-39a6.658,6.658,0,0,0-6.928,6.852M6.322-52.531c-2.931,4.007-5.249,8.2-8.355,11.85a.44.44,0,0,0,.169-.027c3.888-2.493,11.492-.938,13.191,5.935a9.664,9.664,0,0,1-7.6,12.213c-4.223.843-8.075-.072-10.829-3.6a9.352,9.352,0,0,1-.831-10.591,67.6,67.6,0,0,1,4.011-6.429c1.943-2.946,3.954-5.847,5.917-8.78a1.089,1.089,0,0,1,1.072-.581c1.013.048,2.029.014,3.258.014" transform="translate(9.189 52.547)"/>
    </g>
    <g id="Group_19" data-name="Group 19" transform="translate(452.469 389.454)">
      <g id="Group_10" data-name="Group 10" transform="translate(0 0)">
        <g id="Group_9" data-name="Group 9" class="cls-2" transform="translate(0 0)">
          <g id="Group_1" data-name="Group 1" transform="translate(188.953 0.524)">
            <path id="Path_1" data-name="Path 1" class="cls-1" d="M-6.306-5.561V14.76a1.09,1.09,0,0,0,.227.053c2.655-.043,5.322.2,7.953-.386,2.9-.65,5.249-2.041,6.559-4.817a12.1,12.1,0,0,0,.818-7.235,8.452,8.452,0,0,0-4.283-6.4A12.9,12.9,0,0,0-1.1-5.551c-1.723-.047-3.449-.01-5.2-.01m-.047,23.907v9.816c-1.238,0-2.426.009-3.614-.015-.109,0-.264-.192-.309-.324a1.7,1.7,0,0,1-.016-.529q0-17.792,0-35.583V-9.03c.22-.023.37-.051.52-.051,3.132.005,6.264-.037,9.394.039A16.288,16.288,0,0,1,6.376-7.453c4.552,2.2,6.766,5.964,7.126,10.9A14.345,14.345,0,0,1,12.341,10.6a11.437,11.437,0,0,1-4.485,5.052c-.28.173-.565.338-.784.469,3.248,2.4,6.466,4.832,9.746,7.179A20.861,20.861,0,0,0,27,26.835a37.028,37.028,0,0,0,13.725-.954c.146-.04.3-.052.543-.092v3.952c-1.011.182-2.107.412-3.214.571a47.828,47.828,0,0,1-10.294.353,27.85,27.85,0,0,1-11.418-3.493A85.094,85.094,0,0,1,5.71,20.23,12.731,12.731,0,0,0,.979,18.188a6.758,6.758,0,0,0-1.651.062c-1.665.026-3.33.037-4.995.056-.2,0-.394.022-.686.039" transform="translate(10.305 9.088)"/>
          </g>
          <g id="Group_2" data-name="Group 2" transform="translate(100.89 0)">
            <path id="Path_2" data-name="Path 2" class="cls-1" d="M-31.833-54.5a13.946,13.946,0,0,0,10.168-4.881,15.651,15.651,0,0,0,3.748-12.108c-.593-7.261-5.784-13.138-13.463-13.79A14.282,14.282,0,0,0-44.2-80.163a15.674,15.674,0,0,0-3.4,12.535c.968,7.757,7.031,13.132,15.77,13.133m-20.19-15.479c.036-11.238,8.733-19.357,19.738-19.079,10.4.263,18.884,8.144,18.7,19.518-.18,10.9-8.572,18.813-19.4,18.751a18.748,18.748,0,0,1-19.034-19.19" transform="translate(52.023 89.06)"/>
          </g>
          <g id="Group_3" data-name="Group 3" transform="translate(67.275 0.571)">
            <path id="Path_3" data-name="Path 3" class="cls-1" d="M-43.724-58.6h-3.893V-71.178H-67.549v12.549h-3.907V-95.768h3.883v20.853h19.946V-95.773h3.9Z" transform="translate(71.456 95.773)"/>
          </g>
          <g id="Group_4" data-name="Group 4" transform="translate(28.028 0.075)">
            <path id="Path_4" data-name="Path 4" class="cls-1" d="M-49.746-44.813l2.905,2.029a16.13,16.13,0,0,1-4.075,4.238,18.768,18.768,0,0,1-12.258,3.409,18.612,18.612,0,0,1-13.4-6.2,18.179,18.179,0,0,1-4.66-11.218,18.906,18.906,0,0,1,4-13.656,18.365,18.365,0,0,1,13.5-6.949,19.35,19.35,0,0,1,10.655,1.969,15.174,15.174,0,0,1,5.7,5.2l-2.973,2.163c-.5-.591-.948-1.171-1.45-1.694a13.294,13.294,0,0,0-9.4-4.1c-6.054-.25-10.855,2.029-13.921,7.356a16.477,16.477,0,0,0,2.242,19.224,13.977,13.977,0,0,0,9.066,4.288,14.55,14.55,0,0,0,10.621-2.762,42.27,42.27,0,0,0,3.446-3.29" transform="translate(81.298 73.236)"/>
          </g>
          <g id="Group_5" data-name="Group 5" transform="translate(0 0.064)">
            <path id="Path_5" data-name="Path 5" class="cls-1" d="M-35.268-8.737l-3.2,1.987c-.6-.7-1.138-1.406-1.76-2.026a7.714,7.714,0,0,0-8.247-1.367A5.417,5.417,0,0,0-49.61-1.294,18.508,18.508,0,0,0-46.01.947c1.989,1.026,4.063,1.887,6.058,2.9a13.876,13.876,0,0,1,4.741,3.707,9.784,9.784,0,0,1-4.664,15.536,15.175,15.175,0,0,1-13.68-1.85,12.519,12.519,0,0,1-3.888-4.494,5.043,5.043,0,0,1-.194-.47l3.13-1.666a39.213,39.213,0,0,0,2.49,3.045A10.484,10.484,0,0,0-39.85,19.028a6.191,6.191,0,0,0,1.328-9.192,14.072,14.072,0,0,0-4.813-3.264c-2.138-1.028-4.294-2.019-6.4-3.1a12.315,12.315,0,0,1-2.348-1.626c-3.073-2.638-3.8-6.053-2.779-9.786.976-3.573,3.643-5.488,7.2-6.1,3.791-.653,7.312,0,10.209,2.738a30.4,30.4,0,0,1,2.193,2.57" transform="translate(57.637 14.278)"/>
          </g>
          <g id="Group_6" data-name="Group 6" transform="translate(144.731 1.524)">
            <path id="Path_6" data-name="Path 6" class="cls-1" d="M-6.1-53.111H24.433V-49.6h-34.4V-86.8H-6.1Z" transform="translate(9.971 86.798)"/>
          </g>
          <g id="Group_7" data-name="Group 7" transform="translate(158.759 0.51)">
            <path id="Path_7" data-name="Path 7" class="cls-1" d="M-28.307-33.444l-5.643-14.289c-1.878,4.75-3.752,9.493-5.648,14.289Zm6.951,7.854c-1.189,0-2.317.018-3.444-.02-.161-.005-.382-.251-.459-.434-.518-1.225-1.018-2.457-1.491-3.7a.749.749,0,0,0-.815-.583q-6.364.03-12.728,0a.743.743,0,0,0-.81.585c-.459,1.224-.959,2.433-1.42,3.658a.646.646,0,0,1-.723.505c-.975-.034-1.952-.011-3.016-.011.088-.253.149-.455.229-.649q5.709-13.9,11.42-27.805c.124-.3.18-.6.648-.614.485-.012.584.278.722.608Q-27.41-40.124-21.575-26.2c.075.179.131.366.218.611" transform="translate(46.262 54.657)"/>
          </g>
          <path id="Path_9" data-name="Path 9" class="cls-1" d="M302.62-5.353H278.852v-3.4H302.62Z" transform="translate(-170.628 55.807)"/>
        </g>
      </g>
    </g>
  </g>
</svg>
